<svg width="122" height="122" viewBox="0 0 122 122" fill="none" xmlns="http://www.w3.org/2000/svg">
<circle cx="61" cy="61" r="59.5" stroke="url(#paint0_linear)" stroke-width="3"/>
<path d="M83.7273 40.4297H51.3956C48.5897 40.4297 46.3068 42.6912 46.3068 45.462L46.0985 73.9317H39.7888C39.3416 73.9317 39 74.3271 39 74.7743V78.6924C39 82.3602 41.9352 85.3599 45.4777 85.5243V85.5714H72.7044V85.5184C72.9068 85.5267 73.0294 85.5714 73.1686 85.5714H73.1879C76.9661 85.5493 80.0116 82.4697 79.9918 78.6916V53.79H88.2112C88.6583 53.79 88.9999 53.3852 88.9999 52.9384V45.7494C89.0051 42.8276 86.6491 40.4506 83.7273 40.4297V40.4297ZM45.832 83.952H45.8264C42.9462 83.952 40.6194 81.5714 40.6194 78.6916V75.5512H66.3279V78.6781C66.3216 80.5008 67.0415 82.2507 68.3285 83.5412C68.4653 83.6788 68.6084 83.7495 68.7547 83.952H45.832ZM78.3724 78.6908C78.3724 81.5714 76.0682 83.952 73.1868 83.952H73.1701C70.2745 83.931 67.9406 81.5742 67.9473 78.6785V74.7743C67.9497 74.3208 67.5911 73.9475 67.1376 73.9317H47.7179L47.9262 45.4675C47.9262 43.5843 49.4824 42.0491 51.3956 42.0491H79.9045C78.9817 43.0613 78.3724 44.3419 78.3724 45.7711V78.6908ZM87.3805 45.7636V52.1706H79.9918V45.7695C79.9918 43.7429 81.6777 42.0491 83.7036 42.0491H83.7261C85.7571 42.0693 87.39 43.7263 87.3805 45.7577V45.7636Z" fill="url(#paint1_linear)"/>
<path d="M58.0122 60.3596L62.1869 63.2138C62.4593 63.4016 62.8195 63.4016 63.0919 63.2138L67.2539 60.3604C68.6998 59.374 69.7677 57.3117 69.7677 55.563V49.7883C69.7764 49.483 69.608 49.1999 69.336 49.0612L62.9796 45.9346C62.7566 45.8239 62.4949 45.8239 62.2719 45.9346L55.9274 49.0525C55.6554 49.1912 55.4874 49.4743 55.4964 49.7796V55.563C55.4964 57.3117 56.5667 59.374 58.0122 60.3596ZM57.1159 50.2848L62.6321 47.5631L68.1483 50.2924V55.563C68.1483 56.7827 67.3488 58.3342 66.3402 59.0217L62.6226 61.5643L58.9196 59.0221C57.911 58.3338 57.1159 56.7827 57.1159 55.563V50.2848Z" fill="url(#paint2_linear)"/>
<path d="M61.2665 56.786C61.4175 56.9402 61.6239 57.0276 61.8398 57.0288H61.8418C62.0569 57.028 62.2628 56.9418 62.4143 56.7892L65.6353 53.5669C65.952 53.2506 65.952 52.7375 65.6357 52.4212C65.3198 52.1045 64.8066 52.1045 64.4903 52.4208L61.8445 55.0662L60.7869 53.9983C60.4718 53.6804 59.959 53.678 59.6412 53.9931C59.3233 54.3083 59.3213 54.8211 59.636 55.1389L61.2665 56.786Z" fill="url(#paint3_linear)"/>
<path d="M72.6999 65.5312H53.2667C52.8196 65.5312 52.457 65.8938 52.457 66.341C52.457 66.7881 52.8196 67.1507 53.2667 67.1507H72.6999C73.1471 67.1507 73.5097 66.7881 73.5097 66.341C73.5097 65.8938 73.1471 65.5312 72.6999 65.5312Z" fill="url(#paint4_linear)"/>
<path d="M72.6999 69.2734H53.2667C52.8196 69.2734 52.457 69.636 52.457 70.0832C52.457 70.5303 52.8196 70.8929 53.2667 70.8929H72.6999C73.1471 70.8929 73.5097 70.5303 73.5097 70.0832C73.5097 69.636 73.1471 69.2734 72.6999 69.2734Z" fill="url(#paint5_linear)"/>
<defs>
<linearGradient id="paint0_linear" x1="61.2618" y1="47.8108" x2="90.8397" y2="157.274" gradientUnits="userSpaceOnUse">
<stop stop-color="#E07504"/>
<stop offset="0.0001" stop-color="#E07504"/>
<stop offset="0.503428" stop-color="#FBDF15"/>
<stop offset="0.941529" stop-color="white"/>
</linearGradient>
<linearGradient id="paint1_linear" x1="64.1073" y1="58.1204" x2="74.114" y2="99.1392" gradientUnits="userSpaceOnUse">
<stop stop-color="#E07504"/>
<stop offset="0.0001" stop-color="#E07504"/>
<stop offset="0.503428" stop-color="#FBDF15"/>
<stop offset="0.941529" stop-color="white"/>
</linearGradient>
<linearGradient id="paint2_linear" x1="62.6627" y1="52.7109" x2="67.6943" y2="67.8945" gradientUnits="userSpaceOnUse">
<stop stop-color="#E07504"/>
<stop offset="0.0001" stop-color="#E07504"/>
<stop offset="0.503428" stop-color="#FBDF15"/>
<stop offset="0.941529" stop-color="white"/>
</linearGradient>
<linearGradient id="paint3_linear" x1="62.651" y1="54.0824" x2="63.5576" y2="58.5637" gradientUnits="userSpaceOnUse">
<stop stop-color="#E07504"/>
<stop offset="0.0001" stop-color="#E07504"/>
<stop offset="0.503428" stop-color="#FBDF15"/>
<stop offset="0.941529" stop-color="white"/>
</linearGradient>
<linearGradient id="paint4_linear" x1="63.0285" y1="66.1659" x2="63.0609" y2="67.7243" gradientUnits="userSpaceOnUse">
<stop stop-color="#E07504"/>
<stop offset="0.0001" stop-color="#E07504"/>
<stop offset="0.503428" stop-color="#FBDF15"/>
<stop offset="0.941529" stop-color="white"/>
</linearGradient>
<linearGradient id="paint5_linear" x1="63.0285" y1="69.9081" x2="63.0609" y2="71.4665" gradientUnits="userSpaceOnUse">
<stop stop-color="#E07504"/>
<stop offset="0.0001" stop-color="#E07504"/>
<stop offset="0.503428" stop-color="#FBDF15"/>
<stop offset="0.941529" stop-color="white"/>
</linearGradient>
</defs>
</svg>
