<svg width="122" height="122" viewBox="0 0 122 122" fill="none" xmlns="http://www.w3.org/2000/svg">
<circle cx="61" cy="61" r="59.5" stroke="url(#paint0_linear)" stroke-width="3"/>
<g clip-path="url(#clip0)">
<path d="M60.9997 68.75C60.2867 68.75 59.708 68.1713 59.708 67.4583V65.5182C59.708 64.8052 60.2867 64.2266 60.9997 64.2266C61.7127 64.2266 62.2913 64.8052 62.2913 65.5182V67.4583C62.2913 68.1713 61.7127 68.75 60.9997 68.75Z" fill="url(#paint1_linear)"/>
<path d="M61.6455 66.1641H57.1247C56.4117 66.1641 55.833 65.5854 55.833 64.8724C55.833 64.1594 56.4117 63.5807 57.1247 63.5807H61.6455C62.715 63.5807 63.583 62.7101 63.583 61.6432C63.583 60.5763 62.715 59.7057 61.6455 59.7057H60.3538C57.8609 59.7057 55.833 57.6778 55.833 55.1849C55.833 52.692 57.8609 50.6641 60.3538 50.6641H64.8747C65.5877 50.6641 66.1663 51.2427 66.1663 51.9557C66.1663 52.6687 65.5877 53.2474 64.8747 53.2474H60.3538C59.2843 53.2474 58.4163 54.118 58.4163 55.1849C58.4163 56.2518 59.2843 57.1224 60.3538 57.1224H61.6455C64.1384 57.1224 66.1663 59.1503 66.1663 61.6432C66.1663 64.1361 64.1384 66.1641 61.6455 66.1641Z" fill="url(#paint2_linear)"/>
<path d="M60.9997 52.6094C60.2867 52.6094 59.708 52.0307 59.708 51.3177V49.3776C59.708 48.6646 60.2867 48.0859 60.9997 48.0859C61.7127 48.0859 62.2913 48.6646 62.2913 49.3776V51.3177C62.2913 52.0307 61.7127 52.6094 60.9997 52.6094Z" fill="url(#paint3_linear)"/>
<path d="M61 73.9141C52.4517 73.9141 45.5 66.9623 45.5 58.4141C45.5 49.8658 52.4517 42.9141 61 42.9141C69.5482 42.9141 76.5 49.8658 76.5 58.4141C76.5 66.9623 69.5482 73.9141 61 73.9141ZM61 45.4974C53.8777 45.4974 48.0833 51.2918 48.0833 58.4141C48.0833 65.5363 53.8777 71.3307 61 71.3307C68.1222 71.3307 73.9167 65.5363 73.9167 58.4141C73.9167 51.2918 68.1222 45.4974 61 45.4974Z" fill="url(#paint4_linear)"/>
<path d="M60.9997 86.8333C60.2867 86.8333 59.708 86.2547 59.708 85.5417C59.708 84.8287 60.2867 84.25 60.9997 84.25C75.2442 84.25 86.833 72.6612 86.833 58.4167C86.833 57.7037 87.4117 57.125 88.1247 57.125C88.8377 57.125 89.4163 57.7037 89.4163 58.4167C89.4163 74.0846 76.6676 86.8333 60.9997 86.8333Z" fill="url(#paint5_linear)"/>
<path d="M86.6008 50.7958C86.0661 50.7958 85.5649 50.46 85.3789 49.9278C81.7881 39.5532 71.9895 32.5833 61 32.5833C55.1203 32.5833 49.6126 34.5131 45.0686 38.1607C44.5131 38.6051 43.6994 38.5198 43.2525 37.9644C42.8056 37.4064 42.896 36.5953 43.4514 36.1483C48.4579 32.1261 54.5261 30 61 30C73.09 30 83.8702 37.6699 87.8227 49.0805C88.0552 49.7573 87.6987 50.491 87.0245 50.7261C86.885 50.7726 86.7403 50.7958 86.6008 50.7958V50.7958Z" fill="url(#paint6_linear)"/>
<path d="M51.958 85.2592C51.8159 85.2592 51.6713 85.236 51.5292 85.1869C40.1987 81.2137 32.583 70.4567 32.583 58.4184C32.583 52.6834 34.288 47.1783 37.512 42.4973C37.915 41.9057 38.7184 41.7637 39.3074 42.1641C39.8964 42.5697 40.0437 43.3731 39.6381 43.9595C36.7138 48.2117 35.1663 53.2104 35.1663 58.4184C35.1663 69.3614 42.0871 79.1393 52.3868 82.7482C53.0585 82.9833 53.4124 83.7196 53.1773 84.3938C52.9913 84.926 52.4928 85.2592 51.958 85.2592V85.2592Z" fill="url(#paint7_linear)"/>
<path d="M64.875 92.0007C64.5443 92.0007 64.2137 91.8741 63.9605 91.6235L58.7938 86.4568C58.2901 85.9531 58.2901 85.1342 58.7938 84.6304L63.9605 79.4637C64.4643 78.96 65.2832 78.96 65.7869 79.4637C66.2907 79.9675 66.2907 80.7864 65.7869 81.2902L61.5347 85.5423L65.7869 89.7945C66.2907 90.2982 66.2907 91.1172 65.7869 91.6209C65.5363 91.8741 65.2057 92.0007 64.875 92.0007V92.0007Z" fill="url(#paint8_linear)"/>
<path d="M40.7828 50.6692C40.2119 50.6692 39.69 50.2894 39.535 49.7134L37.8636 43.4746L31.6249 45.146C30.9377 45.3191 30.2273 44.9213 30.0439 44.2315C29.8605 43.5418 30.2686 42.8365 30.9584 42.6505L38.4449 40.6459C39.1346 40.4728 39.8425 40.8706 40.0259 41.5578L42.0305 49.0417C42.2165 49.734 41.8058 50.4393 41.1186 50.6253C41.005 50.6537 40.8939 50.6692 40.7828 50.6692V50.6692Z" fill="url(#paint9_linear)"/>
<path d="M86.8333 52.2101C86.6137 52.2101 86.3915 52.1558 86.1874 52.037L79.4759 48.162C78.8585 47.8055 78.6467 47.0176 79.0032 46.3976C79.3597 45.7802 80.1476 45.5657 80.7676 45.9248L86.3605 49.154L89.5897 43.5611C89.9462 42.9437 90.7367 42.7292 91.3541 43.0883C91.9715 43.4448 92.1833 44.2327 91.8268 44.8527L87.9519 51.5642C87.7116 51.9776 87.2776 52.2101 86.8333 52.2101Z" fill="url(#paint10_linear)"/>
</g>
<defs>
<linearGradient id="paint0_linear" x1="61.2618" y1="47.8108" x2="90.8397" y2="157.274" gradientUnits="userSpaceOnUse">
<stop stop-color="#E07504"/>
<stop offset="0.0001" stop-color="#E07504"/>
<stop offset="0.503428" stop-color="#FBDF15"/>
<stop offset="0.941529" stop-color="white"/>
</linearGradient>
<linearGradient id="paint1_linear" x1="61.0052" y1="65.9993" x2="62.6888" y2="69.5576" gradientUnits="userSpaceOnUse">
<stop stop-color="#E07504"/>
<stop offset="0.0001" stop-color="#E07504"/>
<stop offset="0.503428" stop-color="#FBDF15"/>
<stop offset="0.941529" stop-color="white"/>
</linearGradient>
<linearGradient id="paint2_linear" x1="61.0218" y1="56.7384" x2="66.2168" y2="69.5554" gradientUnits="userSpaceOnUse">
<stop stop-color="#E07504"/>
<stop offset="0.0001" stop-color="#E07504"/>
<stop offset="0.503428" stop-color="#FBDF15"/>
<stop offset="0.941529" stop-color="white"/>
</linearGradient>
<linearGradient id="paint3_linear" x1="61.0052" y1="49.8586" x2="62.6888" y2="53.417" gradientUnits="userSpaceOnUse">
<stop stop-color="#E07504"/>
<stop offset="0.0001" stop-color="#E07504"/>
<stop offset="0.503428" stop-color="#FBDF15"/>
<stop offset="0.941529" stop-color="white"/>
</linearGradient>
<linearGradient id="paint4_linear" x1="61.0665" y1="55.0627" x2="68.5822" y2="82.8771" gradientUnits="userSpaceOnUse">
<stop stop-color="#E07504"/>
<stop offset="0.0001" stop-color="#E07504"/>
<stop offset="0.503428" stop-color="#FBDF15"/>
<stop offset="0.941529" stop-color="white"/>
</linearGradient>
<linearGradient id="paint5_linear" x1="74.6259" y1="68.7675" x2="81.8285" y2="95.4229" gradientUnits="userSpaceOnUse">
<stop stop-color="#E07504"/>
<stop offset="0.0001" stop-color="#E07504"/>
<stop offset="0.503428" stop-color="#FBDF15"/>
<stop offset="0.941529" stop-color="white"/>
</linearGradient>
<linearGradient id="paint6_linear" x1="65.5274" y1="38.1497" x2="67.9931" y2="57.8624" gradientUnits="userSpaceOnUse">
<stop stop-color="#E07504"/>
<stop offset="0.0001" stop-color="#E07504"/>
<stop offset="0.503428" stop-color="#FBDF15"/>
<stop offset="0.941529" stop-color="white"/>
</linearGradient>
<linearGradient id="paint7_linear" x1="42.9609" y1="58.9149" x2="60.8465" y2="90.4923" gradientUnits="userSpaceOnUse">
<stop stop-color="#E07504"/>
<stop offset="0.0001" stop-color="#E07504"/>
<stop offset="0.503428" stop-color="#FBDF15"/>
<stop offset="0.941529" stop-color="white"/>
</linearGradient>
<linearGradient id="paint8_linear" x1="62.307" y1="84.1471" x2="66.9623" y2="94.4842" gradientUnits="userSpaceOnUse">
<stop stop-color="#E07504"/>
<stop offset="0.0001" stop-color="#E07504"/>
<stop offset="0.503428" stop-color="#FBDF15"/>
<stop offset="0.941529" stop-color="white"/>
</linearGradient>
<linearGradient id="paint9_linear" x1="36.0636" y1="44.5494" x2="38.1401" y2="53.7705" gradientUnits="userSpaceOnUse">
<stop stop-color="#E07504"/>
<stop offset="0.0001" stop-color="#E07504"/>
<stop offset="0.503428" stop-color="#FBDF15"/>
<stop offset="0.941529" stop-color="white"/>
</linearGradient>
<linearGradient id="paint10_linear" x1="85.4433" y1="46.5571" x2="87.0903" y2="55.1927" gradientUnits="userSpaceOnUse">
<stop stop-color="#E07504"/>
<stop offset="0.0001" stop-color="#E07504"/>
<stop offset="0.503428" stop-color="#FBDF15"/>
<stop offset="0.941529" stop-color="white"/>
</linearGradient>
<clipPath id="clip0">
<rect width="62" height="62" fill="white" transform="translate(30 30)"/>
</clipPath>
</defs>
</svg>
