<svg width="122" height="122" viewBox="0 0 122 122" fill="none" xmlns="http://www.w3.org/2000/svg">
<circle cx="61" cy="61" r="59.5" stroke="url(#paint0_linear)" stroke-width="3"/>
<path d="M83.4375 66.25C82.575 66.25 81.875 66.95 81.875 67.8125V78.75H38.125V60H55.3125C56.175 60 56.875 59.3 56.875 58.4375C56.875 57.575 56.175 56.875 55.3125 56.875H38.125V50.625H55.3125C56.175 50.625 56.875 49.925 56.875 49.0625C56.875 48.2 56.175 47.5 55.3125 47.5H38.125C36.4 47.5 35 48.9 35 50.625V78.75C35 80.475 36.4 81.875 38.125 81.875H81.875C83.6 81.875 85 80.475 85 78.75V67.8125C85 66.95 84.3 66.25 83.4375 66.25Z" fill="url(#paint1_linear)"/>
<path d="M49.0625 66.25H42.8125C41.95 66.25 41.25 66.95 41.25 67.8125C41.25 68.675 41.95 69.375 42.8125 69.375H49.0625C49.925 69.375 50.625 68.675 50.625 67.8125C50.625 66.95 49.925 66.25 49.0625 66.25Z" fill="url(#paint2_linear)"/>
<path d="M84.0531 42.9367L73.1156 38.2492C72.7187 38.0836 72.2781 38.0836 71.8813 38.2492L60.9438 42.9367C60.3719 43.1836 60 43.7492 60 44.3742V50.6242C60 59.2211 63.1781 64.2461 71.7219 69.168C71.9625 69.3055 72.2312 69.3742 72.5 69.3742C72.7688 69.3742 73.0375 69.3055 73.2781 69.168C81.8219 64.2586 85 59.2336 85 50.6242V44.3742C85 43.7492 84.6281 43.1836 84.0531 42.9367ZM81.875 50.6242C81.875 57.8398 79.4875 61.8117 72.5 65.9992C65.5125 61.8023 63.125 57.8305 63.125 50.6242V45.4055L72.5 41.3867L81.875 45.4055V50.6242Z" fill="url(#paint3_linear)"/>
<path d="M78.1645 47.8386C77.4927 47.3074 76.5114 47.4105 75.9677 48.0824L71.0552 54.2261L69.1114 51.3199C68.627 50.6011 67.6552 50.4105 66.9458 50.8855C66.2302 51.3636 66.0333 52.3355 66.5114 53.0511L69.6364 57.7386C69.9145 58.1543 70.3708 58.4105 70.8708 58.4355C70.8927 58.4355 70.9177 58.4355 70.9364 58.4355C71.4083 58.4355 71.8583 58.223 72.1583 57.848L78.4083 50.0355C78.9458 49.3605 78.8395 48.3793 78.1645 47.8386Z" fill="url(#paint4_linear)"/>
<defs>
<linearGradient id="paint0_linear" x1="61.2618" y1="47.8108" x2="90.8397" y2="157.274" gradientUnits="userSpaceOnUse">
<stop stop-color="#E07504"/>
<stop offset="0.0001" stop-color="#E07504"/>
<stop offset="0.503428" stop-color="#FBDF15"/>
<stop offset="0.941529" stop-color="white"/>
</linearGradient>
<linearGradient id="paint1_linear" x1="60.1073" y1="60.9713" x2="66.0501" y2="92.9617" gradientUnits="userSpaceOnUse">
<stop stop-color="#E07504"/>
<stop offset="0.0001" stop-color="#E07504"/>
<stop offset="0.503428" stop-color="#FBDF15"/>
<stop offset="0.941529" stop-color="white"/>
</linearGradient>
<linearGradient id="paint2_linear" x1="45.9576" y1="67.4747" x2="46.2264" y2="70.459" gradientUnits="userSpaceOnUse">
<stop stop-color="#E07504"/>
<stop offset="0.0001" stop-color="#E07504"/>
<stop offset="0.503428" stop-color="#FBDF15"/>
<stop offset="0.941529" stop-color="white"/>
</linearGradient>
<linearGradient id="paint3_linear" x1="72.5536" y1="50.3713" x2="81.6745" y2="77.3758" gradientUnits="userSpaceOnUse">
<stop stop-color="#E07504"/>
<stop offset="0.0001" stop-color="#E07504"/>
<stop offset="0.503428" stop-color="#FBDF15"/>
<stop offset="0.941529" stop-color="white"/>
</linearGradient>
<linearGradient id="paint4_linear" x1="72.5271" y1="51.7855" x2="74.884" y2="61.7566" gradientUnits="userSpaceOnUse">
<stop stop-color="#E07504"/>
<stop offset="0.0001" stop-color="#E07504"/>
<stop offset="0.503428" stop-color="#FBDF15"/>
<stop offset="0.941529" stop-color="white"/>
</linearGradient>
</defs>
</svg>
