<svg width="122" height="122" viewBox="0 0 122 122" fill="none" xmlns="http://www.w3.org/2000/svg">
<circle cx="61" cy="61" r="59.5" stroke="url(#paint0_linear)" stroke-width="3"/>
<g clip-path="url(#clip0)">
<path d="M66.6548 56.3548L59.1422 63.4505L55.5368 59.7413C55.1371 59.3298 54.4789 59.3204 54.0678 59.7201C53.6563 60.1202 53.647 60.778 54.0467 61.1895L58.3709 65.6285C58.7727 66.0327 59.4219 66.0465 59.8403 65.6595L68.1034 57.8657C68.304 57.6764 68.4213 57.4151 68.429 57.1395C68.4367 56.864 68.3346 56.5966 68.1449 56.3963C67.7427 55.9783 67.0797 55.96 66.6548 56.3548Z" fill="url(#paint1_linear)"/>
<path d="M61.0828 45.4336C52.497 45.4336 45.5156 52.4149 45.5156 61.0008C45.5156 69.5871 52.497 76.5684 61.0828 76.5684C69.6691 76.5684 76.6504 69.5871 76.6504 61.0008C76.6504 52.4149 69.6691 45.4336 61.0828 45.4336ZM61.0828 74.4844C53.6432 74.4844 47.5996 68.4303 47.5996 61.0008C47.5996 53.5713 53.6432 47.5176 61.0828 47.5176C68.5298 47.5176 74.5665 53.5542 74.5665 61.0008C74.5665 68.4474 68.5298 74.4844 61.0828 74.4844Z" fill="url(#paint2_linear)"/>
<path d="M82.5047 55.2717L82.8486 49.0926C82.8726 48.6778 82.6471 48.2883 82.2755 48.1027L76.7737 45.3206L73.9917 39.8188C73.8024 39.4505 73.4153 39.2262 73.0018 39.2457L66.8121 39.5795L61.6543 36.1719C61.3067 35.9427 60.8561 35.9427 60.5081 36.1719L55.3502 39.5795L49.1715 39.2356C48.7563 39.2111 48.3672 39.4366 48.1816 39.8087L45.3992 45.3105L39.8978 48.0925C39.529 48.2814 39.3051 48.6684 39.3247 49.0824L39.6682 55.2615L36.261 60.4194C36.0318 60.767 36.0318 61.2175 36.261 61.5655L39.658 66.7336L39.3141 72.9127C39.2901 73.3274 39.5152 73.717 39.8872 73.9026L45.389 76.6846L48.171 82.1864C48.3599 82.5552 48.747 82.779 49.1609 82.7595L55.34 82.4156L60.4979 85.8228C60.8435 86.0593 61.2985 86.0593 61.6441 85.8228L66.8019 82.4156L72.981 82.7595C73.3958 82.7835 73.7849 82.558 73.9709 82.1864L76.753 76.6846L82.2548 73.9026C82.6231 73.7133 82.8474 73.3266 82.8279 72.9127L82.4839 66.7336L85.8912 61.5757C86.1203 61.2281 86.1203 60.7771 85.8912 60.4295L82.5047 55.2717ZM80.5664 65.8792C80.4394 66.0657 80.3804 66.2899 80.3999 66.515L80.7227 72.3603L75.5233 74.9861C75.3251 75.0854 75.1643 75.2466 75.065 75.4448L72.4389 80.6442L66.5935 80.3214C66.3697 80.3133 66.1487 80.3711 65.9578 80.4879L61.0812 83.7079L56.205 80.4879C56.0356 80.3735 55.8362 80.3116 55.6319 80.3108H55.5798L49.734 80.634L47.1083 75.4342C47.009 75.236 46.8482 75.0752 46.6496 74.9759L41.4396 72.3603L41.7628 66.515C41.7709 66.2911 41.7127 66.0701 41.5959 65.8792L38.3763 61.0026L41.5959 56.126C41.7233 55.94 41.7823 55.7153 41.7628 55.4907L41.4396 49.6449L46.6394 47.0192C46.8376 46.9199 46.9984 46.7591 47.0977 46.5609L49.7234 41.3611L55.5692 41.6843C55.7926 41.692 56.0137 41.6342 56.205 41.5174L61.0812 38.2978L65.9578 41.5174C66.1442 41.6448 66.3689 41.7038 66.5935 41.6843L72.4389 41.3611L75.065 46.5609C75.1643 46.7591 75.3251 46.9199 75.5233 47.0192L80.7227 49.6449L80.3999 55.4907C80.3918 55.7141 80.45 55.9351 80.5664 56.126L83.7864 61.0026L80.5664 65.8792Z" fill="url(#paint3_linear)"/>
</g>
<defs>
<linearGradient id="paint0_linear" x1="61.2618" y1="47.8108" x2="90.8397" y2="157.274" gradientUnits="userSpaceOnUse">
<stop stop-color="#E07504"/>
<stop offset="0.0001" stop-color="#E07504"/>
<stop offset="0.503428" stop-color="#FBDF15"/>
<stop offset="0.941529" stop-color="white"/>
</linearGradient>
<linearGradient id="paint1_linear" x1="61.1227" y1="59.9385" x2="62.7944" y2="69.1377" gradientUnits="userSpaceOnUse">
<stop stop-color="#E07504"/>
<stop offset="0.0001" stop-color="#E07504"/>
<stop offset="0.503428" stop-color="#FBDF15"/>
<stop offset="0.941529" stop-color="white"/>
</linearGradient>
<linearGradient id="paint2_linear" x1="61.1498" y1="57.6351" x2="68.6982" y2="85.5704" gradientUnits="userSpaceOnUse">
<stop stop-color="#E07504"/>
<stop offset="0.0001" stop-color="#E07504"/>
<stop offset="0.503428" stop-color="#FBDF15"/>
<stop offset="0.941529" stop-color="white"/>
</linearGradient>
<linearGradient id="paint3_linear" x1="61.1833" y1="55.5947" x2="73.3109" y2="100.453" gradientUnits="userSpaceOnUse">
<stop stop-color="#E07504"/>
<stop offset="0.0001" stop-color="#E07504"/>
<stop offset="0.503428" stop-color="#FBDF15"/>
<stop offset="0.941529" stop-color="white"/>
</linearGradient>
<clipPath id="clip0">
<rect width="50" height="50" fill="white" transform="translate(36 36)"/>
</clipPath>
</defs>
</svg>
