<svg width="122" height="122" viewBox="0 0 122 122" fill="none" xmlns="http://www.w3.org/2000/svg">
<circle cx="61" cy="61" r="59.5" stroke="url(#paint0_linear)" stroke-width="3"/>
<g clip-path="url(#clip0)">
<path d="M88.165 84.002H85.665V68.1686C85.6647 67.7084 85.2913 67.3356 84.8311 67.3359C84.5595 67.3361 84.305 67.4686 84.1492 67.6911L72.4825 84.3578C72.2188 84.735 72.3107 85.2546 72.6879 85.5182C72.8278 85.616 72.9943 85.6685 73.165 85.6686H83.9984V88.1686C83.9984 88.6288 84.3715 89.002 84.8317 89.002C85.2919 89.002 85.665 88.6288 85.665 88.1686V85.6686H88.165C88.6252 85.6686 88.9984 85.2955 88.9984 84.8353C88.9984 84.3751 88.6252 84.002 88.165 84.002ZM83.9984 84.002H74.765L83.9984 70.812V84.002Z" fill="url(#paint1_linear)"/>
<path d="M73.168 87.3335H63.3021L72.4746 76.5326C72.4955 76.5079 72.5149 76.482 72.533 76.4551C74.2586 73.9012 73.6838 70.4434 71.2246 68.5851C68.2345 66.4367 64.0689 67.1191 61.9206 70.1092C61.1059 71.2431 60.6678 72.604 60.668 74.0001C60.668 74.4604 61.0411 74.8335 61.5013 74.8335C61.9615 74.8335 62.3346 74.4604 62.3346 74.0001C62.3343 71.2387 64.5728 68.9999 67.3341 68.9996C68.3808 68.9995 69.4011 69.3278 70.2513 69.9385C71.9739 71.2584 72.3751 73.6892 71.168 75.4926L60.8663 87.6277C60.5685 87.9786 60.6116 88.5044 60.9626 88.8022C61.1131 88.9299 61.3039 89 61.5013 89.0002H73.168C73.6282 89.0002 74.0013 88.627 74.0013 88.1668C74.0013 87.7066 73.6282 87.3335 73.168 87.3335Z" fill="url(#paint2_linear)"/>
<path d="M61.5183 83.1825C61.5357 82.7226 61.1769 82.3357 60.717 82.3183C60.7169 82.3183 60.7168 82.3183 60.7167 82.3183C49.8448 81.9148 41.1189 73.2045 40.6958 62.3333H44C44.4602 62.3333 44.8333 61.9602 44.8333 61.5C44.8333 61.0398 44.4602 60.6667 44 60.6667H40.6958C41.1128 49.8147 49.8146 41.1132 60.6667 40.6967V43.1667C60.6667 43.6269 61.0398 44 61.5 44C61.9602 44 62.3333 43.6269 62.3333 43.1667V40.6967C73.0369 41.1106 81.6756 49.5862 82.2933 60.28L79.0433 57.03C78.7123 56.7102 78.1848 56.7194 77.865 57.0504C77.5531 57.3733 77.5531 57.8853 77.865 58.2083L82.5167 62.86C82.6043 62.966 82.7172 63.0482 82.845 63.0992C82.8776 63.109 82.9107 63.1171 82.9442 63.1233C83.0014 63.144 83.0605 63.1582 83.1208 63.1658C83.1292 63.1658 83.1367 63.1658 83.145 63.1658C83.1533 63.1658 83.1608 63.1658 83.1683 63.1658C83.2318 63.161 83.2945 63.1488 83.355 63.1292C83.3893 63.125 83.4232 63.1186 83.4567 63.11C83.5695 63.0699 83.6722 63.0056 83.7575 62.9217L88.4725 58.2083C88.7922 57.8773 88.7831 57.3498 88.4521 57.03C88.1292 56.7181 87.6172 56.7181 87.2942 57.03L83.9633 60.3583C83.368 48.4135 73.5187 39.0293 61.5592 39.0117C61.5383 39.0108 61.5208 39 61.5 39C61.4792 39 61.4617 39.0108 61.4408 39.0117C49.0606 39.0286 39.0286 49.0606 39.0117 61.4408C39.0117 61.4617 39 61.4792 39 61.5C39 61.5208 39.0108 61.5383 39.0117 61.5592C39.0324 73.6339 48.5886 83.5352 60.655 83.9842H60.6858C61.1336 83.9841 61.5014 83.63 61.5183 83.1825Z" fill="url(#paint3_linear)"/>
<path d="M72.6966 50.3026C72.3711 49.9773 71.8436 49.9773 71.5182 50.3026L62.5632 59.2567C61.8867 58.9551 61.1139 58.9551 60.4374 59.2567L56.1974 55.0167C55.8664 54.6971 55.3387 54.7062 55.0191 55.0373C54.7072 55.3602 54.7072 55.8722 55.0191 56.1951L59.2507 60.4267C58.6566 61.6705 59.1832 63.1605 60.4271 63.7546C61.3818 64.2106 62.5203 64.0151 63.2682 63.2667C64.0202 62.5211 64.2138 61.3795 63.7499 60.4276L72.6966 51.4809C73.0219 51.1555 73.0219 50.628 72.6966 50.3026ZM62.0901 62.0874C62.09 62.0875 62.09 62.0875 62.0899 62.0876C61.7603 62.4027 61.2411 62.4027 60.9116 62.0876C60.586 61.7622 60.586 61.2346 60.9113 60.909C61.2368 60.5835 61.7644 60.5835 62.0899 60.9088C62.4154 61.2342 62.4154 61.762 62.0901 62.0874Z" fill="url(#paint4_linear)"/>
</g>
<defs>
<linearGradient id="paint0_linear" x1="61.2618" y1="47.8108" x2="90.8397" y2="157.274" gradientUnits="userSpaceOnUse">
<stop stop-color="#E07504"/>
<stop offset="0.0001" stop-color="#E07504"/>
<stop offset="0.503428" stop-color="#FBDF15"/>
<stop offset="0.941529" stop-color="white"/>
</linearGradient>
<linearGradient id="paint1_linear" x1="80.701" y1="75.8267" x2="87.2232" y2="94.3945" gradientUnits="userSpaceOnUse">
<stop stop-color="#E07504"/>
<stop offset="0.0001" stop-color="#E07504"/>
<stop offset="0.503428" stop-color="#FBDF15"/>
<stop offset="0.941529" stop-color="white"/>
</linearGradient>
<linearGradient id="paint2_linear" x1="67.3632" y1="75.8236" x2="75.0428" y2="93.3123" gradientUnits="userSpaceOnUse">
<stop stop-color="#E07504"/>
<stop offset="0.0001" stop-color="#E07504"/>
<stop offset="0.503428" stop-color="#FBDF15"/>
<stop offset="0.941529" stop-color="white"/>
</linearGradient>
<linearGradient id="paint3_linear" x1="63.9599" y1="56.6289" x2="73.9529" y2="97.4936" gradientUnits="userSpaceOnUse">
<stop stop-color="#E07504"/>
<stop offset="0.0001" stop-color="#E07504"/>
<stop offset="0.503428" stop-color="#FBDF15"/>
<stop offset="0.941529" stop-color="white"/>
</linearGradient>
<linearGradient id="paint4_linear" x1="63.9018" y1="55.5215" x2="66.5712" y2="68.3881" gradientUnits="userSpaceOnUse">
<stop stop-color="#E07504"/>
<stop offset="0.0001" stop-color="#E07504"/>
<stop offset="0.503428" stop-color="#FBDF15"/>
<stop offset="0.941529" stop-color="white"/>
</linearGradient>
<clipPath id="clip0">
<rect width="50" height="50" fill="white" transform="translate(39 39)"/>
</clipPath>
</defs>
</svg>
