<svg width="122" height="122" viewBox="0 0 122 122" fill="none" xmlns="http://www.w3.org/2000/svg">
<circle cx="61" cy="61" r="59.5" stroke="url(#paint0_linear)" stroke-width="3"/>
<path d="M88.5081 69.711L81.3957 68.6767L78.2192 62.2397C78.0414 61.8777 77.6729 61.6484 77.2697 61.6484C76.8665 61.6484 76.498 61.8777 76.3199 62.2397L73.1434 68.6767L72.4789 68.7717C69.2002 65.7144 64.8786 64.0232 60.3959 64.044H60.3643C55.5313 64.0545 51.0463 65.9331 47.7221 69.3521C44.3559 72.8133 42.5093 77.5305 42.5196 82.6485C42.5216 82.9283 42.6314 83.1965 42.8257 83.3978C43.024 83.596 43.2942 83.7066 43.575 83.7036L69.376 83.6508C69.3229 84.0342 69.4852 84.4156 69.7983 84.6432C70.1233 84.8745 70.5496 84.9068 70.9062 84.727L77.2588 81.382L83.6117 84.727C83.9713 84.9081 84.4016 84.8761 84.7302 84.6432C85.0561 84.4063 85.2198 84.0058 85.1525 83.6089L83.9387 76.5278L89.0778 71.5154C89.3652 71.2326 89.4675 70.8116 89.3418 70.4283C89.2233 70.0499 88.9 69.7717 88.5081 69.711ZM69.735 81.5403L44.6512 81.5931C44.8729 77.4457 46.477 73.6575 49.2311 70.84C52.1542 67.8325 56.1116 66.1759 60.3643 66.1759H60.3959C63.7308 66.1644 66.9815 67.2221 69.6716 69.1937L66.031 69.7213C65.6324 69.7773 65.3005 70.0561 65.1762 70.4392C65.0521 70.8219 65.1537 71.2425 65.4398 71.5259L70.5792 76.5384L69.735 81.5403ZM82.071 75.3989C81.8213 75.6427 81.7071 75.9937 81.7652 76.3378L82.715 81.857L77.755 79.2503C77.6019 79.1715 77.4317 79.1312 77.2588 79.1342C77.0869 79.1362 76.918 79.1758 76.7629 79.2503L71.8032 81.857L72.7531 76.3378C72.8145 75.9937 72.6996 75.6407 72.4473 75.3989L68.4371 71.4942L73.9771 70.6922C74.3219 70.6447 74.6194 70.4266 74.7686 70.1119L77.2486 65.0888L79.7283 70.1119C79.8823 70.4227 80.1773 70.6391 80.5197 70.6922L86.0601 71.4942L82.071 75.3989Z" fill="url(#paint1_linear)"/>
<path d="M60.3847 61.5465C66.5447 61.5465 71.5387 56.5525 71.5387 50.3922C71.5387 44.2323 66.5447 39.2383 60.3847 39.2383C54.2245 39.2383 49.2305 44.2323 49.2305 50.3922C49.2364 56.5502 54.2268 61.5405 60.3847 61.5465ZM60.3847 41.3488C65.3794 41.3488 69.4282 45.3976 69.4282 50.3922C69.4282 55.3872 65.3794 59.4356 60.3847 59.4356C55.3897 59.4356 51.3413 55.3872 51.3413 50.3922C51.3469 45.3999 55.3924 41.3544 60.3847 41.3488Z" fill="url(#paint2_linear)"/>
<defs>
<linearGradient id="paint0_linear" x1="61.2618" y1="47.8108" x2="90.8397" y2="157.274" gradientUnits="userSpaceOnUse">
<stop stop-color="#E07504"/>
<stop offset="0.0001" stop-color="#E07504"/>
<stop offset="0.503428" stop-color="#FBDF15"/>
<stop offset="0.941529" stop-color="white"/>
</linearGradient>
<linearGradient id="paint1_linear" x1="66.0577" y1="70.7384" x2="68.991" y2="92.677" gradientUnits="userSpaceOnUse">
<stop stop-color="#E07504"/>
<stop offset="0.0001" stop-color="#E07504"/>
<stop offset="0.503428" stop-color="#FBDF15"/>
<stop offset="0.941529" stop-color="white"/>
</linearGradient>
<linearGradient id="paint2_linear" x1="60.4324" y1="47.9807" x2="65.8409" y2="67.9964" gradientUnits="userSpaceOnUse">
<stop stop-color="#E07504"/>
<stop offset="0.0001" stop-color="#E07504"/>
<stop offset="0.503428" stop-color="#FBDF15"/>
<stop offset="0.941529" stop-color="white"/>
</linearGradient>
</defs>
</svg>
