<svg width="122" height="122" viewBox="0 0 122 122" fill="none" xmlns="http://www.w3.org/2000/svg">
<circle cx="61" cy="61" r="59.5" stroke="url(#paint0_linear)" stroke-width="3"/>
<path d="M75.8372 80.6641C75.377 80.6641 75.0039 81.0372 75.0039 81.4973V83.1639C75.0039 83.624 75.377 83.9971 75.8372 83.9971C76.2973 83.9971 76.6704 83.624 76.6704 83.1639V81.4973C76.6704 81.0372 76.2973 80.6641 75.8372 80.6641Z" fill="url(#paint1_linear)"/>
<path d="M75.8352 85.6641C75.3751 85.6641 75.002 86.0372 75.002 86.4973V87.3306H74.1687C73.7085 87.3306 73.3354 87.7037 73.3354 88.1639C73.3354 88.624 73.7085 88.9971 74.1687 88.9971H75.8352C76.2954 88.9971 76.6685 88.624 76.6685 88.1639V86.4973C76.6685 86.0372 76.2954 85.6641 75.8352 85.6641Z" fill="url(#paint2_linear)"/>
<path d="M71.0204 87.332H67.8723C67.4122 87.332 67.0391 87.7051 67.0391 88.1653C67.0391 88.6255 67.4122 88.9986 67.8723 88.9986H71.0204C71.4806 88.9986 71.8537 88.6255 71.8537 88.1653C71.8537 87.7051 71.4806 87.332 71.0204 87.332Z" fill="url(#paint3_linear)"/>
<path d="M58.4292 87.332H55.282C54.8218 87.332 54.4487 87.7051 54.4487 88.1653C54.4487 88.6255 54.8218 88.9986 55.282 88.9986H58.4292C58.8894 88.9986 59.2625 88.6255 59.2625 88.1653C59.2625 87.7051 58.8894 87.332 58.4292 87.332Z" fill="url(#paint4_linear)"/>
<path d="M64.7227 87.332H61.5754C61.1153 87.332 60.7422 87.7051 60.7422 88.1653C60.7422 88.6255 61.1153 88.9986 61.5754 88.9986H64.7227C65.1828 88.9986 65.5559 88.6255 65.5559 88.1653C65.5559 87.7051 65.1828 87.332 64.7227 87.332Z" fill="url(#paint5_linear)"/>
<path d="M52.1298 87.332H48.9817C48.5215 87.332 48.1484 87.7051 48.1484 88.1653C48.1484 88.6255 48.5215 88.9986 48.9817 88.9986H52.1298C52.5899 88.9986 52.963 88.6255 52.963 88.1653C52.963 87.7051 52.5899 87.332 52.1298 87.332Z" fill="url(#paint6_linear)"/>
<path d="M45.8396 87.3306H45.0064V86.4973C45.0064 86.0372 44.6333 85.6641 44.1731 85.6641C43.7129 85.6641 43.3398 86.0372 43.3398 86.4973V88.1639C43.3398 88.624 43.7129 88.9971 44.1731 88.9971H45.8396C46.2998 88.9971 46.6729 88.624 46.6729 88.1639C46.6729 87.7037 46.2998 87.3306 45.8396 87.3306Z" fill="url(#paint7_linear)"/>
<path d="M44.1731 57.7891C43.7129 57.7891 43.3398 58.1622 43.3398 58.6223V62.107C43.3398 62.5672 43.7129 62.9403 44.1731 62.9403C44.6333 62.9403 45.0064 62.5672 45.0064 62.107V58.6223C45.0064 58.1622 44.6333 57.7891 44.1731 57.7891Z" fill="url(#paint8_linear)"/>
<path d="M44.1731 64.7578C43.7129 64.7578 43.3398 65.1309 43.3398 65.5911V69.0758C43.3398 69.5359 43.7129 69.909 44.1731 69.909C44.6333 69.909 45.0064 69.5359 45.0064 69.0758V65.5911C45.0064 65.1309 44.6333 64.7578 44.1731 64.7578Z" fill="url(#paint9_linear)"/>
<path d="M44.1731 78.6953C43.7129 78.6953 43.3398 79.0684 43.3398 79.5286V83.0125C43.3398 83.4726 43.7129 83.8457 44.1731 83.8457C44.6333 83.8457 45.0064 83.4726 45.0064 83.0125V79.5286C45.0064 79.0684 44.6333 78.6953 44.1731 78.6953Z" fill="url(#paint10_linear)"/>
<path d="M44.1731 71.7266C43.7129 71.7266 43.3398 72.0997 43.3398 72.5598V76.0454C43.3398 76.5055 43.7129 76.8786 44.1731 76.8786C44.6333 76.8786 45.0064 76.5055 45.0064 76.0454V72.5598C45.0064 72.0997 44.6333 71.7266 44.1731 71.7266Z" fill="url(#paint11_linear)"/>
<path d="M44.1731 50.8203C43.7129 50.8203 43.3398 51.1934 43.3398 51.6536V55.1383C43.3398 55.5985 43.7129 55.9716 44.1731 55.9716C44.6333 55.9716 45.0064 55.5985 45.0064 55.1383V51.6536C45.0064 51.1934 44.6333 50.8203 44.1731 50.8203Z" fill="url(#paint12_linear)"/>
<path d="M48.2576 42.3411C47.8631 40.3979 46.1534 39.0019 44.1705 39.0039C41.8695 39.0016 40.0023 40.8651 40 43.1661C39.998 45.149 41.3939 46.8587 43.3372 47.2532V48.1698C43.3372 48.63 43.7103 49.0031 44.1705 49.0031C44.6307 49.0031 45.0038 48.63 45.0038 48.1698V47.2532C47.2588 46.7953 48.7155 44.5961 48.2576 42.3411ZM44.1705 45.67C42.7899 45.67 41.6707 44.5508 41.6707 43.1702C41.6707 41.7896 42.7899 40.6704 44.1705 40.6704C45.5511 40.6704 46.6703 41.7896 46.6703 43.1702C46.6703 44.5508 45.5511 45.67 44.1705 45.67Z" fill="url(#paint13_linear)"/>
<path d="M75.8335 39C68.01 39 61.668 45.3421 61.668 53.1655C61.668 60.7215 74.6177 77.9376 75.1668 78.6634L75.8335 79.545L76.5001 78.6667C77.0492 77.9376 89.9989 60.7215 89.9989 53.1655C89.9989 45.3421 83.6569 39 75.8335 39ZM75.8335 76.761C73.1578 73.1013 63.3345 59.2433 63.3345 53.1655C63.3423 46.2657 68.9337 40.6743 75.8335 40.6665C82.7332 40.6743 88.3246 46.2657 88.3324 53.1655C88.3324 59.2433 78.5091 73.1013 75.8335 76.761Z" fill="url(#paint14_linear)"/>
<path d="M75.8368 47.3359C72.6154 47.3359 70.0039 49.9474 70.0039 53.1688C70.0039 56.3902 72.6154 59.0016 75.8368 59.0016C79.0564 58.9975 81.6654 56.3884 81.6696 53.1688C81.6696 49.9474 79.0582 47.3359 75.8368 47.3359ZM75.8368 57.3351C73.5369 57.3324 71.6731 55.4686 71.6704 53.1688C71.6704 50.8678 73.5358 49.0025 75.8368 49.0025C78.1377 49.0025 80.0031 50.8678 80.0031 53.1688C80.0031 55.4697 78.1378 57.3351 75.8368 57.3351Z" fill="url(#paint15_linear)"/>
<defs>
<linearGradient id="paint0_linear" x1="61.2618" y1="47.8108" x2="90.8397" y2="157.274" gradientUnits="userSpaceOnUse">
<stop stop-color="#E07504"/>
<stop offset="0.0001" stop-color="#E07504"/>
<stop offset="0.503428" stop-color="#FBDF15"/>
<stop offset="0.941529" stop-color="white"/>
</linearGradient>
<linearGradient id="paint1_linear" x1="75.8407" y1="81.9703" x2="77.1829" y2="84.4538" gradientUnits="userSpaceOnUse">
<stop stop-color="#E07504"/>
<stop offset="0.0001" stop-color="#E07504"/>
<stop offset="0.503428" stop-color="#FBDF15"/>
<stop offset="0.941529" stop-color="white"/>
</linearGradient>
<linearGradient id="paint2_linear" x1="75.0091" y1="86.9703" x2="75.8172" y2="89.9608" gradientUnits="userSpaceOnUse">
<stop stop-color="#E07504"/>
<stop offset="0.0001" stop-color="#E07504"/>
<stop offset="0.503428" stop-color="#FBDF15"/>
<stop offset="0.941529" stop-color="white"/>
</linearGradient>
<linearGradient id="paint3_linear" x1="69.4567" y1="87.9851" x2="69.6055" y2="89.5757" gradientUnits="userSpaceOnUse">
<stop stop-color="#E07504"/>
<stop offset="0.0001" stop-color="#E07504"/>
<stop offset="0.503428" stop-color="#FBDF15"/>
<stop offset="0.941529" stop-color="white"/>
</linearGradient>
<linearGradient id="paint4_linear" x1="56.8659" y1="87.9851" x2="57.0147" y2="89.5757" gradientUnits="userSpaceOnUse">
<stop stop-color="#E07504"/>
<stop offset="0.0001" stop-color="#E07504"/>
<stop offset="0.503428" stop-color="#FBDF15"/>
<stop offset="0.941529" stop-color="white"/>
</linearGradient>
<linearGradient id="paint5_linear" x1="63.1594" y1="87.9851" x2="63.3082" y2="89.5757" gradientUnits="userSpaceOnUse">
<stop stop-color="#E07504"/>
<stop offset="0.0001" stop-color="#E07504"/>
<stop offset="0.503428" stop-color="#FBDF15"/>
<stop offset="0.941529" stop-color="white"/>
</linearGradient>
<linearGradient id="paint6_linear" x1="50.5661" y1="87.9851" x2="50.7148" y2="89.5757" gradientUnits="userSpaceOnUse">
<stop stop-color="#E07504"/>
<stop offset="0.0001" stop-color="#E07504"/>
<stop offset="0.503428" stop-color="#FBDF15"/>
<stop offset="0.941529" stop-color="white"/>
</linearGradient>
<linearGradient id="paint7_linear" x1="45.0135" y1="86.9703" x2="45.8216" y2="89.9608" gradientUnits="userSpaceOnUse">
<stop stop-color="#E07504"/>
<stop offset="0.0001" stop-color="#E07504"/>
<stop offset="0.503428" stop-color="#FBDF15"/>
<stop offset="0.941529" stop-color="white"/>
</linearGradient>
<linearGradient id="paint8_linear" x1="44.1767" y1="59.8078" x2="46.6167" y2="62.7292" gradientUnits="userSpaceOnUse">
<stop stop-color="#E07504"/>
<stop offset="0.0001" stop-color="#E07504"/>
<stop offset="0.503428" stop-color="#FBDF15"/>
<stop offset="0.941529" stop-color="white"/>
</linearGradient>
<linearGradient id="paint9_linear" x1="44.1767" y1="66.7765" x2="46.6167" y2="69.6979" gradientUnits="userSpaceOnUse">
<stop stop-color="#E07504"/>
<stop offset="0.0001" stop-color="#E07504"/>
<stop offset="0.503428" stop-color="#FBDF15"/>
<stop offset="0.941529" stop-color="white"/>
</linearGradient>
<linearGradient id="paint10_linear" x1="44.1767" y1="80.7137" x2="46.6162" y2="83.635" gradientUnits="userSpaceOnUse">
<stop stop-color="#E07504"/>
<stop offset="0.0001" stop-color="#E07504"/>
<stop offset="0.503428" stop-color="#FBDF15"/>
<stop offset="0.941529" stop-color="white"/>
</linearGradient>
<linearGradient id="paint11_linear" x1="44.1767" y1="73.7456" x2="46.6172" y2="76.6671" gradientUnits="userSpaceOnUse">
<stop stop-color="#E07504"/>
<stop offset="0.0001" stop-color="#E07504"/>
<stop offset="0.503428" stop-color="#FBDF15"/>
<stop offset="0.941529" stop-color="white"/>
</linearGradient>
<linearGradient id="paint12_linear" x1="44.1767" y1="52.839" x2="46.6167" y2="55.7604" gradientUnits="userSpaceOnUse">
<stop stop-color="#E07504"/>
<stop offset="0.0001" stop-color="#E07504"/>
<stop offset="0.503428" stop-color="#FBDF15"/>
<stop offset="0.941529" stop-color="white"/>
</linearGradient>
<linearGradient id="paint13_linear" x1="44.1888" y1="42.9225" x2="47.0108" y2="51.6351" gradientUnits="userSpaceOnUse">
<stop stop-color="#E07504"/>
<stop offset="0.0001" stop-color="#E07504"/>
<stop offset="0.503428" stop-color="#FBDF15"/>
<stop offset="0.941529" stop-color="white"/>
</linearGradient>
<linearGradient id="paint14_linear" x1="75.8943" y1="54.8892" x2="89.0253" y2="88.846" gradientUnits="userSpaceOnUse">
<stop stop-color="#E07504"/>
<stop offset="0.0001" stop-color="#E07504"/>
<stop offset="0.503428" stop-color="#FBDF15"/>
<stop offset="0.941529" stop-color="white"/>
</linearGradient>
<linearGradient id="paint15_linear" x1="75.8618" y1="51.9076" x2="78.69" y2="62.3745" gradientUnits="userSpaceOnUse">
<stop stop-color="#E07504"/>
<stop offset="0.0001" stop-color="#E07504"/>
<stop offset="0.503428" stop-color="#FBDF15"/>
<stop offset="0.941529" stop-color="white"/>
</linearGradient>
</defs>
</svg>
