<svg width="134" height="133" viewBox="0 0 134 133" fill="none" xmlns="http://www.w3.org/2000/svg">
<path d="M80.0966 130.794C71.214 132.643 62.0495 132.672 53.1555 130.878C44.2615 129.085 35.8221 125.507 28.3458 120.359C20.927 115.116 14.6467 108.42 9.88439 100.677C5.12205 92.9334 1.97656 84.3036 0.637991 75.3086C-0.609177 66.3136 -0.0238166 57.1588 2.35871 48.3966C4.74124 39.6344 8.87156 31.4465 14.5004 24.327C19.8558 17.5795 26.5314 11.9991 34.1175 7.9284C41.7036 3.85767 50.0402 1.38242 58.6158 0.65455C69.1017 -0.0761864 80.0626 2.20099 88.3597 8.65866C96.6568 15.1163 101.764 26.0944 99.6261 36.3927C97.5561 46.2321 89.5644 53.8284 80.8771 58.9095C72.1897 63.9907 62.5352 67.1516 53.7291 72.1817C44.923 77.2119 36.9483 84.6722 34.7256 94.4947C33.5755 99.6215 34.0989 104.983 36.2187 109.789C40.6642 119.816 50.1829 124.013 54.8829 126.035C67.2013 131.269 79.9439 130.165 79.9099 130.896C79.9099 130.896 79.8081 131.083 77.2121 131.422C74.477 131.852 71.7167 132.102 68.949 132.17C65.167 132.16 61.4005 131.686 57.7335 130.76C50.3596 128.857 43.6393 124.987 38.2888 119.561C31.926 113.035 29.2621 101.377 31.0267 92.5064C32.418 85.7089 36.8296 79.897 42.0386 75.5125C47.9031 70.7558 54.3878 66.8223 61.3136 63.8208C69.3901 60.0991 77.806 56.8533 84.8474 51.2963C86.6624 49.9039 88.3489 48.3512 89.8868 46.657C96.8604 38.8398 97.1488 28.2186 91.5835 19.5687C85.6279 10.426 75.3117 5.44682 64.4356 4.98799C55.2669 4.67247 46.1842 6.85126 38.153 11.2927C33.2244 13.9138 28.637 17.1328 24.4942 20.8773C20.1987 24.8103 16.4493 29.3028 13.3466 34.2344C10.8856 38.1835 8.94107 42.4327 7.56071 46.8779C4.62234 55.7323 3.63469 65.1193 4.66574 74.3926C5.69679 83.666 8.72205 92.6054 13.5333 100.595C22.4412 115.074 37.6101 124.982 53.9327 129.128C62.4716 131.328 71.3484 131.893 80.0966 130.794Z" fill="white"/>
<path d="M52.9485 1.40076C61.8333 -0.443559 70.9991 -0.466863 79.8931 1.33225C88.7872 3.13136 97.2255 6.71562 104.699 11.869C112.11 17.1051 118.386 23.7902 123.148 31.5211C127.91 39.2521 131.06 47.8688 132.407 56.8518C133.655 65.8468 133.07 75.0018 130.688 83.7642C128.305 92.5265 124.174 100.714 118.545 107.833C115.423 111.725 99.4054 131.625 74.4293 131.506C69.5936 131.506 49.7077 130.673 39.4424 115.736C38.085 113.764 32.6554 105.879 34.0637 96.0906C35.9471 82.9543 52.151 73.2678 52.151 73.2678C52.151 73.2678 52.7109 72.353 63.5773 67.3757C74.4436 62.3984 77.0171 61.2786 79.2141 59.9786C83.3033 57.5145 97.0808 49.1705 98.7436 36.9349C99.3508 32.4654 98.9685 27.9167 97.6238 23.6117C96.0196 19.0441 93.2948 14.9536 89.7 11.716C87.0112 9.20262 83.9416 7.13199 80.6054 5.58125C74.2048 2.53071 67.1969 0.973542 60.1088 1.02689C56.4947 1.02689 52.9824 1.53671 52.9824 1.41775C54.7386 1.03264 56.5185 0.765801 58.3102 0.619037C60.007 0.432104 62.1449 0.160203 63.9434 0.143209C67.7275 0.118767 71.4983 0.592999 75.1589 1.5537C82.5295 3.46378 89.2479 7.33314 94.6036 12.7527C100.966 19.2783 103.63 30.9531 101.849 39.8069C100.474 46.6894 96.0628 52.4164 90.8368 56.8857C84.9814 61.6511 78.5018 65.5907 71.5788 68.5945C63.5022 72.2992 55.0694 75.545 48.0449 81.102C46.3303 82.4517 44.7299 83.9409 43.2601 85.5544C36.2865 93.3886 36.015 104.01 41.5633 112.643C44.5973 117.067 48.6452 120.7 53.3684 123.237C58.0915 125.774 63.3525 127.141 68.7112 127.223C77.8788 127.519 86.9551 125.322 94.9769 120.868C99.8778 118.244 104.437 115.025 108.551 111.283C112.849 107.348 116.603 102.856 119.715 97.9259C122.168 93.9724 124.112 89.7243 125.501 85.2825C128.445 76.4305 129.438 67.0448 128.413 57.7715C127.388 48.4982 124.368 39.5575 119.563 31.5649C110.655 17.0861 95.4859 7.17867 79.1632 3.10014C70.6089 0.890921 61.7158 0.314419 52.9485 1.40076Z" fill="#E51B30"/>
<path d="M63.6914 91.2749C63.6914 91.2749 63.9968 96.2201 67.8315 96.7299C67.8315 96.7299 71.3946 96.73 72.1582 91.2749C72.1582 91.2749 71.1062 91.4279 71.191 89.0997C71.191 88.5559 71.0383 88.4879 70.4275 88.25C70.4275 88.25 67.4073 90.2723 65.3373 88.25C65.1135 88.2859 64.9032 88.3802 64.7275 88.5234C64.5518 88.6666 64.4168 88.8536 64.3362 89.0657C64.3362 89.0657 64.7943 90.7141 63.6914 91.2749Z" fill="url(#paint0_linear)"/>
<path d="M75.5854 99.7699C75.5854 99.7699 74.228 96.932 71.7338 97.1529C71.0517 98.0986 70.2789 98.9751 69.4263 99.7699H75.5854Z" fill="url(#paint1_linear)"/>
<path d="M66.1349 99.8592H59.8569C60.178 99.097 60.7125 98.4443 61.3961 97.9799C62.0796 97.5154 62.8828 97.2592 63.7086 97.2422" fill="url(#paint2_linear)"/>
<path d="M67.645 100.098C67.645 100.098 67.2378 98.5854 66.627 98.3984H69.0024C68.5789 98.8827 68.2867 99.4679 68.154 100.098H67.645Z" fill="url(#paint3_linear)"/>
<path d="M58.1937 100.109H78.7752C78.7752 100.109 79.8102 100.109 79.3012 101.809L76.6373 111.903H60.1958L57.5319 101.469C57.5319 101.469 56.9381 100.109 58.1937 100.109Z" fill="url(#paint4_linear)"/>
<path d="M67.8823 119.741C78.7619 119.741 87.5815 110.908 87.5815 100.011C87.5815 89.1146 78.7619 80.2812 67.8823 80.2812C57.0027 80.2812 48.1831 89.1146 48.1831 100.011C48.1831 110.908 57.0027 119.741 67.8823 119.741Z" stroke="white" stroke-width="2"/>
<path d="M64.5737 29.8906V34.275L67.4582 42.2112H58.3467V35.5156C58.3596 34.7028 58.6089 33.9115 59.0639 33.2384C59.519 32.5654 60.1601 32.0398 60.9088 31.726L64.5737 29.8906Z" fill="url(#paint5_linear)"/>
<path d="M70.8347 29.8906V34.275L67.9502 42.2112H77.0108V35.5156C76.9922 34.702 76.7387 33.9111 76.281 33.2387C75.8234 32.5662 75.1811 32.0408 74.4318 31.726L70.8347 29.8906Z" fill="url(#paint6_linear)"/>
<path d="M66.6948 31.7266H69.0194L68.188 33.1201L69.0194 34.6835L67.8656 41.3111L66.6948 34.6835L67.4584 33.188L66.6948 31.7266Z" fill="url(#paint7_linear)"/>
<path d="M63.1992 24.3878C63.1992 24.3878 63.5216 29.7069 67.6447 30.2507C67.6447 30.2507 71.4793 30.2507 72.3107 24.3878C72.3107 24.3878 71.1739 24.5408 71.2757 22.0427C71.2757 21.4649 71.106 21.3799 70.4443 21.125C70.4443 21.125 67.1866 23.3002 64.9129 21.125C64.6714 21.1599 64.4435 21.2586 64.2526 21.4109C64.0618 21.5632 63.9149 21.7637 63.827 21.9917C63.827 21.9917 64.37 23.81 63.1992 24.3878Z" fill="url(#paint8_linear)"/>
<path d="M67.8823 52.0848C78.7619 52.0848 87.5815 43.2514 87.5815 32.3549C87.5815 21.4584 78.7619 12.625 67.8823 12.625C57.0027 12.625 48.1831 21.4584 48.1831 32.3549C48.1831 43.2514 57.0027 52.0848 67.8823 52.0848Z" stroke="#F31D42" stroke-width="2"/>
<defs>
<linearGradient id="paint0_linear" x1="62.9819" y1="90.5074" x2="70.6882" y2="98.1913" gradientUnits="userSpaceOnUse">
<stop stop-color="#E07504"/>
<stop offset="0.49" stop-color="#FBDF15"/>
<stop offset="1" stop-color="white"/>
</linearGradient>
<linearGradient id="paint1_linear" x1="68.9101" y1="97.8406" x2="70.6374" y2="101.881" gradientUnits="userSpaceOnUse">
<stop stop-color="#E07504"/>
<stop offset="0.49" stop-color="#FBDF15"/>
<stop offset="1" stop-color="white"/>
</linearGradient>
<linearGradient id="paint2_linear" x1="59.3308" y1="97.9389" x2="61.0218" y2="101.99" gradientUnits="userSpaceOnUse">
<stop stop-color="#E07504"/>
<stop offset="0.49" stop-color="#FBDF15"/>
<stop offset="1" stop-color="white"/>
</linearGradient>
<linearGradient id="paint3_linear" x1="66.4279" y1="98.8508" x2="67.8901" y2="100.892" gradientUnits="userSpaceOnUse">
<stop stop-color="#E07504"/>
<stop offset="0.49" stop-color="#FBDF15"/>
<stop offset="1" stop-color="white"/>
</linearGradient>
<linearGradient id="paint4_linear" x1="55.5438" y1="103.249" x2="64.4652" y2="119.906" gradientUnits="userSpaceOnUse">
<stop stop-color="#E07504"/>
<stop offset="0.49" stop-color="#FBDF15"/>
<stop offset="1" stop-color="white"/>
</linearGradient>
<linearGradient id="paint5_linear" x1="57.5831" y1="33.1704" x2="68.2844" y2="41.0737" gradientUnits="userSpaceOnUse">
<stop stop-color="#E07504"/>
<stop offset="0.49" stop-color="#FBDF15"/>
<stop offset="1" stop-color="white"/>
</linearGradient>
<linearGradient id="paint6_linear" x1="67.1909" y1="33.1704" x2="77.8744" y2="41.0165" gradientUnits="userSpaceOnUse">
<stop stop-color="#E07504"/>
<stop offset="0.49" stop-color="#FBDF15"/>
<stop offset="1" stop-color="white"/>
</linearGradient>
<linearGradient id="paint7_linear" x1="66.5" y1="34.278" x2="70.4854" y2="35.2433" gradientUnits="userSpaceOnUse">
<stop stop-color="#E07504"/>
<stop offset="0.49" stop-color="#FBDF15"/>
<stop offset="1" stop-color="white"/>
</linearGradient>
<linearGradient id="paint8_linear" x1="62.4357" y1="23.5543" x2="70.7288" y2="31.8233" gradientUnits="userSpaceOnUse">
<stop stop-color="#E07504"/>
<stop offset="0.49" stop-color="#FBDF15"/>
<stop offset="1" stop-color="white"/>
</linearGradient>
</defs>
</svg>
