<svg width="392" height="58" viewBox="0 0 392 58" fill="none" xmlns="http://www.w3.org/2000/svg">
<path d="M213.366 2.00391V56.0954H205.73V7.11906H194.803V2.0209L213.366 2.00391ZM272.09 8.80145V49.0939C272.09 53.6256 269.828 55.8915 265.303 55.8915H235.898C231.317 55.8915 229.055 53.6256 229.111 49.0939V8.86943C229.111 4.33773 231.374 2.07188 235.898 2.07188H265.303C269.828 2.07188 272.09 4.33773 272.09 8.86943V8.80145ZM264.556 48.1253V9.8041C264.556 8.64852 264.37 7.93477 264.03 7.64587C263.387 7.22973 262.621 7.04405 261.859 7.11906H239.309C238.545 7.0235 237.773 7.21085 237.137 7.64587C236.707 8.27753 236.525 9.04641 236.628 9.8041V48.2102C236.532 48.9945 236.712 49.7877 237.137 50.4534C237.493 50.8443 238.206 50.8953 239.309 50.8953H261.859C262.611 50.9749 263.369 50.8206 264.03 50.4534C264.474 49.7953 264.661 48.9972 264.556 48.2102V48.1253ZM330.729 8.78447V49.0769C330.729 53.6086 328.467 55.8745 323.942 55.8745H294.589C290.064 55.8745 287.802 53.6086 287.802 49.0769V8.86943C287.802 4.33773 290.064 2.07188 294.589 2.07188H323.942C328.49 2.01524 330.763 4.28109 330.763 8.86943L330.729 8.78447ZM323.298 48.2102V9.8041C323.298 8.64852 323.128 7.93477 322.789 7.64587C322.145 7.22973 321.379 7.04405 320.617 7.11906H297.982C297.224 7.02132 296.456 7.20904 295.827 7.64587C295.382 8.27096 295.194 9.04374 295.301 9.8041V48.2102C295.211 48.9965 295.397 49.7899 295.827 50.4534C296.167 50.8443 296.896 50.8953 297.982 50.8953H320.532C321.284 50.9749 322.042 50.8206 322.704 50.4534C323.14 49.7924 323.321 48.9951 323.213 48.2102H323.298ZM389.471 8.86943V49.1619C389.471 53.6936 387.18 55.9594 382.599 55.9594H353.194C348.67 55.9594 346.407 53.6936 346.407 49.1619V8.86943C346.407 4.33773 348.67 2.07188 353.194 2.07188H382.684C387.208 2.07188 389.471 4.33773 389.471 8.86943ZM381.92 48.2102V9.8041C381.92 8.64852 381.751 7.93477 381.394 7.64587C380.769 7.2445 380.03 7.05945 379.29 7.11906H356.656C355.892 7.0235 355.119 7.21085 354.484 7.64587C354.046 8.27453 353.859 9.04418 353.958 9.8041V48.2102C353.867 48.9965 354.053 49.7899 354.484 50.4534C354.84 50.8443 355.553 50.8953 356.656 50.8953H379.29C380.037 50.9781 380.791 50.8235 381.445 50.4534C381.801 50.1645 381.971 49.3658 381.971 48.2102H381.92Z" fill="white"/>
<path d="M213.365 2.00464H215.062V0.305252H213.365V2.00464ZM213.365 56.0112V57.7105H215.062V56.0112H213.365ZM205.73 56.0112H204.033V57.7105H205.73V56.0112ZM205.73 7.1198H207.427V5.42041H205.73V7.1198ZM194.803 7.1198H193.106V8.81918H194.803V7.1198ZM194.803 2.02164V0.322249H193.106V2.02164H194.803ZM211.584 2.02164V56.0961H215.13V2.00464L211.584 2.02164ZM213.281 54.2608H205.645V57.7955H213.281V54.2608ZM207.41 55.9602V7.1198H203.864V56.0961L207.41 55.9602ZM205.713 5.28446H194.786V8.83618H205.713V5.28446ZM196.551 6.98384V1.88568H193.021V6.98384H196.551ZM194.854 3.58507H213.416V0.22029H194.854V3.58507ZM270.342 8.68323V48.9757H273.888V8.87016L270.342 8.68323ZM270.342 48.9757C270.413 49.6709 270.344 50.3732 270.14 51.0414C269.936 51.7096 269.601 52.3304 269.154 52.8673C268.617 53.3129 267.997 53.6475 267.331 53.8516C266.664 54.0558 265.963 54.1256 265.269 54.0569V57.7955C266.431 57.872 267.596 57.7127 268.696 57.3272C269.795 56.9418 270.805 56.3381 271.666 55.5523C272.44 54.6878 273.036 53.6777 273.417 52.5808C273.799 51.4839 273.959 50.322 273.888 49.1626L270.342 48.9757ZM265.252 54.0738H235.847V57.7955H265.252V54.0738ZM235.847 54.0738C235.153 54.1445 234.452 54.0756 233.785 53.8714C233.118 53.6671 232.498 53.3315 231.962 52.8843C231.513 52.3482 231.175 51.728 230.969 51.0598C230.762 50.3917 230.69 49.689 230.757 48.9927H227.228C227.154 50.1524 227.312 51.3154 227.694 52.4128C228.075 53.5102 228.673 54.52 229.451 55.3824C230.317 56.1601 231.328 56.7587 232.425 57.1437C233.523 57.5287 234.686 57.6924 235.847 57.6256V54.0738ZM230.757 48.9757V8.87016H227.228V49.1626L230.757 48.9757ZM230.757 8.66623C230.69 7.96995 230.762 7.26723 230.969 6.59907C231.175 5.93092 231.513 5.31072 231.962 4.77465C232.498 4.32741 233.118 3.99183 233.785 3.78756C234.452 3.58329 235.153 3.51445 235.847 3.58507V0.254272C234.685 0.177828 233.52 0.337104 232.421 0.722553C231.321 1.108 230.311 1.71169 229.451 2.49746C228.675 3.36146 228.079 4.37142 227.698 5.46846C227.316 6.56549 227.156 7.72766 227.228 8.88716L230.757 8.66623ZM235.847 3.56807H265.252V0.254272H235.847V3.56807ZM265.252 3.56807C265.946 3.49936 266.647 3.56912 267.314 3.7733C267.98 3.97748 268.6 4.31205 269.137 4.75765C270.033 5.84589 270.46 7.24565 270.325 8.64925H273.871C273.949 7.48781 273.791 6.32261 273.406 5.22427C273.021 4.12593 272.417 3.11732 271.632 2.25955C270.771 1.47833 269.764 0.877417 268.668 0.492172C267.572 0.106928 266.411 -0.0548559 265.252 0.0163592V3.56807ZM266.321 47.9901V9.80483H262.775V48.211L266.321 47.9901ZM266.321 9.6009C266.336 8.98369 266.273 8.36701 266.134 7.76556C266.002 7.11008 265.663 6.51447 265.167 6.06617L262.893 8.7852C262.808 8.71629 262.738 8.62924 262.69 8.53029C262.724 8.86362 262.724 9.19959 262.69 9.53292L266.321 9.6009ZM265.286 6.20213C264.808 5.76578 264.222 5.46639 263.589 5.33543C263.031 5.21716 262.462 5.16018 261.892 5.1655V8.70023C262.209 8.67429 262.526 8.67429 262.843 8.70023C262.961 8.70023 263.046 8.70023 262.843 8.70023L265.286 6.20213ZM261.892 5.1655H239.275V8.70023H261.824L261.892 5.1655ZM239.343 5.1655C238.773 5.16085 238.204 5.21782 237.646 5.33543C237.012 5.46313 236.425 5.76295 235.949 6.20213L238.443 8.70023C238.223 8.83618 238.308 8.85317 238.443 8.70023C238.76 8.67579 239.077 8.67579 239.394 8.70023L239.343 5.1655ZM236.051 6.10017C235.544 6.54203 235.198 7.13967 235.067 7.79955C234.944 8.40365 234.882 9.01844 234.88 9.63489H238.426C238.392 9.30156 238.392 8.96558 238.426 8.63225C238.372 8.73198 238.297 8.81889 238.206 8.88716L236.051 6.10017ZM234.88 9.63489V48.024H238.426V9.80483L234.88 9.63489ZM234.88 48.024C234.874 48.6352 234.937 49.2452 235.067 49.8424C235.187 50.48 235.488 51.0697 235.932 51.5418L238.426 49.0437C238.562 49.2986 238.596 49.1966 238.426 49.0437C238.392 48.699 238.392 48.3517 238.426 48.007L234.88 48.024ZM236.051 51.6437C236.512 52.0013 237.054 52.2405 237.629 52.3405C238.188 52.4426 238.757 52.4882 239.326 52.4764V48.9417C238.987 48.9758 238.646 48.9758 238.308 48.9417C238.138 48.9417 238.07 48.9417 238.308 48.9417L236.051 51.6437ZM239.343 52.4764H261.892V48.9417H239.275L239.343 52.4764ZM261.892 52.4764C262.461 52.4899 263.03 52.4443 263.589 52.3405C264.168 52.2373 264.715 51.9986 265.184 51.6437L262.91 48.9077C263.131 48.9077 263.063 48.7887 262.91 48.9077C262.572 48.9418 262.231 48.9418 261.892 48.9077V52.4764ZM265.286 51.5248C265.73 51.0527 266.031 50.463 266.151 49.8254C266.267 49.2263 266.324 48.6173 266.321 48.007H262.775C262.817 48.3456 262.817 48.6881 262.775 49.0267C262.775 49.1626 262.775 49.2646 262.775 49.0267L265.286 51.5248ZM328.982 8.88716V49.1796H332.511V8.87016L328.982 8.88716ZM328.982 49.1796C329.049 49.8759 328.977 50.5786 328.77 51.2468C328.563 51.9149 328.226 52.5351 327.777 53.0712C327.242 53.5201 326.622 53.8567 325.955 54.0611C325.287 54.2654 324.586 54.3333 323.891 54.2608V57.7955C325.053 57.872 326.219 57.7127 327.318 57.3272C328.417 56.9418 329.427 56.3381 330.288 55.5523C331.063 54.6878 331.658 53.6777 332.04 52.5808C332.421 51.4839 332.581 50.322 332.511 49.1626L328.982 49.1796ZM323.891 54.2778H294.538V57.7955H323.891V54.2778ZM294.538 54.2778C293.844 54.3465 293.143 54.2767 292.476 54.0725C291.809 53.8684 291.189 53.5338 290.652 53.0882C290.203 52.5521 289.866 51.9319 289.659 51.2638C289.452 50.5956 289.38 49.8929 289.447 49.1966H285.969C285.891 50.3567 286.047 51.5207 286.429 52.6186C286.811 53.7166 287.411 54.7261 288.192 55.5863C289.934 57.132 292.214 57.9261 294.538 57.7955V54.2778ZM289.447 49.1796V8.87016H285.969V49.1626L289.447 49.1796ZM289.447 8.87016C289.38 8.17388 289.452 7.47116 289.659 6.803C289.866 6.13485 290.203 5.51463 290.652 4.97857C291.187 4.52968 291.807 4.19307 292.474 3.98872C293.142 3.78437 293.844 3.71645 294.538 3.789V0.254272C293.376 0.177828 292.21 0.337104 291.111 0.722553C290.012 1.108 289.002 1.71169 288.141 2.49746C287.375 3.3655 286.788 4.37731 286.415 5.47418C286.042 6.57104 285.891 7.73114 285.969 8.88716L289.447 8.87016ZM294.538 3.772H323.891V0.254272H294.538V3.772ZM323.925 3.772C324.622 3.70194 325.326 3.771 325.996 3.97519C326.665 4.17939 327.288 4.51466 327.828 4.96158C328.723 6.04982 329.15 7.44957 329.016 8.85316H332.545C332.626 7.69283 332.471 6.52808 332.089 5.42965C331.707 4.33123 331.106 3.32208 330.322 2.46348C329.459 1.68176 328.448 1.08065 327.35 0.695442C326.251 0.310235 325.087 0.148696 323.925 0.22029V3.772ZM325.011 48.194V9.80483H321.465V48.211L325.011 48.194ZM325.011 9.80483C325.027 9.18762 324.964 8.57094 324.825 7.96949C324.692 7.31401 324.353 6.7184 323.857 6.2701L321.601 9.02311C321.515 8.9542 321.445 8.86715 321.397 8.7682C321.431 9.10153 321.431 9.4375 321.397 9.77083L325.011 9.80483ZM323.959 6.40606C323.488 5.96086 322.899 5.66011 322.263 5.53937C321.705 5.42109 321.136 5.36411 320.566 5.36943V8.90416C320.882 8.87822 321.2 8.87822 321.516 8.90416C321.635 8.90416 321.72 8.90416 321.516 8.90416L323.959 6.40606ZM320.566 5.36943H297.999V8.90416H320.549L320.566 5.36943ZM298.016 5.36943C297.446 5.36478 296.877 5.42176 296.319 5.53937C295.685 5.66706 295.098 5.96688 294.623 6.40606L297.117 8.90416C296.879 9.04011 296.964 9.0571 297.117 8.90416C297.433 8.87822 297.751 8.87822 298.067 8.90416L298.016 5.36943ZM294.724 6.30408C294.218 6.74594 293.872 7.34359 293.74 8.00347C293.615 8.60693 293.558 9.22259 293.571 9.83881H296.964C296.921 9.50596 296.921 9.16903 296.964 8.83618C296.909 8.93591 296.834 9.02281 296.743 9.09108L294.724 6.30408ZM293.571 9.83881V48.228H296.964V9.80483L293.571 9.83881ZM293.571 48.228C293.55 48.8388 293.607 49.4498 293.74 50.0463C293.846 50.6783 294.129 51.2675 294.555 51.7457L297.049 49.2476C297.185 49.5025 297.219 49.4005 297.049 49.2476C297.007 48.9033 297.007 48.5552 297.049 48.211L293.571 48.228ZM294.724 51.8477C295.19 52.2083 295.738 52.4477 296.319 52.5444C296.879 52.6487 297.447 52.6943 298.016 52.6804V49.1456C297.678 49.1797 297.336 49.1797 296.998 49.1456C296.828 49.1456 296.76 49.1456 296.998 49.1456L294.724 51.8477ZM298.016 52.6804H320.566V49.1456H297.999L298.016 52.6804ZM320.566 52.6804C321.135 52.6938 321.703 52.6482 322.263 52.5444C322.842 52.4412 323.388 52.2025 323.857 51.8477L321.601 49.1116C321.821 49.1116 321.753 48.9927 321.601 49.1116C321.262 49.1457 320.921 49.1457 320.583 49.1116L320.566 52.6804ZM323.959 51.7287C324.415 51.2622 324.722 50.6707 324.842 50.0293C324.958 49.4303 325.015 48.8212 325.011 48.211H321.465C321.479 48.5531 321.451 48.8956 321.38 49.2306C321.38 49.4685 321.38 49.3666 321.465 49.2306L323.959 51.7287ZM387.655 8.87016V49.1626H391.167V8.87016H387.655ZM387.655 49.1626C387.786 50.5658 387.359 51.9642 386.467 53.0542C385.93 53.4998 385.31 53.8344 384.643 54.0386C383.977 54.2427 383.276 54.3125 382.582 54.2438V57.7955C383.741 57.8706 384.904 57.7107 386 57.3252C387.096 56.9398 388.103 56.3368 388.962 55.5523C389.735 54.6875 390.328 53.677 390.707 52.5799C391.085 51.4828 391.242 50.321 391.167 49.1626H387.655ZM382.565 54.2608H353.194V57.7955H382.684L382.565 54.2608ZM353.16 54.2608C352.466 54.3295 351.765 54.2597 351.099 54.0556C350.432 53.8514 349.812 53.5168 349.275 53.0712C348.83 52.5333 348.496 51.9125 348.292 51.2445C348.088 50.5765 348.018 49.8747 348.087 49.1796H344.541C344.466 50.3408 344.625 51.5052 345.01 52.6031C345.395 53.701 345.997 54.7099 346.78 55.5693C347.65 56.3506 348.667 56.95 349.772 57.3323C350.876 57.7146 352.045 57.8721 353.211 57.7955L353.16 54.2608ZM348.07 49.1626V8.87016H344.524V49.1626H348.07ZM348.07 8.85316C348.001 8.15807 348.071 7.45626 348.275 6.78829C348.479 6.12032 348.813 5.49946 349.258 4.96158C349.795 4.51598 350.415 4.18141 351.082 3.97723C351.749 3.77305 352.449 3.70329 353.143 3.772V0.254272C351.984 0.177203 350.821 0.336237 349.724 0.721775C348.628 1.10731 347.62 1.71136 346.764 2.49746C345.982 3.35797 345.381 4.367 344.996 5.46463C344.611 6.56227 344.451 7.72615 344.524 8.88716L348.07 8.85316ZM353.16 3.755H382.684V0.254272H353.194L353.16 3.755ZM382.565 3.755C383.259 3.68629 383.96 3.75605 384.626 3.96023C385.293 4.16441 385.913 4.49898 386.45 4.94458C386.897 5.48147 387.232 6.10222 387.436 6.77046C387.64 7.4387 387.709 8.14099 387.638 8.83618H391.167C391.245 7.67474 391.087 6.50954 390.702 5.4112C390.317 4.31286 389.713 3.30425 388.928 2.44648C387.216 0.921053 384.972 0.13334 382.684 0.254272L382.565 3.755ZM383.634 48.177V9.80483H380.054V48.211L383.634 48.177ZM383.634 9.78783C383.646 9.17161 383.589 8.55595 383.464 7.95249C383.326 7.29529 382.981 6.69974 382.48 6.25311L380.206 8.97212C380.121 8.90321 380.051 8.81617 380.003 8.71722C380.057 9.04873 380.085 9.38394 380.088 9.71986L383.634 9.78783ZM382.599 6.38906C382.124 5.94915 381.536 5.64922 380.902 5.52237C380.344 5.40287 379.775 5.34587 379.205 5.35243V8.88716C379.522 8.86272 379.839 8.86272 380.155 8.88716C380.257 8.88716 380.342 8.88716 380.155 8.88716L382.599 6.38906ZM379.205 5.35243H356.689V8.88716H379.29L379.205 5.35243ZM356.656 5.35243C356.057 5.33987 355.459 5.39689 354.874 5.52237C354.241 5.65332 353.655 5.95272 353.177 6.38906L355.671 8.88716C355.451 9.02311 355.536 9.0401 355.671 8.88716C355.988 8.86196 356.305 8.86196 356.622 8.88716L356.656 5.35243ZM353.262 6.2871C352.761 6.73065 352.42 7.32838 352.295 7.98649C352.156 8.58794 352.093 9.2046 352.108 9.82181H355.637C355.603 9.48848 355.603 9.15251 355.637 8.81918C355.589 8.91813 355.52 9.00518 355.434 9.07409L353.262 6.2871ZM352.108 9.82181V48.211H355.637V9.80483L352.108 9.82181ZM352.108 48.211C352.097 48.8215 352.153 49.4315 352.278 50.0293C352.401 50.6624 352.695 51.2499 353.126 51.7287L355.637 49.2306C355.756 49.4855 355.79 49.3835 355.637 49.2306C355.604 48.8859 355.604 48.5387 355.637 48.194L352.108 48.211ZM353.262 51.8307C353.73 52.1884 354.277 52.4274 354.857 52.5274C355.416 52.6312 355.985 52.6768 356.554 52.6634V49.1286C356.215 49.1637 355.874 49.1637 355.536 49.1286C355.366 49.1286 355.298 49.1286 355.536 49.1286L353.262 51.8307ZM356.656 52.6634H379.29V49.1286H356.689L356.656 52.6634ZM379.29 52.6973C379.859 52.7113 380.428 52.6657 380.987 52.5614C381.567 52.4614 382.114 52.2224 382.582 51.8647L380.308 49.1286C380.529 49.1286 380.478 49.0097 380.308 49.1286C379.97 49.1627 379.629 49.1627 379.29 49.1286V52.6973ZM382.684 51.7457C383.134 51.2776 383.435 50.6861 383.549 50.0463C383.673 49.4485 383.73 48.8385 383.719 48.228H380.138C380.153 48.5701 380.124 48.9126 380.054 49.2476C380.054 49.4855 380.054 49.3835 380.138 49.2476L382.684 51.7457Z" fill="url(#paint0_linear)"/>
<path d="M64.7568 2.50409V6.60207H45.4049H44.9049V7.10207V55.5954H38.3544V7.11906V6.61906H37.8544H18.5025V2.52072L64.7568 2.50409ZM108.373 7.26515L108.348 7.24382L108.32 7.22596C107.589 6.75307 106.72 6.53951 105.853 6.61906H84.2244C83.3283 6.50808 82.4218 6.72544 81.6728 7.23159L81.638 7.25509L81.6076 7.28407C81.3216 7.55691 81.1819 7.92569 81.107 8.32745C81.0323 8.72832 81.0116 9.222 81.0116 9.8041V48.1848C80.9258 49.051 81.1001 49.9234 81.5124 50.6902L81.5258 50.7153L81.5421 50.7387C81.803 51.1143 82.261 51.2498 82.6621 51.3145C83.0883 51.3833 83.6176 51.3953 84.1925 51.3953H105.845C106.698 51.5013 107.562 51.3216 108.303 50.8839L108.408 50.8221L108.472 50.7192C108.946 49.964 109.158 49.0736 109.075 48.1861V48.1423V9.8041C109.075 9.20379 109.027 8.6923 108.924 8.27956C108.824 7.87631 108.658 7.50758 108.373 7.26515ZM168.692 7.26515L168.667 7.24382L168.639 7.22596C167.908 6.75307 167.039 6.53951 166.172 6.61906H140.049H139.549V7.11906V33.2556V33.7556H140.049H166.2C167.07 33.8558 167.947 33.6461 168.678 33.1629L168.764 33.1061L168.82 33.02C169.294 32.2976 169.497 31.4309 169.394 30.5735V9.8041C169.394 9.20379 169.346 8.6923 169.243 8.27956C169.143 7.87631 168.977 7.50757 168.692 7.26515ZM132.965 2.5379H169.505C171.69 2.5379 173.237 3.08465 174.241 4.09057C175.246 5.09662 175.792 6.64648 175.792 8.83545V31.5053C175.792 33.7241 175.245 35.2961 174.239 36.3161C173.234 37.3348 171.688 37.8878 169.505 37.8878H140.049H139.549V38.3878V55.5954H132.998L132.965 2.5379ZM0.5 2.50391H7.13535V55.5954H0.5V2.50391ZM115.523 8.86943V49.0939C115.523 51.2813 114.971 52.8303 113.954 53.8366C112.936 54.8439 111.366 55.3915 109.152 55.3915H80.799C78.5841 55.3915 77.015 54.8439 75.9967 53.8366C74.9795 52.8303 74.4272 51.2813 74.4272 49.0939V8.86943C74.4272 6.68204 74.9795 5.13303 75.9967 4.12674C77.015 3.11946 78.5841 2.57188 80.799 2.57188H109.152C111.366 2.57188 112.936 3.11946 113.954 4.12674C114.971 5.13303 115.523 6.68204 115.523 8.86943Z" fill="#F31D42" stroke="#F31D42"/>
<defs>
<linearGradient id="paint0_linear" x1="249.998" y1="-48.3482" x2="347.768" y2="115.781" gradientUnits="userSpaceOnUse">
<stop stop-color="#E07504"/>
<stop offset="0.49" stop-color="#FBDF15"/>
<stop offset="1" stop-color="#F18F28"/>
</linearGradient>
</defs>
</svg>
