<svg width="134" height="133" viewBox="0 0 134 133" fill="none" xmlns="http://www.w3.org/2000/svg">
<path d="M62.7631 29.2031V33.5886L65.6475 41.5266H56.5869V34.8294C56.602 34.017 56.8521 33.2264 57.3069 32.5536C57.7617 31.8807 58.4016 31.3546 59.149 31.0389L62.7631 29.2031Z" fill="url(#paint0_linear)"/>
<path d="M69.0241 29.2031V33.5886L66.1396 41.5266H75.2512V34.8294C75.2325 34.0156 74.979 33.2246 74.5214 32.5519C74.0637 31.8793 73.4214 31.3538 72.6721 31.0389L69.0241 29.2031Z" fill="url(#paint1_linear)"/>
<path d="M64.8838 31.0391H67.2083L66.3769 32.4329L67.2083 33.9967L66.0546 40.6258L64.8838 33.9967L65.6473 32.5009L64.8838 31.0391Z" fill="url(#paint2_linear)"/>
<path d="M61.3887 23.6933C61.3887 23.6933 61.711 29.0136 65.8341 29.5575C65.8341 29.5575 69.6688 29.5575 70.5002 23.6933C70.5002 23.6933 69.3634 23.8463 69.4652 21.3476C69.4652 20.7696 69.2955 20.6847 68.6338 20.4297C68.6338 20.4297 65.376 22.6054 63.1024 20.4297C62.8626 20.4694 62.637 20.57 62.4469 20.7217C62.2568 20.8734 62.1087 21.0713 62.0165 21.2966C62.0165 21.2966 62.5594 23.0983 61.3887 23.6933Z" fill="url(#paint3_linear)"/>
<path d="M69.6348 88.0803C69.6348 88.0803 69.9402 93.0267 73.7748 93.5366C73.7748 93.5366 77.338 93.5366 78.1015 88.0803C78.1015 88.0803 77.0495 88.2333 77.1344 85.9046C77.1344 85.3606 76.9817 85.2927 76.3708 85.0547C76.3708 85.0547 73.3506 87.0774 71.2806 85.0547C71.0581 85.0938 70.8493 85.1893 70.6741 85.3321C70.4988 85.4749 70.363 85.6603 70.2795 85.8706C70.2795 85.8706 70.8225 87.5194 69.6348 88.0803Z" fill="url(#paint4_linear)"/>
<path d="M81.5288 96.5831C81.5288 96.5831 80.1714 93.7444 77.6772 93.9654C77.0004 94.9155 76.2271 95.7928 75.3696 96.5831H81.5288Z" fill="url(#paint5_linear)"/>
<path d="M72.0778 96.6645H65.7319C66.0582 95.9059 66.5941 95.2564 67.2765 94.7927C67.9588 94.3289 68.7593 94.0702 69.5835 94.0469" fill="url(#paint6_linear)"/>
<path d="M73.5542 96.8873C73.5542 96.8873 73.147 95.3745 72.5361 95.1875H74.9116C74.4905 95.6736 74.1987 96.2582 74.0632 96.8873H73.5542Z" fill="url(#paint7_linear)"/>
<path d="M64.137 96.8867H84.7185C84.7185 96.8867 85.7536 96.8867 85.2445 98.5865L82.5806 108.785H66.1392L63.4753 98.3485C63.4753 98.3485 62.8814 96.8867 64.137 96.8867Z" fill="url(#paint8_linear)"/>
<path d="M80.6804 130.884C71.7939 132.797 62.6095 132.855 53.6998 131.054C44.79 129.254 36.3459 125.635 28.894 120.421C21.4421 115.208 15.1422 108.513 10.3871 100.753C5.63198 92.9927 2.52359 84.3346 1.25575 75.3182C0.0125416 66.3212 0.599809 57.1652 2.98218 48.4015C5.36455 39.6379 9.49273 31.4479 15.1182 24.3247C20.477 17.5793 27.1534 12.0003 34.7388 7.92897C42.3242 3.85766 50.6591 1.37972 59.2335 0.646768C69.7194 -0.0841387 80.6804 2.19357 88.9774 8.65274C97.2745 15.1119 102.382 26.0925 100.244 36.3932C98.1738 46.2349 90.1821 53.833 81.5796 58.9153C72.9771 63.9977 63.2378 67.1593 54.4317 72.1906C45.6256 77.222 37.6509 84.684 35.4282 94.5088C34.2757 99.6366 34.7991 105 36.9213 109.807C41.3668 119.836 50.8855 124.034 55.5855 126.057C67.9039 131.292 80.6464 130.187 80.6125 130.918C80.6125 130.918 80.5107 131.105 77.9147 131.445C75.1803 131.881 72.4196 132.131 69.6515 132.193C65.869 132.192 62.1014 131.718 58.436 130.782C51.0563 128.894 44.3323 125.02 38.9914 119.581C32.6286 113.053 29.9647 101.393 31.7293 92.52C33.408 85.7837 37.2835 79.8016 42.7412 75.5222C48.587 70.8 55.0419 66.8892 61.9313 63.8957C70.0079 60.1732 78.4237 56.9266 85.4652 51.3683C87.2997 49.9803 89.0036 48.4271 90.5554 46.7279C97.529 38.9089 97.8175 28.2852 92.2522 19.6333C86.2627 10.4885 75.9125 5.50815 65.0703 5.1002C55.907 4.77583 46.8263 6.93701 38.7878 11.3554C33.8933 13.9902 29.3354 17.2092 25.2138 20.9422C20.9226 24.8804 17.1738 29.3732 14.0662 34.3025C11.5648 38.2311 9.57481 42.4639 8.14453 46.8979C5.21626 55.7555 4.2384 65.1435 5.27822 74.416C6.31804 83.6884 9.35086 92.625 14.168 100.611C23.0759 115.093 38.2448 125.003 54.5675 129.184C63.0856 131.403 71.9472 131.98 80.6804 130.884Z" fill="white"/>
<path d="M53.5326 1.39221C62.4104 -0.518017 71.5856 -0.577423 80.4873 1.21769C89.389 3.0128 97.8266 6.624 105.275 11.8266C112.724 17.0292 119.024 23.7118 123.783 31.4586C128.543 39.2054 131.66 47.8505 132.94 56.8561C134.193 65.8533 133.611 75.0116 131.228 83.7767C128.845 92.5418 124.712 100.731 119.078 107.85C115.956 111.742 99.9386 131.647 74.9625 131.528C70.1268 131.528 50.2409 130.695 39.9756 115.754C38.6182 113.782 33.1886 105.895 34.5969 96.1041C36.4803 82.9648 49.3586 75.2308 52.6842 73.276C56.8073 70.8623 59.2337 70.0804 73.0452 63.5193C75.3722 62.4699 77.6382 61.2895 79.8321 59.9837C83.9213 57.519 97.6989 49.1731 99.3617 36.9347C99.9689 32.4641 99.5865 27.9144 98.2418 23.6084C96.6376 19.0397 93.9129 14.9482 90.318 11.7099C87.6229 9.20385 84.5546 7.13363 81.2235 5.57367C74.7973 2.50737 67.7596 0.943877 60.642 1.00126C57.0279 1.00126 53.5156 1.51119 53.5156 1.39221C55.3069 1.01139 57.1203 0.744558 58.9452 0.59331C60.642 0.406334 62.7799 0.134368 64.5784 0.11737C68.3449 0.105829 72.0973 0.579998 75.743 1.52819C83.1082 3.45201 89.8232 7.32036 95.1877 12.7298C101.55 19.2569 104.214 30.9344 102.433 39.7903C101.058 46.6744 96.6469 52.4027 91.4209 56.8731C85.5714 61.6479 79.0906 65.5891 72.1629 68.5846C64.0864 72.2901 55.6535 75.5367 48.629 81.095C46.9181 82.4494 45.3181 83.9386 43.8442 85.5485C36.8706 93.3845 36.5991 104.008 42.1474 112.643C45.1764 117.074 49.2232 120.711 53.9474 123.249C58.6717 125.787 63.9352 127.151 69.2954 127.227C78.4796 127.548 87.5775 125.356 95.6119 120.887C100.519 118.272 105.079 115.052 109.186 111.3C113.476 107.351 117.214 102.84 120.3 97.8889C122.78 93.9584 124.747 89.7254 126.153 85.2935C129.081 76.4395 130.061 67.0553 129.024 57.786C127.987 48.5167 124.959 39.5824 120.147 31.5973C111.239 17.1152 96.07 7.20547 79.7473 3.12599C71.1939 0.912879 62.3022 0.324807 53.5326 1.39221Z" fill="#E51B30"/>
<path d="M73.8257 116.555C84.7052 116.555 93.5249 107.719 93.5249 96.8204C93.5249 85.9214 84.7052 77.0859 73.8257 77.0859C62.9461 77.0859 54.1265 85.9214 54.1265 96.8204C54.1265 107.719 62.9461 116.555 73.8257 116.555Z" stroke="white" stroke-width="2"/>
<path d="M66.0713 51.4025C76.9508 51.4025 85.7705 42.5671 85.7705 31.6681C85.7705 20.769 76.9508 11.9336 66.0713 11.9336C55.1917 11.9336 46.3721 20.769 46.3721 31.6681C46.3721 42.5671 55.1917 51.4025 66.0713 51.4025Z" stroke="#F31D42" stroke-width="2"/>
<defs>
<linearGradient id="paint0_linear" x1="61.1367" y1="34.0326" x2="64.9781" y2="44.4851" gradientUnits="userSpaceOnUse">
<stop stop-color="#E07504"/>
<stop offset="0.0001" stop-color="#E07504"/>
<stop offset="0.503428" stop-color="#FBDF15"/>
<stop offset="0.941529" stop-color="white"/>
</linearGradient>
<linearGradient id="paint1_linear" x1="70.715" y1="34.0326" x2="74.54" y2="44.499" gradientUnits="userSpaceOnUse">
<stop stop-color="#E07504"/>
<stop offset="0.0001" stop-color="#E07504"/>
<stop offset="0.503428" stop-color="#FBDF15"/>
<stop offset="0.941529" stop-color="white"/>
</linearGradient>
<linearGradient id="paint2_linear" x1="66.0511" y1="34.796" x2="70.6389" y2="38.913" gradientUnits="userSpaceOnUse">
<stop stop-color="#E07504"/>
<stop offset="0.0001" stop-color="#E07504"/>
<stop offset="0.503428" stop-color="#FBDF15"/>
<stop offset="0.941529" stop-color="white"/>
</linearGradient>
<linearGradient id="paint3_linear" x1="65.964" y1="24.0068" x2="68.1804" y2="32.1946" gradientUnits="userSpaceOnUse">
<stop stop-color="#E07504"/>
<stop offset="0.0001" stop-color="#E07504"/>
<stop offset="0.503428" stop-color="#FBDF15"/>
<stop offset="0.941529" stop-color="white"/>
</linearGradient>
<linearGradient id="paint4_linear" x1="73.8863" y1="88.3787" x2="75.9459" y2="95.9871" gradientUnits="userSpaceOnUse">
<stop stop-color="#E07504"/>
<stop offset="0.0001" stop-color="#E07504"/>
<stop offset="0.503428" stop-color="#FBDF15"/>
<stop offset="0.941529" stop-color="white"/>
</linearGradient>
<linearGradient id="paint5_linear" x1="78.4624" y1="94.9838" x2="78.7507" y2="97.4825" gradientUnits="userSpaceOnUse">
<stop stop-color="#E07504"/>
<stop offset="0.0001" stop-color="#E07504"/>
<stop offset="0.503428" stop-color="#FBDF15"/>
<stop offset="0.941529" stop-color="white"/>
</linearGradient>
<linearGradient id="paint6_linear" x1="68.9185" y1="95.0727" x2="69.1959" y2="97.5619" gradientUnits="userSpaceOnUse">
<stop stop-color="#E07504"/>
<stop offset="0.0001" stop-color="#E07504"/>
<stop offset="0.503428" stop-color="#FBDF15"/>
<stop offset="0.941529" stop-color="white"/>
</linearGradient>
<linearGradient id="paint7_linear" x1="73.729" y1="95.8536" x2="74.034" y2="97.4311" gradientUnits="userSpaceOnUse">
<stop stop-color="#E07504"/>
<stop offset="0.0001" stop-color="#E07504"/>
<stop offset="0.503428" stop-color="#FBDF15"/>
<stop offset="0.941529" stop-color="white"/>
</linearGradient>
<linearGradient id="paint8_linear" x1="74.4075" y1="101.55" x2="76.0429" y2="112.766" gradientUnits="userSpaceOnUse">
<stop stop-color="#E07504"/>
<stop offset="0.0001" stop-color="#E07504"/>
<stop offset="0.503428" stop-color="#FBDF15"/>
<stop offset="0.941529" stop-color="white"/>
</linearGradient>
</defs>
</svg>
