<svg width="393" height="58" viewBox="0 0 393 58" fill="none" xmlns="http://www.w3.org/2000/svg">
<path d="M215.13 2.17969V56.2838H207.494V7.27904H196.567V2.17969H215.13ZM273.854 8.97882V49.2637C273.854 53.7964 271.592 56.0628 267.067 56.0628H237.663C233.138 56.0628 230.876 53.7964 230.876 49.2637V8.97882C230.876 4.4574 233.132 2.17969 237.663 2.17969H267.067C271.597 2.17969 273.854 4.4574 273.854 8.97882ZM266.388 48.2948V9.98168C266.388 8.82583 266.202 8.11193 265.862 7.82296C265.216 7.41398 264.453 7.22887 263.691 7.29604H241.073C240.31 7.21115 239.541 7.39765 238.901 7.82296C238.472 8.45543 238.291 9.22389 238.392 9.98168V48.3968C238.296 49.1812 238.476 49.9746 238.901 50.6405C239.257 51.0314 239.97 51.0824 241.073 51.0824H263.623C264.375 51.1678 265.135 51.0131 265.795 50.6405C266.235 49.9809 266.422 49.1838 266.321 48.3968L266.388 48.2948ZM332.561 8.97882V49.2807C332.561 53.8134 330.299 56.0798 325.774 56.0798H296.421C291.896 56.0798 289.634 53.8134 289.634 49.2807V8.97882C289.634 4.4574 291.89 2.17969 296.421 2.17969H325.774C330.299 2.17969 332.561 4.44606 332.561 8.97882ZM325.181 48.4138V9.98168C325.181 8.82583 325.011 8.11193 324.672 7.82296C323.994 7.38178 323.184 7.18956 322.381 7.27904H299.746C298.988 7.1923 298.224 7.37913 297.592 7.80596C297.151 8.43337 296.963 9.20442 297.066 9.96469V48.3798C296.975 49.1662 297.161 49.9598 297.592 50.6235C297.931 51.0144 298.661 51.0654 299.746 51.0654H322.381C323.133 51.1508 323.893 50.9961 324.553 50.6235C324.996 49.9655 325.178 49.1651 325.062 48.3798L325.181 48.4138ZM391.354 9.06381V49.3657C391.354 53.8984 389.091 56.1648 384.567 56.1648H354.958C350.434 56.1648 348.172 53.8984 348.172 49.3657V8.97882C348.172 4.4574 350.428 2.17969 354.958 2.17969H384.499C388.978 2.17969 391.286 4.50839 391.286 8.97882L391.354 9.06381ZM383.803 48.4138V9.98168C383.803 8.82583 383.633 8.11193 383.277 7.82296C382.654 7.41554 381.915 7.22443 381.173 7.27904H358.42C357.657 7.19415 356.888 7.38065 356.248 7.80596C355.778 8.42741 355.565 9.20687 355.654 9.98168V48.3968C355.563 49.1832 355.749 49.9768 356.18 50.6405C356.536 51.0314 357.249 51.0824 358.352 51.0824H381.105C381.852 51.1676 382.607 51.0129 383.26 50.6405C383.617 50.3515 383.786 49.5526 383.786 48.3968L383.803 48.4138Z" fill="white"/>
<path d="M215.13 2.1811H216.827V0.481313H215.13V2.1811ZM215.13 56.2002V57.9H216.827V56.2002H215.13ZM207.495 56.2002H205.798V57.9H207.495V56.2002ZM207.495 7.29745H209.191V5.58066H207.495V7.29745ZM196.568 7.29745H194.871V8.99723H196.568V7.29745ZM196.568 2.1981V0.481313H194.871V2.1811L196.568 2.1981ZM213.349 2.1981V56.2852H216.895V2.1811L213.349 2.1981ZM215.045 54.4494H207.41V57.985H215.045V54.4494ZM209.175 56.1492V7.28045H205.628V56.2682L209.175 56.1492ZM207.478 5.46168H196.551V8.98023H207.478V5.46168ZM198.315 7.16146V2.06211H194.786V7.16146H198.315ZM196.619 3.7619H215.181V0.362329H196.619V3.7619ZM265.812 7.6374L264.573 8.89524L265.812 7.6374ZM238.952 7.6374L240.089 8.99723L238.952 7.6374ZM238.952 50.4719L237.697 51.7128L238.952 50.4719ZM265.812 50.4719L266.949 51.8318L265.812 50.4719ZM272.107 8.86125V49.0951H275.653V8.98023L272.107 8.86125ZM272.107 49.1631C272.175 49.8584 272.106 50.5603 271.902 51.2285C271.698 51.8966 271.364 52.5176 270.919 53.0556C270.384 53.5046 269.764 53.8413 269.097 54.0457C268.429 54.2501 267.728 54.318 267.034 54.2454V57.985C268.196 58.0715 269.365 57.9169 270.465 57.5308C271.566 57.1448 272.575 56.5356 273.43 55.7413C274.202 54.875 274.796 53.8645 275.178 52.7677C275.559 51.6709 275.721 50.5095 275.653 49.3501L272.107 49.1631ZM267.017 54.2625H237.544V57.985H266.949L267.017 54.2625ZM237.612 54.2625C236.917 54.342 236.214 54.2774 235.546 54.0727C234.877 53.868 234.258 53.5276 233.726 53.0726C233.279 52.5354 232.943 51.9149 232.736 51.2469C232.529 50.5789 232.456 49.8764 232.522 49.1801H229.06C228.983 50.3404 229.14 51.5043 229.522 52.6025C229.904 53.7006 230.503 54.7103 231.283 55.5713C232.148 56.3508 233.159 56.9505 234.257 57.3357C235.355 57.7208 236.518 57.8837 237.68 57.815L237.612 54.2625ZM232.522 49.1631V8.98023H229.06V49.2821L232.522 49.1631ZM232.522 8.84424C232.452 8.13978 232.523 7.42854 232.73 6.75165C232.937 6.07476 233.275 5.44565 233.726 4.90075C234.263 4.45504 234.883 4.1204 235.55 3.91617C236.217 3.71194 236.918 3.64218 237.612 3.7109V0.311337C236.45 0.237799 235.285 0.398484 234.187 0.783877C233.088 1.16927 232.078 1.77154 231.215 2.55505C230.451 3.4308 229.867 4.44934 229.497 5.55204C229.127 6.65474 228.979 7.81982 229.06 8.98023L232.522 8.84424ZM237.612 3.74489H267.017V0.481313H237.544L237.612 3.74489ZM267.017 3.74489C267.715 3.60519 268.437 3.64032 269.118 3.84714C269.8 4.05395 270.42 4.42607 270.923 4.9305C271.427 5.43492 271.798 6.05604 272.005 6.73876C272.211 7.42148 272.246 8.1447 272.107 8.84424H275.653C275.731 7.68254 275.573 6.51708 275.188 5.41848C274.803 4.31989 274.199 3.31104 273.413 2.45307C272.55 1.67644 271.542 1.07841 270.447 0.693358C269.352 0.308305 268.192 0.143811 267.034 0.209342L267.017 3.74489ZM268.085 48.1772V9.9831H264.539V48.3982L268.085 48.1772ZM268.085 9.77913C268.1 9.16181 268.037 8.5451 267.899 7.94336C267.759 7.29062 267.421 6.69706 266.932 6.24358L264.692 8.98023C264.606 8.9113 264.537 8.82423 264.488 8.72526C264.522 9.05869 264.522 9.39471 264.488 9.72814L268.085 9.77913ZM267.05 6.37956C266.568 5.94976 265.984 5.65125 265.354 5.51267C264.796 5.39644 264.227 5.33947 263.657 5.34269V8.87825C263.973 8.86125 264.291 8.86125 264.607 8.87825L267.05 6.37956ZM263.657 5.34269H241.039V8.87825H263.589L263.657 5.34269ZM241.107 5.34269C240.538 5.34793 239.97 5.40481 239.411 5.51267C238.78 5.65125 238.196 5.94976 237.714 6.37956L240.208 8.87825C240.072 9.03123 239.987 9.01423 240.208 8.87825C240.524 8.86125 240.842 8.86125 241.158 8.87825L241.107 5.34269ZM237.816 6.27758C237.309 6.71954 236.963 7.31733 236.831 7.97736C236.711 8.58187 236.648 9.19661 236.645 9.81312H240.276C240.242 9.47969 240.242 9.14368 240.276 8.81025C240.221 8.91 240.146 8.99693 240.055 9.06522L237.816 6.27758ZM236.645 9.81312V48.2112H240.276V9.9831L236.645 9.81312ZM236.645 48.2112C236.639 48.8226 236.701 49.4327 236.831 50.03C236.952 50.6677 237.252 51.2576 237.697 51.7298L240.191 49.2311C240.361 49.3841 240.327 49.4861 240.191 49.2311C240.157 48.8863 240.157 48.539 240.191 48.1942L236.645 48.2112ZM237.816 51.8318C238.273 52.1963 238.816 52.4364 239.394 52.5287C239.953 52.6336 240.522 52.6792 241.09 52.6646V49.0951C240.752 49.1292 240.411 49.1292 240.072 49.0951L237.816 51.8318ZM241.107 52.6646H263.657V49.0951H241.039L241.107 52.6646ZM263.657 52.6646C264.226 52.6877 264.796 52.6421 265.354 52.5287C265.933 52.4255 266.479 52.1867 266.949 51.8318L264.692 49.0781C264.845 48.9591 264.913 49.0781 264.692 49.0781C264.354 49.1122 264.012 49.1122 263.674 49.0781L263.657 52.6646ZM267.05 51.7128C267.495 51.2406 267.795 50.6507 267.916 50.013C268.032 49.4138 268.089 48.8046 268.085 48.1942H264.539C264.59 48.5322 264.59 48.8761 264.539 49.2141L267.05 51.7128ZM324.451 7.84138L323.196 9.08221L324.451 7.84138ZM297.592 7.84138L298.712 9.2012L297.592 7.84138ZM297.592 50.6759L296.336 51.9168L297.592 50.6759ZM324.451 50.6759L325.588 52.0357L324.451 50.6759ZM330.746 8.98023V49.2821H334.259V8.98023H330.746ZM330.746 49.2821C330.812 49.9784 330.739 50.6808 330.532 51.3489C330.325 52.0169 329.989 52.6374 329.542 53.1746C329.01 53.6296 328.391 53.97 327.722 54.1747C327.054 54.3794 326.351 54.444 325.656 54.3644V57.9C326.819 57.9865 327.987 57.8319 329.088 57.4458C330.188 57.0598 331.198 56.4506 332.053 55.6563C332.825 54.79 333.419 53.7795 333.8 52.6827C334.182 51.586 334.343 50.4245 334.275 49.2651L330.746 49.2821ZM325.656 54.3814H296.268V57.9H325.622L325.656 54.3814ZM296.302 54.3814C295.608 54.454 294.906 54.3861 294.239 54.1817C293.572 53.9773 292.952 53.6406 292.417 53.1916C291.97 52.6544 291.633 52.0339 291.426 51.3659C291.22 50.6978 291.147 49.9954 291.212 49.2991H287.819C287.741 50.4594 287.898 51.6233 288.28 52.7214C288.662 53.8196 289.261 54.8293 290.041 55.6903C291.782 57.238 294.064 58.0324 296.387 57.9L296.302 54.3814ZM291.212 49.2821V8.98023H287.819V49.2821H291.212ZM291.212 8.96323C291.077 8.26435 291.115 7.54294 291.323 6.86226C291.531 6.18157 291.903 5.56239 292.405 5.05903C292.908 4.55566 293.526 4.18348 294.205 3.97511C294.885 3.76674 295.605 3.72854 296.302 3.86388V0.481313C295.143 0.343839 293.968 0.473791 292.867 0.861233C291.766 1.24867 290.768 1.88334 289.949 2.71666C289.13 3.54998 288.513 4.55988 288.143 5.66908C287.774 6.77828 287.663 7.9574 287.819 9.11621L291.212 8.96323ZM296.302 3.86388H325.656V0.481313H296.268L296.302 3.86388ZM325.775 3.88088C326.473 3.74118 327.195 3.7763 327.877 3.98312C328.558 4.18994 329.178 4.56206 329.682 5.06648C330.185 5.5709 330.557 6.19202 330.763 6.87475C330.969 7.55747 331.005 8.28068 330.865 8.98023H334.259C334.345 7.81922 334.192 6.65284 333.81 5.55343C333.427 4.45402 332.824 3.44503 332.036 2.58904C330.314 1.06721 328.069 0.274941 325.775 0.37933V3.88088ZM326.861 48.3132V9.9831H323.23V48.3982L326.861 48.3132ZM326.861 9.9321C326.875 9.31478 326.812 8.69809 326.674 8.09635C326.534 7.4436 326.196 6.85005 325.707 6.39656L323.467 9.1332C323.381 9.06427 323.312 8.97722 323.264 8.87825C323.298 9.21167 323.298 9.54768 323.264 9.88111L326.861 9.9321ZM325.809 6.53254C325.331 6.09609 324.745 5.79664 324.112 5.66566C323.554 5.54943 322.985 5.49244 322.415 5.49567V9.03122H323.365L325.809 6.53254ZM322.381 5.58066H299.815V9.11621H322.381V5.58066ZM299.815 5.58066C299.245 5.58589 298.677 5.64278 298.118 5.75064C297.488 5.88922 296.903 6.18773 296.421 6.61753L298.915 9.11621C298.763 9.2692 298.678 9.2522 298.915 9.11621H299.866L299.815 5.58066ZM296.523 6.51555C296.016 6.95751 295.67 7.55529 295.539 8.21533C295.415 8.81916 295.358 9.43478 295.369 10.0511H298.763C298.729 9.71766 298.729 9.38165 298.763 9.04822C298.708 9.14797 298.633 9.2349 298.542 9.30319L296.523 6.51555ZM295.369 10.0511V48.4322H298.763V10.0171L295.369 10.0511ZM295.369 48.4492C295.349 49.0602 295.406 49.6713 295.539 50.268C295.645 50.9002 295.927 51.4894 296.353 51.9677L298.847 49.4691C299.017 49.622 298.983 49.724 298.847 49.4691C298.814 49.1243 298.814 48.777 298.847 48.4322L295.369 48.4492ZM296.523 52.0697C296.983 52.4411 297.533 52.6819 298.118 52.7666C298.676 52.88 299.246 52.9257 299.815 52.9026V49.3671C299.476 49.4012 299.135 49.4012 298.797 49.3671L296.523 52.0697ZM299.815 52.9026H322.381V49.3671H299.815V52.9026ZM322.364 52.9026C322.933 52.9257 323.503 52.88 324.061 52.7666C324.64 52.6635 325.187 52.4247 325.656 52.0697L323.416 49.3161C323.569 49.1971 323.637 49.3161 323.416 49.3161C323.078 49.3502 322.737 49.3502 322.398 49.3161L322.364 52.9026ZM325.758 51.9507C326.217 51.4866 326.524 50.8939 326.64 50.251C326.756 49.6518 326.813 49.0426 326.81 48.4322H323.264C323.315 48.7702 323.315 49.114 323.264 49.4521L325.758 51.9507ZM383.159 7.85837L381.903 9.09921L383.159 7.85837ZM356.299 7.85837L357.436 9.2182L356.299 7.85837ZM356.299 50.6759L355.044 51.9337L356.299 50.6759ZM383.159 50.6759L384.296 52.0527L383.159 50.6759ZM389.454 8.98023V49.2821H392.983V8.98023H389.454ZM389.454 49.2821C389.522 49.9773 389.453 50.6793 389.249 51.3474C389.045 52.0156 388.711 52.6366 388.266 53.1746C387.731 53.6236 387.111 53.9603 386.444 54.1647C385.776 54.3691 385.075 54.437 384.38 54.3644V57.917C385.54 57.9951 386.703 57.8365 387.8 57.4508C388.897 57.0651 389.904 56.4604 390.76 55.6733C391.539 54.8081 392.137 53.7953 392.519 52.6946C392.901 51.594 393.059 50.4278 392.983 49.2651L389.454 49.2821ZM384.363 54.3814H354.959V57.917H384.499L384.363 54.3814ZM354.959 54.3814C354.265 54.454 353.563 54.3861 352.895 54.1817C352.228 53.9773 351.608 53.6406 351.073 53.1916C350.628 52.6536 350.294 52.0326 350.09 51.3644C349.887 50.6963 349.817 49.9943 349.886 49.2991H346.339C346.208 50.4687 346.343 51.6529 346.733 52.763C347.123 53.8732 347.759 54.8805 348.593 55.7094C349.427 56.5384 350.438 57.1676 351.549 57.5499C352.66 57.9322 353.843 58.0577 355.01 57.917L354.959 54.3814ZM349.869 49.2821V8.98023H346.322V49.2821H349.869ZM349.869 8.96323C349.729 8.26368 349.764 7.54046 349.971 6.85774C350.177 6.17502 350.549 5.5539 351.052 5.04948C351.556 4.54506 352.176 4.17294 352.857 3.96612C353.539 3.7593 354.261 3.72418 354.959 3.86388V0.481313C353.795 0.351771 352.618 0.486035 351.513 0.874175C350.409 1.26232 349.405 1.89439 348.578 2.72359C347.75 3.55279 347.119 4.55788 346.732 5.66445C346.344 6.77102 346.21 7.95073 346.339 9.11621L349.869 8.96323ZM354.959 3.86388H384.499V0.481313H354.959V3.86388ZM384.363 3.86388C385.062 3.72418 385.784 3.7593 386.465 3.96612C387.147 4.17294 387.767 4.54506 388.27 5.04948C388.774 5.5539 389.145 6.17502 389.352 6.85774C389.558 7.54046 389.593 8.26368 389.454 8.96323H393C393.078 7.80152 392.919 6.63606 392.534 5.53747C392.149 4.43887 391.546 3.43002 390.76 2.57205C389.046 1.04811 386.805 0.255191 384.516 0.362329L384.363 3.86388ZM385.432 48.2962V9.9831H381.852V48.3982L385.432 48.2962ZM385.432 9.89811C385.443 9.28181 385.386 8.66617 385.263 8.06235C385.124 7.40499 384.779 6.8093 384.279 6.36256L382.005 9.08221C381.92 9.06231 381.84 9.0278 381.767 8.98023C381.784 9.3143 381.784 9.64902 381.767 9.9831L385.432 9.89811ZM384.397 6.49855C383.915 6.06874 383.331 5.77023 382.701 5.63165C382.143 5.51542 381.574 5.45845 381.004 5.46168V8.99723H381.954L384.397 6.49855ZM381.004 5.46168H358.454V8.99723H381.106L381.004 5.46168ZM358.454 5.46168C357.884 5.46468 357.316 5.52159 356.757 5.63165C356.127 5.77023 355.543 6.06874 355.061 6.49855L357.555 8.99723C357.419 9.15021 357.334 9.13321 357.555 8.99723H358.505L358.454 5.46168ZM355.061 6.39656C354.553 6.83507 354.211 7.4353 354.093 8.09635C353.972 8.69445 353.926 9.30555 353.958 9.91512H357.351C357.317 9.58169 357.317 9.24566 357.351 8.91224C357.303 9.01121 357.233 9.09828 357.148 9.16721L355.061 6.39656ZM353.958 9.91512V48.3132H357.351V9.9831L353.958 9.91512ZM353.958 48.3132C353.946 48.9239 354.003 49.534 354.127 50.132C354.243 50.7678 354.537 51.3575 354.976 51.8318L357.487 49.3331C357.64 49.4861 357.606 49.588 357.487 49.3331C357.453 48.9883 357.453 48.641 357.487 48.2962L353.958 48.3132ZM355.112 51.9337C355.579 52.2915 356.126 52.5306 356.706 52.6307C357.265 52.7441 357.834 52.7897 358.403 52.7666V49.2311C358.066 49.2824 357.723 49.2824 357.385 49.2311L355.112 51.9337ZM358.505 52.7666H381.106V49.2311H358.454L358.505 52.7666ZM381.14 52.7666C381.709 52.7897 382.278 52.7441 382.836 52.6307C383.416 52.5306 383.964 52.2915 384.431 51.9337L382.158 49.1971C382.327 49.0781 382.378 49.1971 382.158 49.1971C381.819 49.2312 381.478 49.2312 381.14 49.1971V52.7666ZM384.533 51.8148C384.993 51.3537 385.296 50.7588 385.398 50.115C385.523 49.517 385.58 48.9069 385.568 48.2962H381.988C382.03 48.6349 382.03 48.9774 381.988 49.3161C381.988 49.5541 381.988 49.4521 381.988 49.3161L384.533 51.8148Z" fill="url(#paint0_linear)"/>
<path d="M1.69678 2.17969H9.33213V56.2838H1.69678V2.17969ZM67.0214 2.17969V7.27904H47.1695V56.2838H39.619V7.27904H19.6992V2.17969H67.0214ZM117.788 8.97882V49.2637C117.788 53.7964 115.526 56.0628 111.001 56.0628H82.5636C78.039 56.0628 75.7766 53.7964 75.7766 49.2637V8.97882C75.7766 4.4574 78.0673 2.17969 82.5636 2.17969H110.916C115.497 2.17969 117.703 4.4574 117.703 8.97882H117.788ZM110.288 48.3118V9.98168C110.288 8.82583 110.102 8.11193 109.762 7.82296C109.132 7.4188 108.388 7.22813 107.642 7.27904H85.9571C85.1715 7.17753 84.3758 7.36474 83.7174 7.80596C83.3611 8.14592 83.2763 8.80884 83.2763 9.96469V48.3798C83.1892 49.1553 83.3433 49.9389 83.7174 50.6235C83.9889 51.0144 84.8033 51.0654 85.9571 51.0654H107.642C108.394 51.1658 109.159 51.0101 109.813 50.6235C110.244 49.9598 110.43 49.1662 110.339 48.3798L110.288 48.3118ZM170.659 30.77V9.98168C170.659 8.82583 170.472 8.11193 170.133 7.82296C169.493 7.41165 168.736 7.22068 167.978 7.27904H141.865V33.4217H167.978C168.739 33.5206 169.511 33.3395 170.15 32.9118C170.591 32.2901 170.79 31.5285 170.71 30.77H170.659ZM134.23 2.17969H171.269C175.8 2.17969 178.056 4.4574 178.056 8.97882V31.6539C178.056 36.1867 175.794 38.453 171.269 38.453H141.865V56.1648H134.314L134.23 2.17969Z" fill="#F31D42"/>
<path d="M1.69674 2.17975V0.479964H0V2.17975H1.69674ZM9.3321 2.17975H11.0288V0.479964H9.3321V2.17975ZM9.3321 56.1988V57.8986H11.0288V56.1988H9.3321ZM1.69674 56.1988H0V57.8986H1.69674V56.1988ZM1.69674 3.87953H9.3321V0.377981H1.69674V3.87953ZM7.55051 2.17975V56.2158H11.2155V2.17975H7.55051ZM9.24726 54.4311H1.69674V57.8307H9.3321L9.24726 54.4311ZM3.37652 56.1309V2.17975H0V56.2838L3.37652 56.1309ZM67.0384 2.17975H68.7351V0.479964H67.0384V2.17975ZM67.0384 7.2791V8.97888H68.7351V7.2791H67.0384ZM47.1865 7.2791V5.57931H45.4897V7.2791H47.1865ZM47.1865 56.1818V57.8816H48.8832V56.1818H47.1865ZM39.636 56.1818H37.9392V57.8816H39.636V56.1818ZM39.636 7.2791H41.3327V5.57931H39.636V7.2791ZM19.784 7.2791H18.0873V8.97888H19.784V7.2791ZM19.784 2.17975V0.479964H18.0873V2.17975H19.784ZM65.2738 2.17975V7.2791H68.9048V2.17975H65.2738ZM66.9705 5.57931H47.1186V9.11486H66.9705V5.57931ZM45.337 7.2791V56.2838H48.8662V7.2791H45.337ZM47.0338 54.4141H39.4663V57.9836H47.0168L47.0338 54.4141ZM41.2479 56.1139V7.2791H37.7186V56.2668L41.2479 56.1139ZM39.5511 5.42634H19.6992V8.97888H39.5511V5.42634ZM21.4469 7.12612V2.02677H18.0534V7.12612H21.4469ZM19.6653 3.72656H66.9535V0.32699H19.6992L19.6653 3.72656ZM109.712 7.60206L108.354 8.74091L108.456 8.85989L108.592 8.97888L109.712 7.60206ZM83.6156 7.60206L84.8712 8.85989L83.6156 7.60206ZM83.6156 50.4366L82.2582 51.5584L82.36 51.6944L82.4957 51.7964L83.6156 50.4366ZM109.712 50.4366L108.473 49.1787L109.712 50.4366ZM115.922 8.8089V49.0767H119.468V8.97888L115.922 8.8089ZM115.922 49.1108C115.99 49.806 115.921 50.508 115.717 51.1761C115.513 51.8442 115.179 52.4653 114.734 53.0033C114.202 53.4582 113.583 53.7987 112.915 54.0034C112.246 54.2081 111.543 54.2727 110.848 54.1931V57.9666C112.011 58.0531 113.179 57.8985 114.28 57.5125C115.381 57.1264 116.39 56.5172 117.245 55.7229C118.025 54.8619 118.624 53.8522 119.006 52.7541C119.388 51.656 119.545 50.492 119.468 49.3317L115.922 49.1108ZM110.831 54.2101H82.4788V57.9666H110.831V54.2101ZM82.4788 54.2101C81.7843 54.2897 81.0808 54.2251 80.4124 54.0204C79.7439 53.8157 79.1246 53.4752 78.5932 53.0203C78.1424 52.482 77.8035 51.8588 77.5966 51.1874C77.3897 50.516 77.319 49.81 77.3885 49.1108H73.995C73.9088 50.2718 74.0616 51.4381 74.444 52.5376C74.8263 53.637 75.4301 54.646 76.2178 55.5019C77.0801 56.2855 78.0905 56.8877 79.1892 57.2731C80.2879 57.6585 81.4527 57.8192 82.6145 57.7457L82.4788 54.2101ZM77.3885 49.1108V8.97888H73.995V49.2807L77.3885 49.1108ZM77.3885 8.8089C77.319 8.1097 77.3897 7.40363 77.5966 6.73223C77.8035 6.06084 78.1424 5.43766 78.5932 4.8994C79.6824 4.00749 81.0779 3.58016 82.4788 3.70955V0.309988C81.3197 0.172514 80.1446 0.302466 79.0434 0.689908C77.9422 1.07735 76.944 1.71202 76.1253 2.54534C75.3065 3.37866 74.6889 4.38855 74.3197 5.49775C73.9505 6.60696 73.8394 7.78608 73.995 8.94489L77.3885 8.8089ZM82.4788 3.70955H110.831V0.309988H82.4788V3.70955ZM110.831 3.70955C112.234 3.594 113.626 4.02648 114.717 4.9164C115.162 5.45795 115.495 6.08195 115.699 6.75276C115.903 7.42357 115.973 8.12804 115.905 8.8259H119.451C119.527 7.66317 119.369 6.49703 118.987 5.39638C118.605 4.29573 118.007 3.2829 117.228 2.41772C116.36 1.64361 115.349 1.04849 114.251 0.666409C113.153 0.284328 111.991 0.122782 110.831 0.191004V3.70955ZM111.985 48.0739V9.98174H108.456V48.3968L111.985 48.0739ZM111.985 9.67579C111.997 9.06508 111.94 8.45498 111.815 7.85702C111.677 7.19966 111.332 6.60397 110.831 6.15723L108.592 8.97888C108.501 8.91059 108.426 8.82366 108.371 8.72391C108.421 9.05636 108.421 9.39433 108.371 9.72679L111.985 9.67579ZM111.069 6.37821C110.613 5.88943 110.022 5.54648 109.372 5.39233C108.775 5.26763 108.166 5.21062 107.557 5.22236V8.75791C107.889 8.72358 108.225 8.72358 108.558 8.75791L108.303 8.53693L111.069 6.37821ZM107.54 5.23936H85.8723V8.8089H107.54V5.23936ZM85.8723 5.23936C85.2574 5.23691 84.6437 5.29383 84.0398 5.40934C83.4094 5.54791 82.8251 5.84642 82.343 6.27623L84.8372 8.8089C84.6676 8.97888 84.5827 8.94488 84.8372 8.91088C85.1724 8.84329 85.5134 8.80913 85.8553 8.8089L85.8723 5.23936ZM82.36 6.27623C81.9266 6.74964 81.6432 7.34118 81.5456 7.97601C81.4408 8.53625 81.3953 9.106 81.4098 9.67579H84.956C84.9221 9.32533 84.9221 8.97239 84.956 8.62193V8.50294C84.9195 8.6041 84.8547 8.69261 84.7694 8.75791L82.36 6.27623ZM81.4098 9.67579V48.0739H84.956V9.98174L81.4098 9.67579ZM81.4437 48.0739C81.4292 48.6437 81.4747 49.2134 81.5795 49.7737C81.6696 50.3916 81.9148 50.9764 82.2921 51.4734L85.0069 49.2127L85.1087 49.3487C85.0917 49.2933 85.0917 49.2341 85.1087 49.1787C85.0748 48.8169 85.0748 48.4527 85.1087 48.0909L81.4437 48.0739ZM82.5127 51.6944C83.0098 52.0677 83.5939 52.3076 84.2094 52.3913C84.7687 52.4963 85.3374 52.5419 85.9062 52.5273V49.1278C85.5403 49.1787 85.1692 49.1787 84.8033 49.1278L82.5127 51.6944ZM85.9062 52.5273H107.54V49.1278H85.8723L85.9062 52.5273ZM107.574 52.5273C108.142 52.5419 108.711 52.4963 109.27 52.3913C109.906 52.3007 110.499 52.0158 110.967 51.5754L108.473 49.0767C108.547 49.0011 108.633 48.938 108.727 48.8898H108.592C108.242 48.9238 107.89 48.9238 107.54 48.8898L107.574 52.5273ZM110.967 51.5754C111.412 51.1032 111.712 50.5134 111.832 49.8756C111.95 49.2826 112.001 48.6783 111.985 48.0739H108.422C108.456 48.413 108.456 48.7546 108.422 49.0938L110.967 51.5754ZM170.082 7.50006L168.826 8.74091L170.082 7.50006ZM141.865 7.2791V5.57931H140.168V7.2791H141.865ZM141.865 33.4217H140.168V35.1215H141.865V33.4217ZM170.234 32.9118L168.979 31.654L170.234 32.9118ZM134.28 2.17975V0.479964H132.584V2.17975H134.28ZM141.814 38.5721V36.8723H140.117V38.5721H141.814ZM141.814 56.1988V57.8986H143.511V56.1988H141.814ZM134.28 56.1988H132.584V57.8986H134.28V56.1988ZM172.457 30.7021V9.98174H169.064V30.7871L172.457 30.7021ZM172.457 9.93075C172.477 9.31976 172.42 8.70866 172.287 8.11198C172.156 7.45195 171.81 6.85416 171.303 6.4122L169.047 9.13185C168.956 9.06356 168.881 8.97665 168.826 8.87689C168.86 9.20466 168.86 9.535 168.826 9.86276L172.457 9.93075ZM171.422 6.53119C170.94 6.10138 170.356 5.80288 169.725 5.66431C169.167 5.54808 168.599 5.49109 168.029 5.49432V8.97888C168.344 8.94487 168.663 8.94487 168.979 8.97888L171.422 6.53119ZM168.029 5.49432H141.865V8.97888H168.063L168.029 5.49432ZM140.066 7.1941V33.3368H143.562V7.2791L140.066 7.1941ZM141.763 35.1215H167.978V31.569H141.865L141.763 35.1215ZM167.961 35.1215C168.532 35.1275 169.101 35.0648 169.658 34.9346C170.3 34.8319 170.894 34.5285 171.354 34.0677L168.86 31.569C169.013 31.416 169.098 31.45 168.86 31.569C168.545 31.6201 168.225 31.6201 167.91 31.569L167.961 35.1215ZM171.354 34.0677C171.799 33.5955 172.099 33.0056 172.22 32.3679C172.344 31.8102 172.401 31.2395 172.389 30.6681H168.996C169.047 30.9833 169.047 31.3047 168.996 31.62L171.354 34.0677ZM134.213 3.87953H171.235V0.479964H134.213V3.87953ZM171.235 3.87953C171.934 3.73983 172.656 3.77495 173.337 3.98177C174.019 4.18859 174.639 4.56071 175.142 5.06513C175.646 5.56955 176.017 6.19067 176.224 6.87339C176.43 7.55612 176.465 8.27933 176.326 8.97888H179.855C179.933 7.81455 179.775 6.64641 179.39 5.54501C179.005 4.44361 178.401 3.4318 177.615 2.5707C176.752 1.79408 175.744 1.19605 174.649 0.810993C173.554 0.42594 172.394 0.261459 171.235 0.32699V3.87953ZM176.326 8.97888V31.586H179.855V8.97888H176.326ZM176.326 31.637C176.394 32.3322 176.325 33.0342 176.121 33.7023C175.917 34.3705 175.583 34.9915 175.138 35.5295C174.604 35.9807 173.985 36.3199 173.317 36.5272C172.65 36.7345 171.948 36.8056 171.252 36.7363V40.2719C172.411 40.3583 173.576 40.2052 174.673 39.8221C175.771 39.4391 176.778 38.8343 177.632 38.0452C178.418 37.1739 179.019 36.1526 179.401 35.0427C179.783 33.9328 179.938 32.7571 179.855 31.586L176.326 31.637ZM171.235 36.7363H141.865V40.2719H171.371L171.235 36.7363ZM139.998 38.4361V56.3178H143.562V38.5551L139.998 38.4361ZM141.695 54.2951H134.162V58.0176H141.865L141.695 54.2951ZM135.926 55.9949V2.17975H132.346V56.2838L135.926 55.9949Z" fill="#CD092B"/>
<defs>
<linearGradient id="paint0_linear" x1="251.797" y1="-48.2005" x2="349.601" y2="115.947" gradientUnits="userSpaceOnUse">
<stop stop-color="#E07504"/>
<stop offset="0.49" stop-color="#FBDF15"/>
<stop offset="1" stop-color="#F18F28"/>
</linearGradient>
</defs>
</svg>
