<svg width="9" height="9" viewBox="0 0 9 9" fill="none" xmlns="http://www.w3.org/2000/svg">
<path d="M4.9972 4.50002L8.89702 0.600174C9.03433 0.462871 9.03433 0.240262 8.89702 0.102977C8.75972 -0.0343081 8.53711 -0.0343257 8.39983 0.102977L4.49999 4.00282L0.600173 0.102977C0.46287 -0.0343257 0.240261 -0.0343257 0.102977 0.102977C-0.034308 0.24028 -0.0343256 0.462889 0.102977 0.600174L4.0028 4.5L0.102977 8.39985C-0.0343256 8.53715 -0.0343256 8.75976 0.102977 8.89705C0.171619 8.96569 0.261601 9 0.351583 9C0.441566 9 0.53153 8.96569 0.60019 8.89705L4.49999 4.99722L8.39981 8.89705C8.46845 8.96569 8.55843 9 8.64842 9C8.7384 9 8.82836 8.96569 8.89702 8.89705C9.03433 8.75974 9.03433 8.53713 8.89702 8.39985L4.9972 4.50002Z" fill="#F31D42"/>
</svg>
