<svg width="12" height="12" viewBox="0 0 12 12" fill="none" xmlns="http://www.w3.org/2000/svg">
<path d="M9.46317 5.3672L8.93597 4.7672C8.79037 4.6016 8.53837 4.5856 8.37197 4.7304L6.79997 6.108V0.4C6.79997 0.1792 6.62077 0 6.39997 0H5.59997C5.37917 0 5.19997 0.1792 5.19997 0.4V6.108L3.62797 4.7304C3.46237 4.5856 3.21037 4.6016 3.06397 4.7672L2.53677 5.3664C2.39037 5.5328 2.40717 5.7864 2.57357 5.932L5.73677 8.7008C5.88797 8.8328 6.11277 8.8328 6.26397 8.7008L9.42637 5.932C9.59277 5.7864 9.60957 5.5328 9.46317 5.3672Z" fill="white"/>
<path d="M10.4002 10.3984H1.6002C1.3794 10.3984 1.2002 10.5776 1.2002 10.7984V11.5984C1.2002 11.8192 1.3794 11.9984 1.6002 11.9984H10.4002C10.621 11.9984 10.8002 11.8192 10.8002 11.5984V10.7984C10.8002 10.5776 10.621 10.3984 10.4002 10.3984Z" fill="white"/>
</svg>
