<svg width="21" height="21" viewBox="0 0 21 21" fill="none" xmlns="http://www.w3.org/2000/svg">
<path d="M10.5006 0C4.70189 0 0.000976562 4.70127 0.000976562 10.4998C0.000976562 16.2983 4.70189 21 10.5006 21C16.2993 21 21.0008 16.2986 21.0008 10.4998C21.0008 4.70099 16.2993 0 10.5006 0ZM15.492 7.55615L14.4947 8.55344L12.4647 6.52351L11.6945 7.29365L13.7246 9.32372L8.74537 14.3025L6.71544 12.2728L5.9453 13.043L7.97523 15.0729L7.47907 15.569L7.46962 15.5596C7.4146 15.6502 7.32514 15.7163 7.21888 15.7399L5.32587 16.1619C5.29752 16.1683 5.26868 16.1714 5.24019 16.1714C5.13687 16.1714 5.03649 16.1307 4.96208 16.0561C4.8666 15.961 4.82684 15.8236 4.85624 15.6919L5.27813 13.7994C5.30193 13.6933 5.36815 13.6036 5.45859 13.5487L5.449 13.5391L13.4619 5.52587C13.5794 5.40862 13.7702 5.40862 13.8876 5.52622L15.4922 7.13041C15.6096 7.24787 15.6096 7.43869 15.492 7.55615Z" fill="white"/>
</svg>
