<svg width="79" height="78" viewBox="0 0 79 78" fill="none" xmlns="http://www.w3.org/2000/svg">
<path d="M47.5596 77.1687C42.2853 78.2597 36.8436 78.2767 31.5626 77.2187C26.2815 76.1607 21.2704 74.0495 16.8311 71.0124C12.426 67.9186 8.6969 63.968 5.86913 59.3995C3.04136 54.831 1.17363 49.7393 0.378825 44.4322C-0.361716 39.1251 -0.0141418 33.7238 1.40055 28.554C2.81524 23.3843 5.26774 18.5534 8.61003 14.3528C11.79 10.3717 15.7538 7.07931 20.2582 4.67756C24.7627 2.27581 29.7128 0.8154 34.8048 0.385951C41.031 -0.0451875 47.5394 1.29836 52.466 5.10842C57.3927 8.91848 60.4252 15.3956 59.1558 21.4716C57.9266 27.2769 53.1814 31.7588 48.023 34.7567C42.8647 37.7546 37.1321 39.6195 31.9032 42.5874C26.6743 45.5552 21.9391 49.9568 20.6193 55.7521C19.9364 58.777 20.2472 61.9401 21.5059 64.7759C24.1455 70.6916 29.7975 73.1681 32.5883 74.3613C39.9026 77.4494 47.4689 76.7977 47.4487 77.2288C47.4487 77.2288 47.3883 77.3391 45.8468 77.5396C44.2228 77.7932 42.5838 77.9405 40.9404 77.9808C38.6947 77.9747 36.4583 77.6952 34.2809 77.1486C29.9024 76.0263 25.912 73.7427 22.735 70.5412C18.9569 66.691 17.3752 59.8128 18.423 54.579C19.2491 50.5684 21.8686 47.1394 24.9616 44.5526C28.4438 41.7461 32.2943 39.4253 36.4067 37.6543C41.2023 35.4585 46.1995 33.5435 50.3805 30.2648C51.4582 29.4433 52.4596 28.5272 53.3728 27.5276C57.5136 22.9154 57.6848 16.6489 54.3803 11.5454C50.844 6.15117 44.7184 3.21342 38.2604 2.9427C32.8163 2.75655 27.4231 4.04204 22.6544 6.66252C19.7279 8.20895 17.004 10.1082 14.5441 12.3175C11.9935 14.638 9.76726 17.2885 7.92493 20.1983C6.46364 22.5282 5.30901 25.0353 4.48938 27.658C2.74465 32.8821 2.1582 38.4205 2.77041 43.8918C3.38263 49.3631 5.17896 54.6374 8.03575 59.3516C13.3251 67.8942 22.332 73.7396 32.0241 76.1861C37.0942 77.484 42.3651 77.8174 47.5596 77.1687Z" fill="white"/>
<path d="M31.44 0.826453C36.7156 -0.261702 42.158 -0.275452 47.4391 0.786032C52.7202 1.84752 57.7307 3.96225 62.1684 7.00276C66.5691 10.0921 70.2955 14.0363 73.1231 18.5976C75.9506 23.1589 77.8208 28.2428 78.6207 33.5428C79.3619 38.8499 79.0146 44.2515 77.5999 49.4213C76.1852 54.5911 73.7324 59.422 70.3895 63.6222C68.5358 65.9183 59.0251 77.6593 44.1948 77.5891C41.3235 77.5891 29.5157 77.0978 23.4204 68.2846C22.6144 67.1215 19.3904 62.4692 20.2266 56.694C21.345 48.9435 30.9665 43.2284 30.9665 43.2284C30.9665 43.2284 31.2989 42.6886 37.7511 39.752C44.2033 36.8154 45.7314 36.1547 47.0359 35.3877C49.464 33.9339 57.6448 29.0109 58.6321 21.7918C58.9927 19.1547 58.7657 16.471 57.9672 13.9311C57.0147 11.2361 55.3968 8.82267 53.2622 6.91252C51.6657 5.42959 49.843 4.20791 47.8621 3.29296C44.0615 1.49313 39.9004 0.574395 35.6916 0.60587C33.5457 0.60587 31.4602 0.906665 31.4602 0.836479C32.5029 0.609261 33.5598 0.451826 34.6237 0.365235C35.6312 0.254944 36.9006 0.0945206 37.9685 0.0844941C40.2154 0.070073 42.4545 0.349872 44.628 0.916691C49.0046 2.04365 52.9938 4.32659 56.1739 7.52414C59.952 11.3743 61.5337 18.2625 60.4759 23.4863C59.6598 27.547 57.0403 30.9259 53.9372 33.5629C50.4604 36.3745 46.613 38.6988 42.5022 40.4711C37.7066 42.6569 32.6994 44.572 28.5284 47.8506C27.5102 48.6469 26.56 49.5255 25.6872 50.4775C21.5465 55.0997 21.3853 61.3663 24.6797 66.4597C26.4813 69.0704 28.8848 71.2137 31.6893 72.7104C34.4938 74.2071 37.6177 75.0136 40.7996 75.0625C46.2431 75.2366 51.6324 73.9408 56.3955 71.3126C59.3056 69.7646 62.0127 67.8653 64.4554 65.6576C67.0075 63.3357 69.2369 60.6854 71.0847 57.7768C72.5411 55.4442 73.6954 52.9378 74.5203 50.3171C76.268 45.0944 76.8578 39.5568 76.249 34.0855C75.6403 28.6142 73.8475 23.3391 70.994 18.6234C65.7047 10.0809 56.6978 4.23545 47.0057 1.8291C41.9264 0.525648 36.6458 0.185509 31.44 0.826453Z" fill="#E51B30"/>
<path d="M37.8188 53.8511C37.8188 53.8511 38.0002 56.7688 40.2771 57.0696C40.2771 57.0696 42.3928 57.0696 42.8462 53.8511C42.8462 53.8511 42.2216 53.9414 42.2719 52.5677C42.2719 52.2469 42.1813 52.2068 41.8186 52.0664C41.8186 52.0664 40.0253 53.2596 38.7961 52.0664C38.6633 52.0876 38.5384 52.1432 38.4341 52.2277C38.3297 52.3122 38.2496 52.4226 38.2017 52.5477C38.2017 52.5477 38.4737 53.5202 37.8188 53.8511Z" fill="url(#paint0_linear)"/>
<path d="M44.8813 58.8677C44.8813 58.8677 44.0753 57.1933 42.5943 57.3236C42.1893 57.8816 41.7304 58.3987 41.2241 58.8677H44.8813Z" fill="url(#paint1_linear)"/>
<path d="M39.2697 58.9191H35.542C35.7326 58.4694 36.05 58.0842 36.4559 57.8102C36.8617 57.5362 37.3387 57.385 37.829 57.375" fill="url(#paint2_linear)"/>
<path d="M40.1665 59.0573C40.1665 59.0573 39.9247 58.165 39.562 58.0547H40.9725C40.721 58.3404 40.5475 58.6857 40.4688 59.0573H40.1665Z" fill="url(#paint3_linear)"/>
<path d="M34.5544 59.0664H46.7752C46.7752 59.0664 47.3898 59.0664 47.0875 60.0691L45.5058 66.0248H35.7432L34.1615 59.8685C34.1615 59.8685 33.8088 59.0664 34.5544 59.0664Z" fill="url(#paint4_linear)"/>
<path d="M40.3073 70.6487C46.7673 70.6487 52.0043 65.4369 52.0043 59.0079C52.0043 52.5789 46.7673 47.3672 40.3073 47.3672C33.8472 47.3672 28.6104 52.5789 28.6104 59.0079C28.6104 65.4369 33.8472 70.6487 40.3073 70.6487Z" stroke="white" stroke-width="2"/>
<path d="M38.3425 17.6367V20.2235L40.0552 24.9059H34.645V20.9555C34.6527 20.476 34.8007 20.0091 35.0709 19.6119C35.3411 19.2148 35.7218 18.9047 36.1663 18.7196L38.3425 17.6367Z" fill="url(#paint5_linear)"/>
<path d="M42.0604 17.6367V20.2235L40.3477 24.9059H45.7277V20.9555C45.7166 20.4754 45.5661 20.0088 45.2943 19.6121C45.0226 19.2153 44.6412 18.9053 44.1963 18.7196L42.0604 17.6367Z" fill="url(#paint6_linear)"/>
<path d="M39.6021 18.7188H40.9823L40.4886 19.5409L40.9823 20.4634L40.2972 24.3737L39.6021 20.4634L40.0554 19.581L39.6021 18.7188Z" fill="url(#paint7_linear)"/>
<path d="M37.5264 14.386C37.5264 14.386 37.7178 17.5243 40.166 17.8452C40.166 17.8452 42.4429 17.8452 42.9366 14.386C42.9366 14.386 42.2616 14.4763 42.322 13.0024C42.322 12.6615 42.2213 12.6113 41.8283 12.4609C41.8283 12.4609 39.894 13.7443 38.5439 12.4609C38.4005 12.4815 38.2652 12.5397 38.1519 12.6296C38.0385 12.7195 37.9513 12.8378 37.8991 12.9723C37.8991 12.9723 38.2215 14.0451 37.5264 14.386Z" fill="url(#paint8_linear)"/>
<path d="M40.3073 30.7307C46.7674 30.7307 52.0043 25.519 52.0043 19.09C52.0043 12.661 46.7674 7.44922 40.3073 7.44922C33.8473 7.44922 28.6104 12.661 28.6104 19.09C28.6104 25.519 33.8473 30.7307 40.3073 30.7307Z" stroke="#F31D42" stroke-width="2"/>
<defs>
<linearGradient id="paint0_linear" x1="37.3976" y1="53.3983" x2="41.9443" y2="57.9608" gradientUnits="userSpaceOnUse">
<stop stop-color="#E07504"/>
<stop offset="0.49" stop-color="#FBDF15"/>
<stop offset="1" stop-color="white"/>
</linearGradient>
<linearGradient id="paint1_linear" x1="40.9177" y1="57.7294" x2="41.9322" y2="60.118" gradientUnits="userSpaceOnUse">
<stop stop-color="#E07504"/>
<stop offset="0.49" stop-color="#FBDF15"/>
<stop offset="1" stop-color="white"/>
</linearGradient>
<linearGradient id="paint2_linear" x1="35.2296" y1="57.786" x2="36.2228" y2="60.1805" gradientUnits="userSpaceOnUse">
<stop stop-color="#E07504"/>
<stop offset="0.49" stop-color="#FBDF15"/>
<stop offset="1" stop-color="white"/>
</linearGradient>
<linearGradient id="paint3_linear" x1="39.4438" y1="58.3216" x2="40.3048" y2="59.5311" gradientUnits="userSpaceOnUse">
<stop stop-color="#E07504"/>
<stop offset="0.49" stop-color="#FBDF15"/>
<stop offset="1" stop-color="white"/>
</linearGradient>
<linearGradient id="paint4_linear" x1="32.9809" y1="60.9188" x2="38.226" y2="70.7746" gradientUnits="userSpaceOnUse">
<stop stop-color="#E07504"/>
<stop offset="0.49" stop-color="#FBDF15"/>
<stop offset="1" stop-color="white"/>
</linearGradient>
<linearGradient id="paint5_linear" x1="34.1916" y1="19.5718" x2="40.5172" y2="24.2733" gradientUnits="userSpaceOnUse">
<stop stop-color="#E07504"/>
<stop offset="0.49" stop-color="#FBDF15"/>
<stop offset="1" stop-color="white"/>
</linearGradient>
<linearGradient id="paint6_linear" x1="39.8968" y1="19.5718" x2="46.212" y2="24.2394" gradientUnits="userSpaceOnUse">
<stop stop-color="#E07504"/>
<stop offset="0.49" stop-color="#FBDF15"/>
<stop offset="1" stop-color="white"/>
</linearGradient>
<linearGradient id="paint7_linear" x1="39.4864" y1="20.2241" x2="41.8512" y2="20.8005" gradientUnits="userSpaceOnUse">
<stop stop-color="#E07504"/>
<stop offset="0.49" stop-color="#FBDF15"/>
<stop offset="1" stop-color="white"/>
</linearGradient>
<linearGradient id="paint8_linear" x1="37.073" y1="13.8943" x2="41.966" y2="18.8042" gradientUnits="userSpaceOnUse">
<stop stop-color="#E07504"/>
<stop offset="0.49" stop-color="#FBDF15"/>
<stop offset="1" stop-color="white"/>
</linearGradient>
</defs>
</svg>
