<svg id="Layer_1" data-name="Layer 1" xmlns="http://www.w3.org/2000/svg" xmlns:xlink="http://www.w3.org/1999/xlink" viewBox="0 0 231.59 128.84"><defs><style>.cls-1{fill:#e51b30;}.cls-2{fill:#fff;}.cls-3{fill:url(#linear-gradient);}.cls-4{fill:url(#linear-gradient-2);}.cls-5{fill:url(#linear-gradient-3);}.cls-6{fill:url(#linear-gradient-4);}.cls-7{fill:url(#linear-gradient-5);}.cls-8{fill:url(#linear-gradient-6);}.cls-9{fill:url(#linear-gradient-7);}.cls-10{fill:url(#linear-gradient-8);}.cls-11{fill:url(#linear-gradient-9);}.cls-12,.cls-13{fill:none;stroke-width:2px;}.cls-12{stroke:#fff;}.cls-13{stroke:#f31d42;}.cls-14{fill:url(#linear-gradient-10);}.cls-15{fill:#f31d42;}.cls-16{fill:#cd092b;}</style><linearGradient id="linear-gradient" x1="-372.06" y1="774.68" x2="-365.76" y2="779.34" gradientTransform="translate(241.58 -755.15)" gradientUnits="userSpaceOnUse"><stop offset="0" stop-color="#e07504"/><stop offset="0.49" stop-color="#fbdf15"/><stop offset="1" stop-color="#fff"/></linearGradient><linearGradient id="linear-gradient-2" x1="-366.62" y1="774.97" x2="-360.32" y2="779.61" xlink:href="#linear-gradient"/><linearGradient id="linear-gradient-3" x1="-367.04" y1="776.31" x2="-364.69" y2="776.88" xlink:href="#linear-gradient"/><linearGradient id="linear-gradient-4" x1="-368.03" y1="767.83" x2="-363.14" y2="772.71" xlink:href="#linear-gradient"/><linearGradient id="linear-gradient-5" x1="-363.22" y1="805.82" x2="-358.69" y2="810.36" xlink:href="#linear-gradient"/><linearGradient id="linear-gradient-6" x1="-359.45" y1="810.61" x2="-358.43" y2="812.99" xlink:href="#linear-gradient"/><linearGradient id="linear-gradient-7" x1="-365.03" y1="810.69" x2="-364.03" y2="813.09" xlink:href="#linear-gradient"/><linearGradient id="linear-gradient-8" x1="-361.67" y1="811.38" x2="-360.79" y2="812.59" xlink:href="#linear-gradient"/><linearGradient id="linear-gradient-9" x1="-362.89" y1="811.33" x2="-357.66" y2="821.14" xlink:href="#linear-gradient"/><linearGradient id="linear-gradient-10" x1="-1238.14" y1="-588.65" x2="-1180.65" y2="-685.31" gradientTransform="matrix(1, 0, 0, -1, 1148.92, -521.88)" gradientUnits="userSpaceOnUse"><stop offset="0" stop-color="#e07504"/><stop offset="0.49" stop-color="#fbdf15"/><stop offset="1" stop-color="#f18f28"/></linearGradient></defs><path class="cls-1" d="M-126.59,82.07" transform="translate(237.61 -0.41)"/><path class="cls-2" d="M-116,79.43" transform="translate(237.61 -0.41)"/><path class="cls-3" d="M-126.36,17.59v2.58l1.7,4.67H-130V20.9a2.48,2.48,0,0,1,1.51-2.23Z" transform="translate(237.61 -0.41)"/><path class="cls-4" d="M-122.67,17.59v2.58l-1.7,4.67H-119V20.9a2.49,2.49,0,0,0-1.52-2.23Z" transform="translate(237.61 -0.41)"/><path class="cls-5" d="M-125.11,18.67h1.37l-.49.82.49.92-.68,3.9-.69-3.9.45-.88Z" transform="translate(237.61 -0.41)"/><path class="cls-6" d="M-127.17,14.35s.19,3.13,2.62,3.45c0,0,2.26,0,2.75-3.45,0,0-.67.09-.61-1.38,0-.34-.1-.39-.49-.54,0,0-1.92,1.28-3.26,0a.84.84,0,0,0-.64.51S-126.48,14-127.17,14.35Z" transform="translate(237.61 -0.41)"/><path class="cls-7" d="M-122.31,52.23s.18,2.91,2.44,3.21c0,0,2.1,0,2.55-3.21,0,0-.62.09-.57-1.28,0-.32-.09-.36-.45-.5,0,0-1.78,1.19-3,0a.78.78,0,0,0-.59.48S-121.66,51.9-122.31,52.23Z" transform="translate(237.61 -0.41)"/><path class="cls-8" d="M-115.3,57.23s-.8-1.67-2.27-1.54a10,10,0,0,1-1.36,1.54Z" transform="translate(237.61 -0.41)"/><path class="cls-9" d="M-120.87,57.28h-3.7a2.54,2.54,0,0,1,2.27-1.54" transform="translate(237.61 -0.41)"/><path class="cls-10" d="M-120,57.42s-.24-.89-.6-1h1.4a2.25,2.25,0,0,0-.5,1Z" transform="translate(237.61 -0.41)"/><path class="cls-11" d="M-125.55,57.43h12.13s.61,0,.31,1l-1.57,5.94h-9.69l-1.57-6.14S-126.29,57.43-125.55,57.43Z" transform="translate(237.61 -0.41)"/><path id="white" class="cls-2" d="M-115.8,77.37a39.56,39.56,0,0,1-30.5-6.14,39.54,39.54,0,0,1-16.33-26.51,39.61,39.61,0,0,1,8.17-30,37.28,37.28,0,0,1,26-13.93c6.18-.43,12.64.91,17.53,4.71s7.9,10.26,6.64,16.32c-1.22,5.79-5.93,10.26-11,13.25s-10.81,4.85-16,7.81-9.89,7.35-11.2,13.13a14.41,14.41,0,0,0,.88,9c2.62,5.9,8.23,8.37,11,9.56,7.26,3.08,14.77,2.43,14.75,2.86,0,0-.06.11-1.59.31a36.12,36.12,0,0,1-4.87.44,26.79,26.79,0,0,1-6.61-.83,24.62,24.62,0,0,1-11.46-6.59c-3.75-3.84-5.32-10.7-4.28-15.92a18.31,18.31,0,0,1,6.49-10A49.48,49.48,0,0,1-126.87,38c4.76-2.19,9.72-4.1,13.87-7.37a21.91,21.91,0,0,0,3-2.73c4.11-4.6,4.28-10.85,1-15.94-3.51-5.38-9.59-8.31-16-8.58a30,30,0,0,0-15.49,3.71,40.59,40.59,0,0,0-8,5.64,38.65,38.65,0,0,0-6.57,7.86A32.1,32.1,0,0,0-158.55,28,38,38,0,0,0-155,59.6c5.25,8.52,14.19,14.35,23.81,16.79A41.09,41.09,0,0,0-115.8,77.37Z" transform="translate(237.61 -0.41)"/><path class="cls-1" d="M-131.8,1.23a39.66,39.66,0,0,1,30.5,6.16A39.57,39.57,0,0,1-85,33.86a39.5,39.5,0,0,1-8.17,30c-1.84,2.29-11.28,14-26,13.93-2.85,0-14.57-.49-20.62-9.28-.8-1.16-4-5.8-3.17-11.56,1.11-7.73,8.7-12.28,10.66-13.43,2.43-1.42,3.86-1.88,12-5.74a39.89,39.89,0,0,0,4-2.08c2.41-1.45,10.53-6.36,11.51-13.56a18.1,18.1,0,0,0-.66-7.84,17.11,17.11,0,0,0-4.67-7,20.78,20.78,0,0,0-5.36-3.61A27.71,27.71,0,0,0-127.58,1c-2.13,0-4.2.3-4.2.23a25.57,25.57,0,0,1,3.14-.47c1-.11,2.26-.27,3.32-.28a25.87,25.87,0,0,1,6.61.83,25.07,25.07,0,0,1,11.46,6.59c3.75,3.84,5.32,10.71,4.27,15.92-.81,4.05-3.41,7.42-6.49,10.05a48.22,48.22,0,0,1-11.35,6.89c-4.76,2.18-9.73,4.09-13.87,7.36a24.11,24.11,0,0,0-2.82,2.62c-4.11,4.61-4.27,10.86-1,15.94a19.74,19.74,0,0,0,16,8.58A29.81,29.81,0,0,0-107,71.53a39.18,39.18,0,0,0,8-5.64A38.17,38.17,0,0,0-92.45,58,32.13,32.13,0,0,0-89,50.59,38,38,0,0,0-92.54,19c-5.25-8.52-14.19-14.35-23.81-16.75A41.67,41.67,0,0,0-131.8,1.23Z" transform="translate(237.61 -0.41)"/><path class="cls-1" d="M-128-5.41" transform="translate(237.61 -0.41)"/><circle class="cls-12" cx="117.77" cy="56.96" r="11.61"/><circle class="cls-13" cx="113.2" cy="18.63" r="11.61"/><path class="cls-1" d="M-112.26-1.07" transform="translate(237.61 -0.41)"/><path class="cls-1" d="M-79.91,3" transform="translate(237.61 -0.41)"/><path class="cls-1" d="M-128.87-2.41" transform="translate(237.61 -0.41)"/><path class="cls-1" d="M-106.68-2" transform="translate(237.61 -0.41)"/><path class="cls-1" d="M-124.27-1.1" transform="translate(237.61 -0.41)"/><path class="cls-1" d="M-97.52-8.21" transform="translate(237.61 -0.41)"/><path class="cls-2" d="M-129.52-1.13" transform="translate(237.61 -0.41)"/><path class="cls-1" d="M-121.6-2" transform="translate(237.61 -0.41)"/><path class="cls-2" d="M-131.91,1.23A9.87,9.87,0,0,1-129.82,1a10.69,10.69,0,0,1,2.19.1A25.5,25.5,0,0,1-131.91,1.23Z" transform="translate(237.61 -0.41)"/><path class="cls-2" d="M-130.59,1.13a9.86,9.86,0,0,1,2.1-.16,10.65,10.65,0,0,1,2.18.19A25.49,25.49,0,0,1-130.59,1.13Z" transform="translate(237.61 -0.41)"/><path class="cls-1" d="M-145.8,56.32" transform="translate(237.61 -0.41)"/><path class="cls-1" d="M-128.45,82.16" transform="translate(237.61 -0.41)"/><path class="cls-2" d="M-110.82,96.4v31.83h-4.5V99.41h-6.44v-3Zm34.61,4v23.71q0,4-4,4H-97.54q-4,0-4-4V100.44c0-2.66,1.33-4,4-4h17.33c2.67,0,4,1.34,4,4Zm-4.44,23.14V101c0-.68-.11-1.1-.31-1.27a2.06,2.06,0,0,0-1.28-.31H-95.53a1.92,1.92,0,0,0-1.28.31,1.86,1.86,0,0,0-.3,1.27v22.6a2,2,0,0,0,.3,1.32c.21.23.63.26,1.28.26h13.29a2.12,2.12,0,0,0,1.28-.26,1.91,1.91,0,0,0,.31-1.32Zm39-23.15V124.1q0,4-4,4h-17.3q-4,0-4-4V100.44c0-2.66,1.33-4,4-4h17.3q4,0,4,4ZM-46,123.59V101c0-.68-.1-1.1-.3-1.27a2.06,2.06,0,0,0-1.28-.31H-60.95a1.89,1.89,0,0,0-1.27.31,1.8,1.8,0,0,0-.31,1.27v22.6a2,2,0,0,0,.31,1.32c.2.23.63.26,1.27.26h13.29a2.12,2.12,0,0,0,1.28-.26,1.9,1.9,0,0,0,.3-1.32Zm39-23.15v23.71q0,4-4,4H-28.41q-4,0-4-4V100.44c0-2.66,1.33-4,4-4H-11C-8.36,96.44-7,97.78-7,100.44Zm-4.45,23.15V101c0-.68-.1-1.1-.31-1.27A2.07,2.07,0,0,0-13,99.41H-26.37a1.92,1.92,0,0,0-1.28.31A1.8,1.8,0,0,0-28,101v22.6a2,2,0,0,0,.31,1.32c.21.23.63.26,1.28.26H-13a2.09,2.09,0,0,0,1.27-.26c.21-.17.31-.64.31-1.32Z" transform="translate(237.61 -0.41)"/><path class="cls-14" d="M-110.82,96.4h1v-1h-1Zm0,31.78v1h1v-1Zm-4.5,0h-1v1h1Zm0-28.77h1v-1h-1Zm-6.44,0h-1v1h1Zm0-3v-1h-1v1Zm9.89,0v31.82h2.09V96.4Zm1,30.74h-4.5v2.08h4.5Zm-3.46,1V99.41h-2.09v28.82Zm-1-29.82h-6.44v2.09h6.44Zm-5.4,1v-3h-2.08v3Zm-1-2h10.94v-2h-10.94Zm40.78,2.28-.73.74h0Zm-15.83,0,.67.8h0Zm0,25.2-.74.73h0Zm15.83,0,.67.8h0Zm3.71-24.48V124h2.09v-23.6Zm0,23.71a3.1,3.1,0,0,1-.7,2.29,3.07,3.07,0,0,1-2.29.7v2.2a5,5,0,0,0,3.77-1.32,5.17,5.17,0,0,0,1.31-3.76Zm-3,3H-97.57v2.19h17.33Zm-17.33,0a3,3,0,0,1-2.29-.7,3.11,3.11,0,0,1-.71-2.29h-2.08a5.09,5.09,0,0,0,1.31,3.76,5.18,5.18,0,0,0,3.77,1.32Zm-3-3v-23.6h-2.08v23.71Zm0-23.72A3.13,3.13,0,0,1-99.86,98a3.11,3.11,0,0,1,2.29-.7v-2a5.13,5.13,0,0,0-3.77,1.32,5.2,5.2,0,0,0-1.31,3.76Zm3-3h17.33V95.37H-97.57Zm17.33,0a3.11,3.11,0,0,1,2.29.7,3.12,3.12,0,0,1,.7,2.29h2.09a5.06,5.06,0,0,0-1.32-3.76,5.18,5.18,0,0,0-3.76-1.32Zm.63,26.14V101H-81.7v22.6Zm0-22.59a4.4,4.4,0,0,0-.11-1.08,1.91,1.91,0,0,0-.57-1l-1.34,1.6a.44.44,0,0,1-.12-.15h0a2.91,2.91,0,0,1,0,.59Zm-.61-2a2.22,2.22,0,0,0-1-.51,4.78,4.78,0,0,0-1-.1v2.08a5.23,5.23,0,0,1,.56,0h0Zm-2-.61H-95.55v2.08h13.29Zm-13.29,0a5.56,5.56,0,0,0-1,.1,2.22,2.22,0,0,0-1,.51l1.47,1.47c-.08.09-.13.08,0,0a5.23,5.23,0,0,1,.56,0Zm-1.94.55a1.83,1.83,0,0,0-.58,1,5.65,5.65,0,0,0-.11,1.08H-96a2.91,2.91,0,0,1,0-.59h0a.47.47,0,0,1-.13.15Zm-.69,2.08v22.59H-96V101Zm0,22.59a4.8,4.8,0,0,0,.11,1.07,2,2,0,0,0,.51,1l1.47-1.47c.1.09.08.15,0,0a3.11,3.11,0,0,1,0-.61Zm.69,2.13a2,2,0,0,0,.93.41,4.82,4.82,0,0,0,1,.08V124a3,3,0,0,1-.6,0h0Zm1.94.49h13.29V124H-95.55Zm13.29,0a4.18,4.18,0,0,0,1-.08,2.2,2.2,0,0,0,.94-.41L-81.62,124c.09-.07.13,0,0,0a3,3,0,0,1-.6,0Zm2-.56a2,2,0,0,0,.51-1,5.46,5.46,0,0,0,.1-1.07H-81.7a2,2,0,0,1,0,.6h0Zm33.83-25.81-.74.73h0Zm-15.83,0,.66.8h0Zm0,25.2-.74.73h0Zm15.83,0,.67.8h0Zm3.71-24.48v23.71h2.08V100.44Zm0,23.71a3.11,3.11,0,0,1-.71,2.29,3,3,0,0,1-2.29.7v2.08a5,5,0,0,0,3.77-1.32,5.17,5.17,0,0,0,1.31-3.76Zm-3,3H-63v2.07h17.3Zm-17.3,0a3.07,3.07,0,0,1-2.29-.7,3.11,3.11,0,0,1-.71-2.29h-2a5.09,5.09,0,0,0,1.31,3.76,5.19,5.19,0,0,0,3.74,1.3Zm-3-3V100.44h-2v23.71Zm0-23.72a3.13,3.13,0,0,1,.71-2.29,3.11,3.11,0,0,1,2.29-.7V95.37a5.13,5.13,0,0,0-3.77,1.32A5.19,5.19,0,0,0-68,100.45Zm3-3h17.3V95.37H-63Zm17.32,0a3.14,3.14,0,0,1,2.3.7,3.12,3.12,0,0,1,.7,2.29h2.08a5.06,5.06,0,0,0-1.31-3.76,5.22,5.22,0,0,0-3.77-1.32Zm.64,26.14V101h-2.09v22.6ZM-45,101a4.4,4.4,0,0,0-.11-1.08,1.91,1.91,0,0,0-.57-1L-47,100.53a.44.44,0,0,1-.12-.15h0a2.91,2.91,0,0,1,0,.59Zm-.62-2a2.08,2.08,0,0,0-1-.51,4.78,4.78,0,0,0-1-.1v2.08h.56Zm-2-.61h-13.3v2.08h13.29Zm-13.29,0a5.56,5.56,0,0,0-1,.1,2.22,2.22,0,0,0-1,.51l1.47,1.47c-.09.09-.14.08,0,0h.56Zm-1.94.55a1.83,1.83,0,0,0-.58,1,4.94,4.94,0,0,0-.1,1.08h2a2.91,2.91,0,0,1,0-.59h0a.47.47,0,0,1-.13.15Zm-.68,2.08V123.6h2V101Zm0,22.59a4.27,4.27,0,0,0,.1,1.07,2,2,0,0,0,.48,1l1.47-1.47c.1.09.08.15,0,0a3.11,3.11,0,0,1,0-.61Zm.68,2.13a2,2,0,0,0,.94.41,4.22,4.22,0,0,0,1,.08v-2.08a3,3,0,0,1-.6,0h0Zm1.94.49h13.29v-2.08h-13.3Zm13.29,0a4.18,4.18,0,0,0,1-.08,2.2,2.2,0,0,0,.94-.41L-47,124.12c.09-.07.13,0,0,0a3,3,0,0,1-.6,0Zm2-.56a1.9,1.9,0,0,0,.52-1,5.46,5.46,0,0,0,.1-1.07h-2.09a2.36,2.36,0,0,1,0,.6c0,.14,0,.08,0,0Zm33.83-25.94-.74.73h0Zm-15.83,0,.67.8h0Zm0,25.19-.74.74h0Zm15.83,0,.67.81h0Zm3.71-24.47v23.71H-6V100.44Zm0,23.71a3.11,3.11,0,0,1-.7,2.29,3.07,3.07,0,0,1-2.29.7v2.09a5.06,5.06,0,0,0,3.76-1.32A5.12,5.12,0,0,0-6,124.15Zm-3,3H-28.41v2.08H-11Zm-17.33,0a3.07,3.07,0,0,1-2.29-.7,3.1,3.1,0,0,1-.7-2.29h-2.09a5.08,5.08,0,0,0,1.32,3.76,5.13,5.13,0,0,0,3.79,1.31Zm-3-3V100.44h-2.09v23.71Zm0-23.72a3.12,3.12,0,0,1,.7-2.29,3.11,3.11,0,0,1,2.29-.7V95.37a5.1,5.1,0,0,0-3.76,1.32,5.11,5.11,0,0,0-1.32,3.76Zm3-3H-11V95.37H-28.41Zm17.33,0a3.11,3.11,0,0,1,2.29.7,3.12,3.12,0,0,1,.7,2.29H-6a5.06,5.06,0,0,0-1.32-3.76A5.17,5.17,0,0,0-11,95.37Zm.63,26.14V101h-2.11v22.6Zm0-22.59a4.94,4.94,0,0,0-.1-1.08,1.86,1.86,0,0,0-.58-1l-1.34,1.6a.44.44,0,0,1-.12-.15h0a4,4,0,0,1,0,.59Zm-.61-2a2.22,2.22,0,0,0-1-.51,4.78,4.78,0,0,0-1-.1v2.08a5.23,5.23,0,0,1,.56,0h0Zm-2-.61H-26.35v2.08H-13Zm-13.29,0a5.33,5.33,0,0,0-1.05.1,2.22,2.22,0,0,0-1,.51l1.47,1.47c-.08.09-.13.08,0,0a5.23,5.23,0,0,1,.56,0Zm-2,.55a1.78,1.78,0,0,0-.57,1A4.4,4.4,0,0,0-29,101H-27a2.91,2.91,0,0,1,0-.59h0a.44.44,0,0,1-.12.15ZM-29,101v22.59H-27V101Zm0,22.59a4.79,4.79,0,0,0,.1,1.07,2.06,2.06,0,0,0,.5,1l1.48-1.47c.09.09.07.15,0,0a3.11,3.11,0,0,1,0-.61Zm.68,2.13a2.09,2.09,0,0,0,.94.41,4.22,4.22,0,0,0,1,.08v-2.08a2,2,0,0,1-.6,0h0Zm2,.49H-13v-2.08H-26.35Zm13.34,0a4.18,4.18,0,0,0,1-.08,2.09,2.09,0,0,0,.94-.41l-1.34-1.61c.1-.07.13,0,0,0a3,3,0,0,1-.6,0Zm2-.56a1.88,1.88,0,0,0,.51-1,4.79,4.79,0,0,0,.1-1.07h-2.11a2.36,2.36,0,0,1-.05.6c0,.14,0,.08.05,0Z" transform="translate(237.61 -0.41)"/><path class="cls-15" d="M-236.57,96.4h4.5v31.83h-4.5Zm38.46,0v3h-11.7v28.83h-4.45V99.41H-226v-3Zm29.92,4v23.71q0,4-4.05,4h-16.71q-4.05,0-4.05-4V100.44c0-2.66,1.35-4,4.05-4h16.71c2.7,0,4.05,1.34,4.05,4Zm-4.39,23.15V101c0-.68-.11-1.1-.31-1.27a2.06,2.06,0,0,0-1.28-.31h-12.78a1.93,1.93,0,0,0-1.32.31c-.21.2-.26.59-.26,1.27v22.6a2.23,2.23,0,0,0,.26,1.32c.16.23.64.26,1.32.26h12.78a2,2,0,0,0,1.28-.26,2,2,0,0,0,.31-1.32ZM-137,113.23V101c0-.68-.11-1.1-.31-1.27a2.06,2.06,0,0,0-1.28-.31H-154v15.38h15.43a1.87,1.87,0,0,0,1.28-.3A1.85,1.85,0,0,0-137,113.23ZM-158.5,96.42h21.83c2.67,0,4,1.34,4,4v13.34q0,4-4,4H-154v10.42h-4.45Z" transform="translate(237.61 -0.41)"/><path class="cls-16" d="M-236.57,96.4v-1h-1v1Zm4.5,0h1v-1h-1Zm0,31.78v1h1v-1Zm-4.5,0h-1v1h1Zm0-30.74h4.5V95.35h-4.5Zm3.45-1v31.79H-231V96.4Zm1.05,30.74h-4.5v2h4.5Zm-3.46,1V96.4h-2.08v31.83ZM-198.1,96.4h1v-1h-1Zm0,3v1h1v-1Zm-11.7,0v-1h-1v1Zm0,28.77v1h1v-1Zm-4.45,0h-1v1h1Zm0-28.77h1v-1h-1Zm-11.7,0h-1v1h1Zm0-3v-1h-1v1Zm26.81,0v3H-197v-3Zm1,2h-11.7v2.08h11.7Zm-12.75,1v28.83h2.08V99.41Zm1,27.73h-4.46v2.1h4.45Zm-3.41,1V99.41h-2.08v28.82Zm-1-29.82H-226v2.09h11.7Zm-10.67,1v-3H-227v3Zm-1.05-2h27.87v-2H-226Zm53.07,2.28-.8.67.06.07.08.06Zm-15.38,0,.74.74Zm0,25.2-.8.66.06.08.08.06Zm15.38,0-.73-.74h0Zm3.66-24.48V124h2.09V100.44Zm0,23.71a3.1,3.1,0,0,1-.7,2.29,3,3,0,0,1-2.29.7v2.22a5,5,0,0,0,3.77-1.32,5.09,5.09,0,0,0,1.31-3.76Zm-3,3H-189v2.21h16.71ZM-189,127a3,3,0,0,1-2.29-.7A3.11,3.11,0,0,1-192,124h-2a5,5,0,0,0,1.31,3.76,5.13,5.13,0,0,0,3.77,1.32Zm-3-3V100.44h-2v23.71Zm0-23.71a3.1,3.1,0,0,1,.71-2.3,3.16,3.16,0,0,1,2.29-.7v-2a5.17,5.17,0,0,0-3.77,1.31,5.2,5.2,0,0,0-1.26,3.77Zm3-3h16.71v-2H-189Zm16.71,0A3.2,3.2,0,0,1-170,98a3.16,3.16,0,0,1,.7,2.3h2.09a5.13,5.13,0,0,0-1.31-3.77,5.21,5.21,0,0,0-3.77-1.31Zm.68,26.14V101h-2.08v22.6Zm0-22.59a4.9,4.9,0,0,0-.1-1.07,1.86,1.86,0,0,0-.58-1l-1.33,1.61a.47.47,0,0,1-.13-.15h0a1.94,1.94,0,0,1,0,.59Zm-.54-1.94a1.91,1.91,0,0,0-1-.58,4.79,4.79,0,0,0-1.07-.1v2.08a2.88,2.88,0,0,1,.59.05h0l-.15-.13Zm-2.08-.67H-187v2.08h12.77Zm-12.77,0a5.64,5.64,0,0,0-1.08.1,2.22,2.22,0,0,0-1,.51l1.48,1.47c-.1.1-.15.08,0,.06a3.05,3.05,0,0,1,.6-.06Zm-2.07.61a1.91,1.91,0,0,0-.48,1,4.82,4.82,0,0,0-.08,1h2.09a3.21,3.21,0,0,1,0-.62v-.07a.28.28,0,0,1-.11.15Zm-.56,2v22.6h2.09V101Zm0,22.6a4.77,4.77,0,0,0,.08,1,2.12,2.12,0,0,0,.42,1l1.6-1.33.06.08a.17.17,0,0,1,0-.1,3.42,3.42,0,0,1,0-.64Zm.63,2.13a2.2,2.2,0,0,0,1,.41,4.82,4.82,0,0,0,1,.08v-2a2.81,2.81,0,0,1-.65,0h0Zm2,.49h12.77v-2H-187Zm12.77,0a4.77,4.77,0,0,0,1-.08,1.84,1.84,0,0,0,1-.48l-1.47-1.47a.58.58,0,0,1,.15-.11h-.07a3.21,3.21,0,0,1-.62,0Zm2-.56a2,2,0,0,0,.51-1,4.79,4.79,0,0,0,.1-1.07h-2.09a3,3,0,0,1,0,.6c0,.14,0,.08,0,0Zm34.84-25.93-.74.73h0ZM-154,99.41v-1h-1v1Zm0,15.38h-1v1h1Zm16.72-.3-.74-.74h0ZM-158.47,96.4v-1h-1.05v1Zm4.44,21.41v-1h-1v1Zm0,10.37v1H-153v-1Zm-4.44,0h-1.05v1h1.05Zm22.5-15V101H-138v12.24Zm0-12.22a4.36,4.36,0,0,0-.1-1.07,1.83,1.83,0,0,0-.58-1l-1.33,1.6a.47.47,0,0,1-.13-.15h0a2.9,2.9,0,0,1,.05.58Zm-.61-2a2.22,2.22,0,0,0-1-.51,4.78,4.78,0,0,0-1-.1v2.08a2.62,2.62,0,0,1,.56,0h0Zm-2-.61H-154v2.08h15.44Zm-16.48,1v15.38H-153V99.41Zm1,16.43h15.44v-2.09H-154Zm15.44,0a4.2,4.2,0,0,0,1-.11,1.82,1.82,0,0,0,1-.51l-1.47-1.47c.09-.09.14-.07,0,0a1.75,1.75,0,0,1-.56,0Zm2-.62a2,2,0,0,0,.51-1,4.14,4.14,0,0,0,.1-1h-2a1.75,1.75,0,0,1,0,.56h0Zm-21.89-17.78h21.82v-2h-21.82Zm21.82,0a3.11,3.11,0,0,1,2.29.7,3.16,3.16,0,0,1,.7,2.3h2.09a5.09,5.09,0,0,0-1.32-3.77,5.18,5.18,0,0,0-3.76-1.32Zm3,3v13.33h2.09V100.44Zm0,13.33a3.1,3.1,0,0,1-.7,2.29,3.08,3.08,0,0,1-2.29.71v2.08a5,5,0,0,0,3.76-1.31,5.11,5.11,0,0,0,1.32-3.77Zm-3,3H-154v2.08h17.38Zm-18.41,1v10.52H-153V117.81Zm1,9.33h-4.44v2.19H-154Zm-3.4,1V96.4h-2.09v31.83Z" transform="translate(237.61 -0.41)"/><path class="cls-16" d="M40.29,107.08" transform="translate(237.61 -0.41)"/></svg>