<svg width="215" height="32" viewBox="0 0 215 32" fill="none" xmlns="http://www.w3.org/2000/svg">
<path d="M0.965382 1.63986V0.716452H0.0371377V1.63986H0.965382ZM5.14248 1.63986H6.07073V0.716452H5.14248V1.63986ZM5.14248 30.9859V31.9093H6.07073V30.9859H5.14248ZM0.965382 30.9859H0.0371377V31.9093H0.965382V30.9859ZM0.965382 2.60021H5.14248V0.670286H0.965382V2.60021ZM4.16782 1.6768V31.032H6.10785V1.63986L4.16782 1.6768ZM5.14248 30.0624H0.965382V31.9554H5.14248V30.0624ZM1.93075 30.9859V1.63986H0V31.032L1.93075 30.9859ZM36.6749 1.63986H37.6032V0.716452H36.6749V1.63986ZM36.6749 4.41009V5.33351H37.6032V4.41009H36.6749ZM25.8145 4.41009V3.48668H24.8862V4.41009H25.8145ZM25.8145 30.9766V31.9H26.7427V30.9766H25.8145ZM21.6838 30.9766H20.7555V31.9H21.6838V30.9766ZM21.6838 4.41009H22.612V3.48668H21.6838V4.41009ZM10.8233 4.41009H9.89509V5.33351H10.8233V4.41009ZM10.8233 1.63986V0.716452H9.89509V1.63986H10.8233ZM35.7096 1.63986V4.41009H37.6682V1.63986H35.7096ZM36.6378 3.48668H25.7774V5.40738H36.6378V3.48668ZM24.8027 4.41009V31.032H26.7334V4.41933L24.8027 4.41009ZM25.7309 30.0163H21.591V31.9554H25.7217L25.7309 30.0163ZM22.5656 30.9397V4.41933H20.6349V31.032L22.5656 30.9397ZM21.6374 3.40358H10.7769V5.33351H21.6374V3.40358ZM11.733 4.32699V1.55676H9.82083V4.32699H11.733ZM10.7584 2.48017H36.6285V0.670286H10.7769L10.7584 2.48017ZM60.0203 4.58555L59.2777 5.20423L59.3334 5.26887L59.4076 5.32428L60.0203 4.58555ZM45.7439 4.58555L46.4308 5.26887L45.7439 4.58555ZM45.7439 27.8555L45.0013 28.4649L45.057 28.5388L45.1312 28.5942L45.7439 27.8555ZM60.0203 27.8555L59.3427 27.1722L60.0203 27.8555ZM63.4177 5.2504V27.1445H65.3577V5.37044L63.4177 5.2504ZM63.4177 27.1445C63.4562 27.5222 63.4186 27.9038 63.3071 28.2669C63.1955 28.63 63.0122 28.9673 62.7679 29.2591C62.4746 29.5021 62.1356 29.6844 61.7705 29.7954C61.4055 29.9064 61.0219 29.9438 60.6422 29.9055V31.9554C61.278 31.997 61.9156 31.9104 62.5169 31.701C63.1182 31.4915 63.6709 31.1635 64.1417 30.7365C64.5672 30.2679 64.894 29.7193 65.1029 29.1229C65.3117 28.5266 65.3984 27.8947 65.3577 27.2645L63.4177 27.1445ZM60.6329 29.9147H45.122V31.9554H60.6329V29.9147ZM45.122 29.9147C44.7422 29.9541 44.3583 29.9172 43.9932 29.8062C43.628 29.6951 43.289 29.5122 42.9963 29.2683C42.7504 28.9773 42.5654 28.6403 42.4522 28.2772C42.339 27.9141 42.2999 27.5321 42.3372 27.1537H40.4529C40.4085 27.7842 40.4934 28.4171 40.7024 29.014C40.9114 29.6108 41.2403 30.1592 41.6689 30.6257C42.1412 31.0505 42.6941 31.3771 43.295 31.5864C43.896 31.7958 44.5329 31.8835 45.1684 31.8446L45.122 29.9147ZM42.3372 27.1445V5.37044H40.4529V27.2645L42.3372 27.1445ZM42.3372 5.2504C42.2997 4.87059 42.3387 4.48714 42.4518 4.12247C42.565 3.75781 42.7501 3.41924 42.9963 3.12655C43.2904 2.88486 43.6295 2.70335 43.9943 2.59242C44.3591 2.48149 44.7423 2.44335 45.122 2.48017V0.670286C44.487 0.629097 43.8502 0.714921 43.2491 0.922689C42.6481 1.13046 42.095 1.45595 41.6225 1.87995C41.2071 2.35531 40.8901 2.90744 40.6894 3.50478C40.4887 4.10212 40.4083 4.73295 40.4529 5.36121L42.3372 5.2504ZM45.122 2.48017H60.6329V0.670286H45.122V2.48017ZM60.6329 2.48017C61.3996 2.40683 62.1642 2.63932 62.7586 3.12655C63.0027 3.42022 63.1859 3.75916 63.2974 4.12372C63.4089 4.48828 63.4466 4.87123 63.4084 5.2504H65.3484C65.3898 4.61874 65.3035 3.98524 65.0947 3.38731C64.8858 2.78938 64.5586 2.23915 64.1324 1.76914C63.6582 1.34775 63.1048 1.02391 62.5042 0.816295C61.9036 0.608679 61.2676 0.521394 60.6329 0.559474V2.48017ZM61.2641 26.6181V5.87832H59.3334V26.7474L61.2641 26.6181ZM61.2641 5.75827C61.2705 5.4265 61.2394 5.09507 61.1713 4.77022C61.0956 4.41311 60.9069 4.0895 60.6329 3.84681L59.3984 5.33351C59.3487 5.29641 59.3075 5.24918 59.2777 5.19499C59.3007 5.37588 59.3007 5.55893 59.2777 5.73981L61.2641 5.75827ZM60.7629 3.96686C60.5189 3.69428 60.1936 3.50659 59.8346 3.43128C59.5088 3.35901 59.1751 3.32799 58.8414 3.33894V5.25963C59.0252 5.25238 59.2092 5.26789 59.3891 5.3058L59.2498 5.18576L60.7629 3.96686ZM58.8321 3.34817H46.9785V5.26887H58.8321V3.34817ZM46.9785 3.34817C46.6419 3.3418 46.3056 3.37278 45.9759 3.44052C45.6292 3.51035 45.3082 3.6732 45.0477 3.91145L46.4215 5.26887C46.3287 5.36121 46.2823 5.34274 46.4215 5.32428C46.6041 5.28306 46.7912 5.26445 46.9785 5.26887V3.34817ZM45.057 3.91145C44.819 4.168 44.6638 4.48966 44.6114 4.83486C44.5563 5.1395 44.5314 5.44879 44.5372 5.75827H46.4772C46.459 5.56786 46.459 5.37617 46.4772 5.18576V5.12112C46.4572 5.17608 46.4218 5.22416 46.3751 5.25963L45.057 3.91145ZM44.5372 5.75827V26.6274H46.4772V5.87832L44.5372 5.75827ZM44.5372 26.6274C44.5314 26.9368 44.5563 27.2461 44.6114 27.5508C44.6591 27.8869 44.7934 28.205 45.0013 28.4742L46.4865 27.246L46.5422 27.3199C46.5368 27.2894 46.5368 27.2581 46.5422 27.2276C46.5237 27.031 46.5237 26.8332 46.5422 26.6366L44.5372 26.6274ZM45.122 28.5942C45.3955 28.7942 45.7143 28.9242 46.0502 28.9728C46.3565 29.0274 46.6674 29.0522 46.9785 29.0467V27.246C46.7763 27.2494 46.5743 27.234 46.3751 27.1999H46.2823H46.3658L45.122 28.5942ZM46.9785 29.0467H58.8321V27.246H46.9785V29.0467ZM58.8321 29.0467C59.1432 29.0522 59.4541 29.0274 59.7604 28.9728C60.1074 28.9208 60.4307 28.7664 60.6886 28.5296L59.3241 27.1722C59.3623 27.1284 59.4099 27.0937 59.4633 27.0706H59.3984C59.207 27.0892 59.0142 27.0892 58.8228 27.0706L58.8321 29.0467ZM60.6886 28.5296C60.9318 28.2731 61.0961 27.9526 61.162 27.6062C61.2301 27.2813 61.2613 26.9499 61.2549 26.6181H59.3148C59.3334 26.8023 59.3334 26.988 59.3148 27.1722C59.3148 27.3014 59.2684 27.246 59.3148 27.1722L60.6886 28.5296ZM93.0287 4.58555L92.3418 5.25963L93.0287 4.58555ZM77.5827 4.41933V3.49592H76.6544V4.41933H77.5827ZM77.5827 18.6214H76.6544V19.5448H77.5827V18.6214ZM93.1029 18.3444L92.416 17.661L93.1029 18.3444ZM73.4613 1.63986V0.716452H72.4866V1.63986H73.4613ZM77.5827 21.4101V20.4867H76.6544V21.4101H77.5827ZM77.5827 30.9859V31.9093H78.5573V30.9859H77.5827ZM73.4613 30.9859H72.4866V31.9093H73.4613V30.9859ZM94.3468 17.1347V5.87832H92.4346V17.1809L94.3468 17.1347ZM94.3468 5.85062C94.3578 5.5187 94.3266 5.18672 94.254 4.86257C94.1821 4.504 93.9928 4.17926 93.7156 3.93916L92.481 5.41662C92.4313 5.37952 92.3902 5.33229 92.3603 5.2781C92.3942 5.45458 92.4098 5.63405 92.4067 5.81368L94.3468 5.85062ZM93.7805 4.0038C93.5206 3.76476 93.1994 3.60179 92.8523 3.53286C92.5473 3.46792 92.2359 3.43695 91.924 3.44052V5.36121C92.0968 5.34294 92.2711 5.34294 92.4439 5.36121C92.546 5.36121 92.4996 5.36121 92.4439 5.36121L93.7805 4.0038ZM91.924 3.44052H77.5827V5.36121H91.9148L91.924 3.44052ZM76.6266 4.36393V18.566H78.5666V4.41933L76.6266 4.36393ZM77.5548 19.5356H91.8869V17.6056H77.5827L77.5548 19.5356ZM91.8869 19.5356C92.1992 19.536 92.5105 19.502 92.8152 19.434C93.1652 19.3736 93.4887 19.2094 93.7434 18.963L92.3789 17.6056C92.4624 17.5225 92.5089 17.541 92.3789 17.6056C92.2064 17.6288 92.0316 17.6288 91.8591 17.6056L91.8869 19.5356ZM93.7434 18.963C93.9866 18.7065 94.1509 18.3861 94.2168 18.0396C94.2856 17.7368 94.3168 17.4267 94.3096 17.1162H92.4346C92.4579 17.2878 92.4579 17.4617 92.4346 17.6333C92.4346 17.7441 92.4346 17.698 92.4346 17.6333L93.7434 18.963ZM73.4241 2.54481H93.6784V0.670286H73.4241V2.54481ZM93.6784 2.54481C94.0581 2.50747 94.4415 2.54537 94.8063 2.65632C95.1712 2.76727 95.5103 2.94906 95.8041 3.19119C96.0482 3.48486 96.2314 3.8238 96.3429 4.18836C96.4544 4.55292 96.4922 4.93587 96.4539 5.31504H98.3939C98.4367 4.68252 98.3503 4.04792 98.1397 3.44958C97.9291 2.85124 97.5987 2.30157 97.1686 1.83378C96.698 1.40928 96.1468 1.08276 95.5474 0.873423C94.948 0.664089 94.3125 0.57618 93.6784 0.614877V2.54481ZM96.4632 5.31504V17.6241H98.4032V5.37044L96.4632 5.31504ZM96.4632 17.6241C96.5017 18.0019 96.4641 18.3835 96.3526 18.7466C96.241 19.1097 96.0577 19.447 95.8134 19.7387C95.5206 19.9829 95.1818 20.1667 94.8169 20.2792C94.4519 20.3918 94.068 20.4309 93.6877 20.3943V22.315C94.3214 22.3581 94.9574 22.2732 95.5572 22.0653C96.157 21.8574 96.7083 21.5309 97.1779 21.1054C97.6049 20.6355 97.9332 20.0855 98.1437 19.4877C98.3541 18.8899 98.4423 18.2563 98.4032 17.6241H96.4632ZM93.6784 20.3943H77.5827V22.315H93.7156L93.6784 20.3943ZM76.5894 21.3177V31.032H78.5295V21.4101L76.5894 21.3177ZM77.5177 29.9332H73.3963V31.9554H77.5827L77.5177 29.9332ZM74.3617 30.8566V1.63986H72.4216V31.032L74.3617 30.8566Z" fill="#CD092B"/>
<path d="M0.965332 1.64062H5.14243V31.0328H0.965332V1.64062ZM36.6656 1.64062V4.41086H25.8052V31.0328H21.6745V4.42009H10.814V1.64986L36.6656 1.64062ZM64.4387 5.33427V27.2283C64.4387 29.6908 63.1856 30.922 60.6793 30.922H45.1683C42.6621 30.922 41.4089 29.6908 41.4089 27.2283V5.37121C41.4089 2.90878 42.6621 1.67756 45.1683 1.67756H60.6793C63.1856 1.67756 64.4387 2.90878 64.4387 5.37121V5.33427ZM60.3637 26.7112V5.87909C60.3637 5.25117 60.2616 4.86333 60.0759 4.70635C59.7237 4.48023 59.305 4.37934 58.8878 4.42009H47.0248C46.5949 4.36323 46.159 4.46507 45.7995 4.70635C45.6046 4.89103 45.5582 5.25117 45.5582 5.87909V26.7482C45.5136 27.1694 45.5977 27.5942 45.7995 27.9671C45.9481 28.1795 46.3936 28.2072 47.0248 28.2072H58.8878C59.2997 28.2617 59.7181 28.1771 60.0759 27.9671C60.3054 27.6039 60.4066 27.175 60.3637 26.7482V26.7112ZM93.3628 17.1816V5.87909C93.3628 5.25117 93.2607 4.86333 93.075 4.70635C92.7228 4.48023 92.3041 4.37934 91.8869 4.42009H77.5826V18.6222H91.9054C92.322 18.6734 92.7433 18.5752 93.0936 18.3451C93.3203 18.0018 93.4158 17.589 93.3628 17.1816ZM73.4334 1.6591H93.697C96.1723 1.6591 97.4099 2.89031 97.4099 5.35274V17.671C97.4099 20.1643 96.1723 21.4109 93.697 21.4109H77.5826V31.0328H73.4519L73.4334 1.6591Z" fill="#F31D42"/>
<path d="M117.692 1.64006H118.62V0.716649H117.692V1.64006ZM117.692 30.986V31.9095H118.62V30.986H117.692ZM113.515 30.986H112.587V31.9095H113.515V30.986ZM113.515 4.41953H114.443V3.49612H113.515V4.41953ZM107.537 4.41953H106.609V5.34294H107.537V4.41953ZM107.537 1.6493V0.725885H106.609V1.6493H107.537ZM116.717 1.6493V31.0322H118.658V1.64006L116.717 1.6493ZM117.646 30.0349H113.469V31.9556H117.646V30.0349ZM114.434 30.9583V4.41953H112.494V31.0322L114.434 30.9583ZM113.506 3.42224H107.528V5.35217H113.506V3.42224ZM108.493 4.34565V1.57542H106.562V4.34565H108.493ZM107.565 2.49883H117.72V0.670482H107.565V2.49883ZM145.419 4.60421L144.741 5.28754L145.419 4.60421ZM130.725 4.60421L131.347 5.34294L130.725 4.60421ZM130.725 27.8742L130.038 28.5482L130.725 27.8742ZM145.419 27.8742L146.041 28.6129L145.419 27.8742ZM148.863 5.26906V27.1631H150.803V5.37064L148.863 5.26906ZM148.863 27.1631C148.901 27.5409 148.864 27.9225 148.752 28.2856C148.64 28.6487 148.457 28.986 148.213 29.2777C147.919 29.5199 147.58 29.7017 147.215 29.8126C146.85 29.9236 146.467 29.9615 146.087 29.9241V31.9556C146.723 31.9972 147.361 31.9106 147.962 31.7012C148.563 31.4917 149.116 31.1637 149.587 30.7367C150.01 30.267 150.336 29.7181 150.545 29.1221C150.754 28.5261 150.841 27.8947 150.803 27.2647L148.863 27.1631ZM146.078 29.9334H129.991V31.9556H146.078V29.9334ZM129.991 29.9334C129.612 29.9717 129.228 29.9343 128.863 29.8233C128.498 29.7123 128.159 29.53 127.866 29.287C127.62 28.9957 127.436 28.6587 127.322 28.2956C127.209 27.9326 127.17 27.5507 127.207 27.1724H125.276C125.235 27.8025 125.322 28.4345 125.531 29.0308C125.74 29.6271 126.066 30.1758 126.492 30.6444C126.966 31.067 127.519 31.3923 128.119 31.6014C128.72 31.8106 129.356 31.8996 129.991 31.8633V29.9334ZM127.207 27.1631V5.37064H125.276V27.2647L127.207 27.1631ZM127.207 5.25983C127.17 4.88148 127.209 4.49964 127.322 4.13658C127.436 3.77351 127.62 3.43651 127.866 3.14522C128.159 2.9022 128.498 2.71985 128.863 2.60886C129.228 2.49787 129.612 2.46046 129.991 2.49883V0.688947C129.356 0.647409 128.718 0.733956 128.117 0.943401C127.515 1.15285 126.963 1.48088 126.492 1.90785C126.068 2.37733 125.742 2.92612 125.533 3.52223C125.324 4.11833 125.237 4.74983 125.276 5.37987L127.207 5.25983ZM129.991 2.4896H146.078V0.688947H129.991V2.4896ZM146.078 2.4896C146.458 2.45226 146.841 2.49016 147.206 2.60111C147.571 2.71206 147.91 2.89386 148.204 3.13599C148.693 3.72732 148.927 4.48791 148.853 5.2506H150.793C150.836 4.6195 150.749 3.98635 150.539 3.38954C150.328 2.79272 149.998 2.24467 149.568 1.77857C149.097 1.35408 148.546 1.02755 147.947 0.818217C147.347 0.608883 146.712 0.520974 146.078 0.55967V2.4896ZM146.663 26.6276V5.87852H144.723V26.7476L146.663 26.6276ZM146.663 5.76771C146.671 5.43233 146.637 5.09724 146.561 4.77042C146.488 4.41425 146.303 4.0906 146.031 3.84701L144.788 5.32447C144.741 5.28703 144.703 5.23973 144.676 5.18596C144.695 5.36708 144.695 5.54964 144.676 5.73077L146.663 5.76771ZM146.096 3.92088C145.835 3.68378 145.515 3.5211 145.168 3.44994C144.863 3.38568 144.552 3.35471 144.24 3.3576V5.2783C144.413 5.2642 144.587 5.2642 144.76 5.2783C144.871 5.2783 144.825 5.2783 144.76 5.2783L146.096 3.92088ZM144.24 3.3576H131.866V5.2783H144.203L144.24 3.3576ZM131.904 3.3576C131.592 3.35508 131.281 3.38604 130.975 3.44994C130.628 3.51933 130.307 3.68224 130.047 3.92088L131.412 5.2783C131.337 5.36141 131.291 5.35217 131.412 5.2783C131.585 5.26502 131.758 5.26502 131.931 5.2783L131.904 3.3576ZM130.103 3.86548C129.826 4.10558 129.636 4.43033 129.564 4.78889C129.497 5.11715 129.463 5.45121 129.462 5.78618H131.402C131.384 5.60505 131.384 5.42249 131.402 5.24136C131.372 5.29555 131.331 5.34278 131.282 5.37987L130.103 3.86548ZM129.462 5.78618V26.646H131.402V5.87852L129.462 5.78618ZM129.462 26.646C129.459 26.9781 129.493 27.3096 129.564 27.6341C129.63 27.9805 129.795 28.3009 130.038 28.5575L131.402 27.2001C131.495 27.2832 131.477 27.3386 131.402 27.2001C131.384 27.0128 131.384 26.8241 131.402 26.6368L129.462 26.646ZM130.103 28.6129C130.355 28.8072 130.652 28.9371 130.966 28.9915C131.272 29.047 131.583 29.0718 131.894 29.0654V27.1447C131.709 27.1632 131.523 27.1632 131.337 27.1447C131.207 27.1447 131.245 27.1447 131.337 27.1447L130.103 28.6129ZM131.904 29.0654H144.24V27.1447H131.866L131.904 29.0654ZM144.24 29.0654C144.551 29.0727 144.862 29.0479 145.168 28.9915C145.485 28.9354 145.784 28.8057 146.041 28.6129L144.797 27.1262C144.88 27.0616 144.918 27.1262 144.797 27.1262C144.612 27.1447 144.425 27.1447 144.24 27.1262V29.0654ZM146.096 28.5482C146.34 28.2917 146.504 27.9713 146.57 27.6248C146.633 27.2993 146.664 26.9684 146.663 26.6368H144.723C144.746 26.8208 144.746 27.0069 144.723 27.1908C144.723 27.3201 144.723 27.2647 144.723 27.1908L146.096 28.5482ZM177.499 4.71502L176.812 5.38911L177.499 4.71502ZM162.805 4.71502L163.417 5.45375L162.805 4.71502ZM162.805 27.985L162.118 28.6591L162.805 27.985ZM177.499 27.985L178.121 28.7237L177.499 27.985ZM180.943 5.37987V27.2739H182.873V5.37064L180.943 5.37987ZM180.943 27.2739C180.98 27.6523 180.94 28.0341 180.827 28.3972C180.714 28.7603 180.529 29.0973 180.284 29.3885C179.991 29.6325 179.652 29.8154 179.287 29.9264C178.922 30.0375 178.538 30.0744 178.158 30.0349V31.9556C178.794 31.9972 179.431 31.9106 180.033 31.7012C180.634 31.4917 181.187 31.1637 181.657 30.7367C182.081 30.267 182.407 29.7181 182.616 29.1221C182.824 28.5261 182.912 27.8947 182.873 27.2647L180.943 27.2739ZM178.158 30.0442H162.099V31.9556H178.158V30.0442ZM162.099 30.0442C161.72 30.0815 161.336 30.0436 160.971 29.9327C160.607 29.8217 160.267 29.6399 159.974 29.3978C159.728 29.1065 159.543 28.7695 159.43 28.4064C159.317 28.0434 159.278 27.6615 159.315 27.2832H157.412C157.369 27.9135 157.455 28.546 157.664 29.1426C157.872 29.7393 158.2 30.2878 158.628 30.7552C159.581 31.5951 160.828 32.0266 162.099 31.9556V30.0442ZM159.315 27.2739V5.37064H157.412V27.2647L159.315 27.2739ZM159.315 5.37064C159.278 4.99229 159.317 4.61045 159.43 4.24739C159.543 3.88433 159.728 3.54732 159.974 3.25603C160.266 3.01211 160.605 2.8292 160.971 2.71817C161.336 2.60713 161.72 2.57022 162.099 2.60964V0.688947C161.464 0.647409 160.826 0.733956 160.225 0.943401C159.623 1.15285 159.071 1.48088 158.6 1.90785C158.181 2.37952 157.86 2.92932 157.656 3.52533C157.452 4.12135 157.369 4.75172 157.412 5.37987L159.315 5.37064ZM162.099 2.60041H178.158V0.688947H162.099V2.60041ZM178.177 2.60041C178.558 2.56234 178.943 2.59986 179.309 2.71082C179.676 2.82177 180.016 3.00395 180.312 3.2468C180.801 3.83813 181.035 4.59872 180.961 5.3614H182.892C182.936 4.7309 182.852 4.098 182.643 3.50114C182.434 2.90428 182.105 2.35593 181.676 1.88938C181.204 1.46462 180.651 1.13798 180.05 0.92867C179.449 0.719356 178.812 0.63158 178.177 0.670482V2.60041ZM178.771 26.7384V5.87852H176.831V26.7476L178.771 26.7384ZM178.771 5.87852C178.779 5.54314 178.745 5.20805 178.669 4.88123C178.596 4.52506 178.411 4.20142 178.139 3.95782L176.905 5.45375C176.858 5.4163 176.82 5.369 176.793 5.31524C176.812 5.49636 176.812 5.67892 176.793 5.86005L178.771 5.87852ZM178.195 4.0317C177.937 3.78978 177.615 3.62636 177.267 3.56075C176.962 3.49649 176.651 3.46553 176.339 3.46842V5.38911C176.512 5.37502 176.685 5.37502 176.858 5.38911C176.97 5.38911 176.923 5.38911 176.858 5.38911L178.195 4.0317ZM176.339 3.46842H163.993V5.38911H176.329L176.339 3.46842ZM164.002 3.46842C163.69 3.46589 163.379 3.49685 163.074 3.56075C162.727 3.63014 162.406 3.79306 162.146 4.0317L163.51 5.38911C163.427 5.47222 163.38 5.46298 163.51 5.38911C163.683 5.37502 163.857 5.37502 164.03 5.38911L164.002 3.46842ZM162.201 3.97629C161.924 4.21638 161.735 4.54113 161.663 4.8997C161.595 5.2276 161.563 5.56214 161.57 5.89698H163.427C163.403 5.71612 163.403 5.53304 163.427 5.35217C163.427 5.35217 163.427 5.29677 163.427 5.35217C163.397 5.40636 163.356 5.45358 163.306 5.49068L162.201 3.97629ZM161.57 5.89698V26.7568H163.427V5.87852L161.57 5.89698ZM161.57 26.7568C161.559 27.0888 161.59 27.4207 161.663 27.7449C161.721 28.0883 161.876 28.4084 162.109 28.6683L163.473 27.3109C163.566 27.394 163.547 27.4494 163.473 27.3109C163.45 27.1238 163.45 26.9347 163.473 26.7476L161.57 26.7568ZM162.201 28.7237C162.456 28.9197 162.756 29.0498 163.074 29.1023C163.38 29.159 163.691 29.1837 164.002 29.1762V27.2555C163.817 27.274 163.631 27.274 163.445 27.2555C163.315 27.2555 163.353 27.2555 163.445 27.2555L162.201 28.7237ZM164.002 29.1762H176.339V27.2555H163.993L164.002 29.1762ZM176.339 29.1762C176.65 29.1835 176.961 29.1587 177.267 29.1023C177.584 29.0462 177.883 28.9165 178.139 28.7237L176.905 27.237C176.988 27.1724 177.026 27.237 176.905 27.237C176.72 27.2555 176.533 27.2555 176.348 27.237L176.339 29.1762ZM178.195 28.6591C178.444 28.4056 178.612 28.0842 178.678 27.7356C178.741 27.4101 178.772 27.0792 178.771 26.7476H176.831C176.838 26.9335 176.823 27.1196 176.784 27.3016C176.784 27.4309 176.784 27.3755 176.831 27.3016L178.195 28.6591ZM209.598 4.70578L208.911 5.37987L209.598 4.70578ZM194.904 4.70578L195.525 5.44451L194.904 4.70578ZM194.904 27.9665L194.217 28.6498L194.904 27.9665ZM209.598 27.9665L210.22 28.7145L209.598 27.9665ZM213.041 5.37064V27.2647H214.963V5.37064H213.041ZM213.041 27.2647C213.113 28.0272 212.88 28.787 212.392 29.3793C212.098 29.6214 211.759 29.8032 211.394 29.9142C211.029 30.0251 210.646 30.063 210.266 30.0257V31.9556C210.9 31.9964 211.536 31.9095 212.136 31.7001C212.736 31.4906 213.287 31.163 213.756 30.7367C214.179 30.2668 214.504 29.7177 214.711 29.1216C214.918 28.5254 215.004 27.8942 214.963 27.2647H213.041ZM210.257 30.0349H194.189V31.9556H210.322L210.257 30.0349ZM194.17 30.0349C193.791 30.0723 193.407 30.0344 193.042 29.9234C192.677 29.8125 192.338 29.6307 192.045 29.3885C191.801 29.0963 191.618 28.7589 191.507 28.396C191.395 28.033 191.357 27.6516 191.395 27.2739H189.455C189.414 27.9049 189.501 28.5376 189.712 29.1342C189.922 29.7308 190.252 30.279 190.68 30.746C191.156 31.1705 191.712 31.4962 192.316 31.7039C192.92 31.9117 193.56 31.9972 194.198 31.9556L194.17 30.0349ZM191.385 27.2647V5.37064H189.445V27.2647H191.385ZM191.385 5.3614C191.348 4.9837 191.386 4.60235 191.498 4.23939C191.609 3.87643 191.792 3.53907 192.035 3.2468C192.329 3.00467 192.668 2.82287 193.033 2.71192C193.398 2.60097 193.781 2.56307 194.161 2.60041V0.688947C193.527 0.64707 192.89 0.733485 192.29 0.942978C191.691 1.15247 191.14 1.4807 190.671 1.90785C190.243 2.37543 189.914 2.92371 189.704 3.52015C189.493 4.11658 189.405 4.74901 189.445 5.37987L191.385 5.3614ZM194.17 2.59117H210.322V0.688947H194.189L194.17 2.59117ZM210.257 2.59117C210.636 2.55383 211.02 2.59174 211.385 2.70269C211.749 2.81364 212.089 2.99543 212.382 3.23756C212.627 3.5293 212.81 3.8666 212.922 4.2297C213.033 4.59281 213.071 4.97442 213.032 5.35217H214.963C215.006 4.72107 214.919 4.08793 214.708 3.49111C214.498 2.8943 214.167 2.34624 213.738 1.88015C212.801 1.05126 211.574 0.623236 210.322 0.688947L210.257 2.59117ZM210.841 26.7291V5.87852H208.883V26.7476L210.841 26.7291ZM210.841 5.86928C210.848 5.53444 210.817 5.1999 210.749 4.872C210.673 4.51488 210.484 4.19128 210.21 3.94859L208.966 5.42604C208.92 5.3886 208.881 5.3413 208.855 5.28754C208.885 5.46767 208.9 5.64982 208.901 5.83234L210.841 5.86928ZM210.275 4.02246C210.015 3.78342 209.694 3.62045 209.347 3.55152C209.042 3.48658 208.731 3.45562 208.419 3.45918V5.37987C208.592 5.3666 208.766 5.3666 208.939 5.37987C209.041 5.37987 208.994 5.37987 208.939 5.37987L210.275 4.02246ZM208.419 3.45918H196.101V5.37987H208.465L208.419 3.45918ZM196.082 3.45918C195.755 3.45235 195.428 3.48334 195.108 3.55152C194.761 3.62268 194.441 3.78536 194.18 4.02246L195.544 5.37987C195.47 5.46298 195.423 5.45375 195.544 5.37987C195.717 5.36618 195.891 5.36618 196.064 5.37987L196.082 3.45918ZM194.226 3.96706C193.952 4.20807 193.766 4.53287 193.697 4.89047C193.621 5.21729 193.586 5.55237 193.595 5.88775H195.525C195.507 5.70662 195.507 5.52406 195.525 5.34294C195.499 5.39671 195.461 5.444 195.414 5.48145L194.226 3.96706ZM193.595 5.88775V26.7476H195.525V5.87852L193.595 5.88775ZM193.595 26.7476C193.588 27.0794 193.619 27.4108 193.688 27.7356C193.755 28.0797 193.916 28.3989 194.152 28.6591L195.525 27.3016C195.609 27.3847 195.59 27.4402 195.525 27.3016C195.507 27.1143 195.507 26.9257 195.525 26.7384L193.595 26.7476ZM194.226 28.7145C194.482 28.9088 194.781 29.0387 195.098 29.0931C195.404 29.1495 195.716 29.1742 196.027 29.1669V27.2462C195.842 27.2653 195.655 27.2653 195.47 27.2462C195.34 27.2462 195.377 27.2462 195.47 27.2462L194.226 28.7145ZM196.082 29.1669H208.465V27.2462H196.101L196.082 29.1669ZM208.465 29.1854C208.776 29.193 209.087 29.1682 209.393 29.1115C209.711 29.0572 210.01 28.9273 210.266 28.7329L209.022 27.2462C209.115 27.1816 209.143 27.2462 209.022 27.2462C208.837 27.2648 208.65 27.2648 208.465 27.2462V29.1854ZM210.322 28.6683C210.568 28.4139 210.733 28.0925 210.795 27.7449C210.863 27.42 210.894 27.0886 210.888 26.7568H208.929C208.937 26.9427 208.921 27.1288 208.883 27.3109C208.883 27.4402 208.883 27.3847 208.929 27.3109L210.322 28.6683Z" fill="url(#paint0_linear)"/>
<path d="M117.692 1.64062V31.0328H113.515V4.42009H107.537V1.64986L117.692 1.64062ZM149.819 5.33427V27.2283C149.819 29.6908 148.581 30.922 146.106 30.922H130.019C127.513 30.922 126.275 29.6908 126.306 27.2283V5.37121C126.306 2.90878 127.544 1.67756 130.019 1.67756H146.106C148.581 1.67756 149.819 2.90878 149.819 5.37121V5.33427ZM145.697 26.702V5.87909C145.697 5.25117 145.595 4.86333 145.409 4.70635C145.057 4.48023 144.639 4.37934 144.221 4.42009H131.885C131.467 4.36817 131.045 4.46997 130.697 4.70635C130.461 5.04958 130.362 5.46737 130.418 5.87909V26.7482C130.366 27.1743 130.464 27.6053 130.697 27.9671C130.892 28.1795 131.282 28.2072 131.885 28.2072H144.221C144.633 28.2504 145.048 28.1666 145.409 27.9671C145.652 27.6095 145.754 27.1758 145.697 26.7482V26.702ZM181.899 5.32504V27.2191C181.899 29.6816 180.661 30.9128 178.186 30.9128H162.127C159.652 30.9128 158.414 29.6816 158.414 27.2191V5.37121C158.414 2.90878 159.652 1.67756 162.127 1.67756H178.186C180.673 1.64678 181.917 2.878 181.917 5.37121L181.899 5.32504ZM177.833 26.7482V5.87909C177.833 5.25117 177.74 4.86333 177.555 4.70635C177.202 4.48023 176.784 4.37934 176.366 4.42009H163.984C163.569 4.36698 163.149 4.46899 162.805 4.70635C162.561 5.04601 162.458 5.46592 162.517 5.87909V26.7482C162.467 27.1754 162.569 27.6065 162.805 27.9671C162.99 28.1795 163.39 28.2072 163.984 28.2072H176.32C176.731 28.2504 177.146 28.1666 177.508 27.9671C177.747 27.6079 177.846 27.1746 177.787 26.7482H177.833ZM214.035 5.37121V27.2653C214.035 29.7277 212.781 30.9589 210.275 30.9589H194.189C191.713 30.9589 190.476 29.7277 190.476 27.2653V5.37121C190.476 2.90878 191.713 1.67756 194.189 1.67756H210.322C212.797 1.67756 214.035 2.90878 214.035 5.37121ZM209.904 26.7482V5.87909C209.904 5.25117 209.811 4.86333 209.616 4.70635C209.274 4.48826 208.87 4.3877 208.465 4.42009H196.082C195.664 4.36817 195.242 4.46997 194.894 4.70635C194.655 5.04795 194.552 5.46616 194.606 5.87909V26.7482C194.557 27.1754 194.659 27.6065 194.894 27.9671C195.089 28.1795 195.479 28.2072 196.082 28.2072H208.465C208.874 28.2522 209.286 28.1682 209.644 27.9671C209.839 27.8101 209.932 27.3761 209.932 26.7482H209.904Z" fill="white"/>
<defs>
<linearGradient id="paint0_linear" x1="137.733" y1="-25.7206" x2="190.687" y2="63.7792" gradientUnits="userSpaceOnUse">
<stop stop-color="#E07504"/>
<stop offset="0.49" stop-color="#FBDF15"/>
<stop offset="1" stop-color="#F18F28"/>
</linearGradient>
</defs>
</svg>
