<svg width="74" height="72" viewBox="0 0 74 72" fill="none" xmlns="http://www.w3.org/2000/svg">
<path d="M35.5775 16.2422V18.6246L37.1556 22.9369H32.1709V19.2987C32.178 18.857 32.3144 18.4271 32.5633 18.0613C32.8122 17.6956 33.163 17.41 33.5725 17.2395L35.5775 16.2422Z" fill="url(#paint0_linear)"/>
<path d="M39.0023 16.2422V18.6246L37.4243 22.9369H42.3811V19.2987C42.3709 18.8566 42.2323 18.4269 41.9819 18.0614C41.7315 17.696 41.3801 17.4105 40.9702 17.2395L39.0023 16.2422Z" fill="url(#paint1_linear)"/>
<path d="M36.7373 17.2422H38.009L37.5542 17.9994L38.009 18.8489L37.3778 22.4502L36.7373 18.8489L37.155 18.0363L36.7373 17.2422Z" fill="url(#paint2_linear)"/>
<path d="M34.8254 13.2534C34.8254 13.2534 35.0018 16.1437 37.2574 16.4392C37.2574 16.4392 39.3553 16.4392 39.8101 13.2534C39.8101 13.2534 39.1882 13.3365 39.2439 11.9791C39.2439 11.6652 39.1511 11.619 38.789 11.4805C38.789 11.4805 37.0068 12.6624 35.763 11.4805C35.6308 11.4994 35.5061 11.5531 35.4017 11.6358C35.2973 11.7186 35.217 11.8275 35.1689 11.9514C35.1689 11.9514 35.4659 12.9395 34.8254 13.2534Z" fill="url(#paint3_linear)"/>
<path d="M37.3873 28.3049C43.3392 28.3049 48.1642 23.505 48.1642 17.5841C48.1642 11.6631 43.3392 6.86328 37.3873 6.86328C31.4353 6.86328 26.6104 11.6631 26.6104 17.5841C26.6104 23.505 31.4353 28.3049 37.3873 28.3049Z" stroke="#F31D42" stroke-width="2"/>
<path d="M35.0945 49.6007C35.0945 49.6007 35.2616 52.2878 37.3594 52.5649C37.3594 52.5649 39.3087 52.5649 39.7264 49.6007C39.7264 49.6007 39.1509 49.6838 39.1973 48.4187C39.1973 48.1232 39.1138 48.0863 38.7796 47.957C38.7796 47.957 37.1273 49.0559 35.9949 47.957C35.8725 47.9765 35.7574 48.0278 35.6613 48.1056C35.5652 48.1834 35.4913 48.285 35.4472 48.4003C35.4472 48.4003 35.6978 49.296 35.0945 49.6007Z" fill="url(#paint4_linear)"/>
<path d="M41.602 54.2139C41.602 54.2139 40.8594 52.6718 39.4948 52.7918C39.1217 53.3057 38.6989 53.782 38.2324 54.2139H41.602Z" fill="url(#paint5_linear)"/>
<path d="M36.4311 54.2619H32.9966C33.1722 53.8477 33.4647 53.493 33.8386 53.2407C34.2125 52.9883 34.6519 52.8491 35.1037 52.8398" fill="url(#paint6_linear)"/>
<path d="M37.2572 54.3922C37.2572 54.3922 37.0344 53.5703 36.7002 53.4688H37.9997C37.768 53.7319 37.6082 54.0499 37.5356 54.3922H37.2572Z" fill="url(#paint7_linear)"/>
<path d="M32.0872 54.3984H43.3468C43.3468 54.3984 43.9131 54.3984 43.6346 55.3218L42.1773 60.8069H33.1826L31.7252 55.1372C31.7252 55.1372 31.4003 54.3984 32.0872 54.3984Z" fill="url(#paint8_linear)"/>
<path d="M37.3873 65.0666C43.3392 65.0666 48.1642 60.2667 48.1642 54.3458C48.1642 48.4249 43.3392 43.625 37.3873 43.625C31.4353 43.625 26.6104 48.4249 26.6104 54.3458C26.6104 60.2667 31.4353 65.0666 37.3873 65.0666Z" stroke="white" stroke-width="2"/>
<path d="M29.2174 0.761141C34.078 -0.241021 39.0924 -0.253684 43.9581 0.723915C48.8238 1.70151 53.4402 3.64913 57.5288 6.44936C61.5833 9.29456 65.0167 12.9271 67.6218 17.1279C70.227 21.3287 71.95 26.0109 72.6871 30.8921C73.3699 35.7798 73.0499 40.7544 71.7465 45.5157C70.4431 50.277 68.1832 54.7261 65.1033 58.5944C63.3953 60.709 54.6327 71.5222 40.9689 71.4575C38.3235 71.4575 27.4444 71.005 21.8285 62.8883C21.086 61.8171 18.1156 57.5325 18.886 52.2136C19.9164 45.0757 28.7811 39.8122 28.7811 39.8122C28.7811 39.8122 29.0874 39.3151 35.0321 36.6105C40.9768 33.906 42.3847 33.2975 43.5866 32.5911C45.8237 31.2522 53.361 26.7182 54.2707 20.0697C54.6029 17.641 54.3937 15.1694 53.6581 12.8301C52.7804 10.3482 51.2898 8.12545 49.3232 6.36625C47.8522 5.00051 46.1729 3.87537 44.3478 3.03273C40.8462 1.37513 37.0123 0.529002 33.1346 0.55799C31.1574 0.55799 29.2359 0.835014 29.2359 0.770375C30.1967 0.561113 31.1704 0.41612 32.1506 0.336372C33.0789 0.234797 34.2485 0.0870509 35.2324 0.0778168C37.3026 0.0645354 39.3655 0.322223 41.3681 0.844248C45.4004 1.88214 49.0758 3.98467 52.0058 6.92953C55.4867 10.4754 56.944 16.8193 55.9694 21.6302C55.2175 25.3701 52.8041 28.4819 49.9451 30.9105C46.7417 33.4999 43.1969 35.6406 39.4095 37.2728C34.9911 39.2859 30.3777 41.0496 26.5347 44.0691C25.5967 44.8025 24.7212 45.6117 23.9171 46.4885C20.102 50.7454 19.9535 56.5167 22.9889 61.2076C24.6487 63.612 26.8632 65.5859 29.4471 66.9643C32.031 68.3427 34.9091 69.0855 37.8408 69.1305C42.8561 69.2909 47.8215 68.0975 52.21 65.677C54.8912 64.2514 57.3854 62.5021 59.636 60.4689C61.9873 58.3305 64.0414 55.8897 65.7438 53.2109C67.0856 51.0626 68.1491 48.7543 68.9091 46.3407C70.5194 41.5307 71.0628 36.4308 70.5019 31.3918C69.9411 26.3529 68.2893 21.4947 65.6603 17.1517C60.787 9.28423 52.4885 3.90074 43.5588 1.68455C38.8789 0.484108 34.0137 0.170848 29.2174 0.761141Z" fill="#E51B30"/>
<path d="M44.0697 71.0673C39.2103 72.0721 34.1966 72.0878 29.331 71.1134C24.4653 70.139 19.8483 68.1946 15.7582 65.3976C11.6996 62.5482 8.26382 58.9099 5.65847 54.7024C3.05312 50.4949 1.3323 45.8056 0.600005 40.9179C-0.0822881 36.0303 0.237947 31.0557 1.54137 26.2945C2.84478 21.5333 5.10437 17.0842 8.18377 13.2156C11.1136 9.54914 14.7656 6.5169 18.9158 4.30495C23.0659 2.093 27.6267 0.748004 32.3181 0.352494C38.0547 -0.044573 44.0511 1.1928 48.5903 4.70176C53.1294 8.21072 55.9234 14.176 54.7538 19.7718C53.6213 25.1184 49.2493 29.246 44.4967 32.007C39.7441 34.768 34.4624 36.4856 29.6448 39.2189C24.8272 41.9522 20.4644 46.0059 19.2484 51.3432C18.6193 54.129 18.9056 57.0422 20.0653 59.6539C22.4973 65.1021 27.7047 67.3829 30.276 68.4818C37.015 71.3259 43.9862 70.7256 43.9676 71.1227C43.9676 71.1227 43.9119 71.2243 42.4917 71.409C40.9954 71.6424 39.4853 71.7782 37.9711 71.8153C35.9021 71.8096 33.8416 71.5523 31.8354 71.0488C27.8014 70.0152 24.1249 67.9121 21.1978 64.9636C17.7168 61.4177 16.2595 55.0831 17.2249 50.2629C17.986 46.5692 20.3995 43.4111 23.2492 41.0287C26.4575 38.4441 30.0051 36.3067 33.794 34.6757C38.2125 32.6534 42.8166 30.8897 46.6688 27.8701C47.6617 27.1135 48.5843 26.2698 49.4257 25.3492C53.2408 21.1015 53.3986 15.3302 50.3539 10.6301C47.0958 5.66211 41.4521 2.95651 35.502 2.70719C30.486 2.53575 25.5171 3.71965 21.1235 6.13305C18.4272 7.55727 15.9175 9.30645 13.6511 11.3411C11.3011 13.4782 9.24998 15.9193 7.55256 18.5991C6.20621 20.7449 5.1424 23.0539 4.38724 25.4693C2.77974 30.2806 2.23942 35.3813 2.80348 40.4202C3.36754 45.4591 5.02258 50.3166 7.65467 54.6583C12.528 62.5258 20.8265 67.9092 29.7562 70.1624C34.4275 71.3577 39.2838 71.6648 44.0697 71.0673Z" fill="white"/>
<defs>
<linearGradient id="paint0_linear" x1="31.7532" y1="18.0244" x2="37.5795" y2="22.3565" gradientUnits="userSpaceOnUse">
<stop stop-color="#E07504"/>
<stop offset="0.49" stop-color="#FBDF15"/>
<stop offset="1" stop-color="white"/>
</linearGradient>
<linearGradient id="paint1_linear" x1="37.0089" y1="18.0244" x2="42.8258" y2="22.3253" gradientUnits="userSpaceOnUse">
<stop stop-color="#E07504"/>
<stop offset="0.49" stop-color="#FBDF15"/>
<stop offset="1" stop-color="white"/>
</linearGradient>
<linearGradient id="paint2_linear" x1="36.6307" y1="18.6286" x2="38.8094" y2="19.1599" gradientUnits="userSpaceOnUse">
<stop stop-color="#E07504"/>
<stop offset="0.49" stop-color="#FBDF15"/>
<stop offset="1" stop-color="white"/>
</linearGradient>
<linearGradient id="paint3_linear" x1="34.4077" y1="12.8005" x2="38.914" y2="17.3242" gradientUnits="userSpaceOnUse">
<stop stop-color="#E07504"/>
<stop offset="0.49" stop-color="#FBDF15"/>
<stop offset="1" stop-color="white"/>
</linearGradient>
<linearGradient id="paint4_linear" x1="34.7063" y1="49.1837" x2="38.8938" y2="53.3873" gradientUnits="userSpaceOnUse">
<stop stop-color="#E07504"/>
<stop offset="0.49" stop-color="#FBDF15"/>
<stop offset="1" stop-color="white"/>
</linearGradient>
<linearGradient id="paint5_linear" x1="37.9501" y1="53.1655" x2="38.8842" y2="55.3656" gradientUnits="userSpaceOnUse">
<stop stop-color="#E07504"/>
<stop offset="0.49" stop-color="#FBDF15"/>
<stop offset="1" stop-color="white"/>
</linearGradient>
<linearGradient id="paint6_linear" x1="32.7088" y1="53.2184" x2="33.6232" y2="55.4239" gradientUnits="userSpaceOnUse">
<stop stop-color="#E07504"/>
<stop offset="0.49" stop-color="#FBDF15"/>
<stop offset="1" stop-color="white"/>
</linearGradient>
<linearGradient id="paint7_linear" x1="36.5913" y1="53.7146" x2="37.3841" y2="54.8288" gradientUnits="userSpaceOnUse">
<stop stop-color="#E07504"/>
<stop offset="0.49" stop-color="#FBDF15"/>
<stop offset="1" stop-color="white"/>
</linearGradient>
<linearGradient id="paint8_linear" x1="30.6376" y1="56.1044" x2="35.467" y2="65.183" gradientUnits="userSpaceOnUse">
<stop stop-color="#E07504"/>
<stop offset="0.49" stop-color="#FBDF15"/>
<stop offset="1" stop-color="white"/>
</linearGradient>
</defs>
</svg>
