<svg width="109" height="109" viewBox="0 0 109 109" fill="none" xmlns="http://www.w3.org/2000/svg">
<path d="M65.6202 107.45C58.343 108.969 50.8349 108.993 43.5484 107.52C36.2618 106.046 29.3477 103.107 23.2227 98.878C17.1447 94.5701 11.9995 89.0694 8.09792 82.7082C4.19631 76.3469 1.61932 69.2573 0.522683 61.8677C-0.499076 54.4781 -0.0195121 46.9571 1.9324 39.7588C3.88432 32.5604 7.26814 25.8338 11.8797 19.9849C16.2672 14.4417 21.7362 9.85727 27.9512 6.51306C34.1662 3.16884 40.9961 1.13537 48.0218 0.5374C56.6125 -0.0629193 65.5924 1.80784 72.3899 7.11299C79.1873 12.4181 83.3715 21.4369 81.62 29.8972C79.9241 37.9806 73.3768 44.2211 66.2596 48.3954C59.1424 52.5697 51.2328 55.1664 44.0183 59.2989C36.8038 63.4313 30.2704 69.5601 28.4494 77.6295C27.5072 81.8413 27.936 86.2456 29.6727 90.1944C33.3147 98.4313 41.113 101.88 44.9636 103.541C55.0555 107.841 65.4951 106.933 65.4673 107.534C65.4673 107.534 65.3839 107.687 63.257 107.967C61.0162 108.32 58.7548 108.525 56.4873 108.581C53.3889 108.572 50.3032 108.183 47.2989 107.422C41.2578 105.859 35.752 102.68 31.3686 98.2219C26.1558 92.8609 23.9733 83.2837 25.419 75.9961C26.5589 70.4118 30.1731 65.6371 34.4407 62.0352C39.2452 58.1275 44.5579 54.896 50.232 52.4301C56.8488 49.3727 63.7436 46.7061 69.5124 42.1409C70.9993 40.997 72.381 39.7215 73.6409 38.3296C79.3542 31.9076 79.5905 23.182 75.031 16.0759C70.1518 8.56492 61.7001 4.47438 52.7897 4.09743C45.2781 3.83823 37.837 5.62816 31.2574 9.27693C27.2196 11.4302 23.4612 14.0747 20.0672 17.1509C16.548 20.382 13.4763 24.0727 10.9344 28.1242C8.91818 31.3684 7.32509 34.8593 6.19421 38.5111C3.78692 45.7852 2.97777 53.4969 3.82247 61.1152C4.66717 68.7335 7.14566 76.0774 11.0873 82.6415C18.3852 94.5362 30.8125 102.675 44.1851 106.082C51.1807 107.889 58.4531 108.353 65.6202 107.45Z" fill="white"/>
<path d="M43.3788 1.15076C50.6578 -0.364395 58.167 -0.383541 65.4535 1.09448C72.7401 2.57249 79.6533 5.51706 85.7763 9.75068C91.848 14.0523 96.9895 19.5442 100.891 25.8954C104.792 32.2466 107.373 39.3254 108.476 46.7052C109.499 54.0948 109.02 61.616 107.068 68.8145C105.116 76.0129 101.732 82.7395 97.1193 88.5879C94.5616 91.785 81.4392 108.133 60.9772 108.035C57.0155 108.035 40.7237 107.351 32.3138 95.0798C31.2017 93.4603 26.7534 86.9824 27.9072 78.941C29.4502 68.1492 42.7254 60.1915 42.7254 60.1915C42.7254 60.1915 43.1842 59.4399 52.0866 55.3509C60.989 51.2619 63.0973 50.342 64.8972 49.274C68.2473 47.2497 79.5348 40.3949 80.8971 30.343C81.3945 26.6712 81.0813 22.9343 79.9796 19.3977C78.6653 15.6452 76.4331 12.2847 73.4879 9.62503C71.2851 7.56019 68.7703 5.85912 66.0371 4.58514C60.7933 2.07904 55.052 0.79979 49.2449 0.843617C46.2841 0.843617 43.4066 1.26244 43.4066 1.16472C44.8453 0.848338 46.3035 0.629125 47.7714 0.508555C49.1615 0.354985 50.913 0.131611 52.3865 0.11765C55.4867 0.0975701 58.576 0.487164 61.5749 1.27641C67.6134 2.84559 73.1175 6.02437 77.5053 10.4766C82.7181 15.8376 84.9005 25.4288 83.4409 32.7024C82.315 38.3566 78.7007 43.0614 74.4193 46.7331C69.6222 50.648 64.3137 53.8844 58.6419 56.3522C52.0251 59.3957 45.1164 62.0622 39.3615 66.6274C37.9567 67.7362 36.6456 68.9596 35.4414 70.2852C29.7282 76.7212 29.5058 85.4467 34.0514 92.5389C36.537 96.174 39.8533 99.1583 43.7228 101.242C47.5923 103.326 51.9024 104.449 56.2926 104.517C63.8033 104.76 71.2391 102.956 77.8111 99.296C81.8263 97.1406 85.5614 94.496 88.9317 91.422C92.4529 88.189 95.529 84.4987 98.0785 80.4487C100.088 77.2008 101.681 73.7108 102.819 70.0618C105.23 62.7897 106.044 55.0791 105.204 47.4608C104.364 39.8426 101.89 32.4976 97.9534 25.9314C90.6554 14.0367 78.2281 5.89747 64.8555 2.54685C57.8473 0.731915 50.5615 0.258303 43.3788 1.15076Z" fill="#E51B30"/>
<path d="M52.1807 74.9811C52.1807 74.9811 52.4309 79.0438 55.5725 79.4626C55.5725 79.4626 58.4916 79.4626 59.1172 74.9811C59.1172 74.9811 58.2553 75.1068 58.3248 73.1941C58.3248 72.7474 58.1997 72.6915 57.6993 72.4961C57.6993 72.4961 55.2249 74.1574 53.529 72.4961C53.3458 72.5256 53.1735 72.6031 53.0295 72.7207C52.8855 72.8383 52.7749 72.992 52.7089 73.1662C52.7089 73.1662 53.0842 74.5204 52.1807 74.9811Z" fill="url(#paint0_linear)"/>
<path d="M61.9239 81.9647C61.9239 81.9647 60.8119 79.6333 58.7684 79.8148C58.2096 80.5917 57.5764 81.3117 56.8779 81.9647H61.9239Z" fill="url(#paint1_linear)"/>
<path d="M54.1824 82.0367H49.0391C49.3021 81.4105 49.74 80.8743 50.3 80.4927C50.86 80.1112 51.518 79.9007 52.1946 79.8867" fill="url(#paint2_linear)"/>
<path d="M55.419 82.2281C55.419 82.2281 55.0854 80.9856 54.585 80.832H56.5311C56.1841 81.2299 55.9447 81.7106 55.836 82.2281H55.419Z" fill="url(#paint3_linear)"/>
<path d="M47.6766 82.2422H64.5383C64.5383 82.2422 65.3863 82.2422 64.9692 83.6383L62.7868 91.931H49.3169L47.1345 83.3591C47.1345 83.3591 46.648 82.2422 47.6766 82.2422Z" fill="url(#paint4_linear)"/>
<path d="M55.6134 98.3704C64.5267 98.3704 71.7523 91.1135 71.7523 82.1617C71.7523 73.21 64.5267 65.9531 55.6134 65.9531C46.7002 65.9531 39.4746 73.21 39.4746 82.1617C39.4746 91.1135 46.7002 98.3704 55.6134 98.3704Z" stroke="white" stroke-width="2"/>
<path d="M52.9024 24.5547V28.1566L55.2655 34.6763H47.8008V29.1758C47.8114 28.5081 48.0156 27.8579 48.3884 27.305C48.7612 26.7521 49.2864 26.3203 49.8998 26.0625L52.9024 24.5547Z" fill="url(#paint5_linear)"/>
<path d="M58.0321 24.5547V28.1566L55.6689 34.6763H63.092V29.1758C63.0767 28.5073 62.869 27.8576 62.4941 27.3052C62.1191 26.7527 61.593 26.3211 60.9791 26.0625L58.0321 24.5547Z" fill="url(#paint6_linear)"/>
<path d="M54.6396 26.0625H56.5441L55.8629 27.2073L56.5441 28.4917L55.5988 33.9364L54.6396 28.4917L55.2652 27.2631L54.6396 26.0625Z" fill="url(#paint7_linear)"/>
<path d="M51.7764 20.0282C51.7764 20.0282 52.0405 24.3979 55.4184 24.8447C55.4184 24.8447 58.56 24.8447 59.2411 20.0282C59.2411 20.0282 58.3098 20.1538 58.3932 18.1015C58.3932 17.6269 58.2541 17.5571 57.712 17.3477C57.712 17.3477 55.0431 19.1347 53.1803 17.3477C52.9825 17.3763 52.7958 17.4574 52.6394 17.5825C52.483 17.7077 52.3627 17.8723 52.2907 18.0597C52.2907 18.0597 52.7355 19.5535 51.7764 20.0282Z" fill="url(#paint8_linear)"/>
<path d="M55.6134 42.7883C64.5267 42.7883 71.7523 35.5315 71.7523 26.5797C71.7523 17.6279 64.5267 10.3711 55.6134 10.3711C46.7002 10.3711 39.4746 17.6279 39.4746 26.5797C39.4746 35.5315 46.7002 42.7883 55.6134 42.7883Z" stroke="#F31D42" stroke-width="2"/>
<defs>
<linearGradient id="paint0_linear" x1="51.5994" y1="74.3506" x2="57.9302" y2="80.6456" gradientUnits="userSpaceOnUse">
<stop stop-color="#E07504"/>
<stop offset="0.49" stop-color="#FBDF15"/>
<stop offset="1" stop-color="white"/>
</linearGradient>
<linearGradient id="paint1_linear" x1="56.4551" y1="80.3797" x2="57.8768" y2="83.6963" gradientUnits="userSpaceOnUse">
<stop stop-color="#E07504"/>
<stop offset="0.49" stop-color="#FBDF15"/>
<stop offset="1" stop-color="white"/>
</linearGradient>
<linearGradient id="paint2_linear" x1="48.6081" y1="80.4591" x2="49.9999" y2="83.7841" gradientUnits="userSpaceOnUse">
<stop stop-color="#E07504"/>
<stop offset="0.49" stop-color="#FBDF15"/>
<stop offset="1" stop-color="white"/>
</linearGradient>
<linearGradient id="paint3_linear" x1="54.4219" y1="81.2037" x2="55.6242" y2="82.8774" gradientUnits="userSpaceOnUse">
<stop stop-color="#E07504"/>
<stop offset="0.49" stop-color="#FBDF15"/>
<stop offset="1" stop-color="white"/>
</linearGradient>
<linearGradient id="paint4_linear" x1="45.5057" y1="84.8214" x2="52.8461" y2="98.4891" gradientUnits="userSpaceOnUse">
<stop stop-color="#E07504"/>
<stop offset="0.49" stop-color="#FBDF15"/>
<stop offset="1" stop-color="white"/>
</linearGradient>
<linearGradient id="paint5_linear" x1="47.1752" y1="27.2491" x2="55.9594" y2="33.7187" gradientUnits="userSpaceOnUse">
<stop stop-color="#E07504"/>
<stop offset="0.49" stop-color="#FBDF15"/>
<stop offset="1" stop-color="white"/>
</linearGradient>
<linearGradient id="paint6_linear" x1="55.0469" y1="27.2491" x2="63.8164" y2="33.6718" gradientUnits="userSpaceOnUse">
<stop stop-color="#E07504"/>
<stop offset="0.49" stop-color="#FBDF15"/>
<stop offset="1" stop-color="white"/>
</linearGradient>
<linearGradient id="paint7_linear" x1="54.4801" y1="28.1586" x2="57.7462" y2="28.9475" gradientUnits="userSpaceOnUse">
<stop stop-color="#E07504"/>
<stop offset="0.49" stop-color="#FBDF15"/>
<stop offset="1" stop-color="white"/>
</linearGradient>
<linearGradient id="paint8_linear" x1="51.1508" y1="19.3434" x2="57.9638" y2="26.1178" gradientUnits="userSpaceOnUse">
<stop stop-color="#E07504"/>
<stop offset="0.49" stop-color="#FBDF15"/>
<stop offset="1" stop-color="white"/>
</linearGradient>
</defs>
</svg>
