<svg width="11" height="18" viewBox="0 0 11 18" fill="none" xmlns="http://www.w3.org/2000/svg">
<path d="M9.144 5.226C9.012 5.07 8.79 4.902 8.478 4.722C8.178 4.53 7.824 4.362 7.416 4.218C7.008 4.074 6.576 3.984 6.12 3.948V7.674C6.192 7.698 6.276 7.722 6.372 7.746C7.236 7.95 7.98 8.196 8.604 8.484C9.24 8.76 9.726 9.132 10.062 9.6C10.41 10.068 10.584 10.686 10.584 11.454C10.584 12.282 10.392 12.96 10.008 13.488C9.624 14.016 9.102 14.412 8.442 14.676C7.782 14.94 7.05 15.09 6.246 15.126V17.016H5.148V15.108C3.432 14.964 1.92 14.394 0.612 13.398L1.548 11.67C1.728 11.85 2.004 12.054 2.376 12.282C2.748 12.51 3.18 12.72 3.672 12.912C4.176 13.092 4.71 13.212 5.274 13.272V9.528C5.178 9.504 5.058 9.474 4.914 9.438C4.074 9.222 3.372 8.976 2.808 8.7C2.244 8.424 1.818 8.076 1.53 7.656C1.254 7.236 1.116 6.69 1.116 6.018C1.116 5.238 1.29 4.572 1.638 4.02C1.998 3.468 2.478 3.036 3.078 2.724C3.69 2.412 4.38 2.22 5.148 2.148V0.329999H6.246V2.148C7.014 2.196 7.716 2.352 8.352 2.616C9 2.88 9.57 3.198 10.062 3.57L9.144 5.226ZM3.222 5.694C3.222 6.186 3.39 6.558 3.726 6.81C4.062 7.05 4.578 7.266 5.274 7.458V3.948C4.578 3.996 4.062 4.176 3.726 4.488C3.39 4.788 3.222 5.19 3.222 5.694ZM8.424 11.67C8.424 11.154 8.22 10.764 7.812 10.5C7.416 10.224 6.852 9.978 6.12 9.762V13.308C6.852 13.284 7.416 13.134 7.812 12.858C8.22 12.582 8.424 12.186 8.424 11.67Z" fill="currentColor"/>
</svg>
