<svg width="154" height="24" viewBox="0 0 154 24" fill="none" xmlns="http://www.w3.org/2000/svg">
<path d="M83.7529 1.33594V22.3352H80.7804V3.31514H76.5264V1.33594H83.7529ZM106.615 3.97487V19.6105C106.615 21.3698 105.734 22.2495 103.973 22.2495H92.5253C90.7637 22.2495 89.883 21.3698 89.883 19.6105V3.97487C89.883 2.21998 90.7615 1.33594 92.5253 1.33594H103.973C105.737 1.33594 106.615 2.21998 106.615 3.97487ZM103.709 19.2345V4.36411C103.709 3.91549 103.636 3.63841 103.504 3.52625C103.252 3.36751 102.955 3.29567 102.658 3.32173H93.853C93.5559 3.28879 93.2566 3.36118 93.0075 3.52625C92.8406 3.77173 92.77 4.06999 92.8093 4.36411V19.2741C92.772 19.5785 92.8421 19.8865 93.0075 20.1449C93.1462 20.2967 93.4236 20.3165 93.853 20.3165H102.632C102.925 20.3496 103.221 20.2895 103.477 20.1449C103.649 19.8889 103.722 19.5795 103.682 19.2741L103.709 19.2345ZM129.471 3.97487V19.6171C129.471 21.3764 128.59 22.2561 126.828 22.2561H115.401C113.639 22.2561 112.758 21.3764 112.758 19.6171V3.97487C112.758 2.21998 113.637 1.33594 115.401 1.33594H126.828C128.59 1.33594 129.471 2.21558 129.471 3.97487ZM126.597 19.2807V4.36411C126.597 3.91549 126.531 3.63841 126.399 3.52625C126.135 3.35501 125.82 3.28041 125.507 3.31514H116.695C116.4 3.28147 116.103 3.35399 115.856 3.51965C115.685 3.76317 115.612 4.06243 115.652 4.35752V19.2675C115.616 19.5727 115.689 19.8807 115.856 20.1383C115.989 20.2901 116.273 20.3099 116.695 20.3099H125.507C125.8 20.343 126.096 20.2829 126.353 20.1383C126.525 19.8829 126.596 19.5723 126.551 19.2675L126.597 19.2807ZM152.359 4.00786V19.6501C152.359 21.4094 151.478 22.2891 149.717 22.2891H138.19C136.429 22.2891 135.548 21.4094 135.548 19.6501V3.97487C135.548 2.21998 136.426 1.33594 138.19 1.33594H149.691C151.434 1.33594 152.333 2.23977 152.333 3.97487L152.359 4.00786ZM149.42 19.2807V4.36411C149.42 3.91549 149.354 3.63841 149.215 3.52625C148.972 3.36812 148.685 3.29394 148.396 3.31514H139.538C139.241 3.28219 138.941 3.35458 138.692 3.51965C138.509 3.76085 138.426 4.06338 138.461 4.36411V19.2741C138.426 19.5793 138.498 19.8873 138.666 20.1449C138.804 20.2967 139.082 20.3165 139.511 20.3165H148.369C148.66 20.3495 148.954 20.2895 149.208 20.1449C149.347 20.0328 149.413 19.7227 149.413 19.2741L149.42 19.2807Z" fill="white"/>
<path d="M83.7532 1.33324H84.4137V0.673505H83.7532V1.33324ZM83.7532 22.2996V22.9593H84.4137V22.2996H83.7532ZM80.7806 22.2996H80.1201V22.9593H80.7806V22.2996ZM80.7806 3.31904H81.4412V2.6527H80.7806V3.31904ZM76.5266 3.31904H75.866V3.97877H76.5266V3.31904ZM76.5266 1.33984V0.673505H75.866V1.33324L76.5266 1.33984ZM83.0596 1.33984V22.3325H84.4402V1.33324L83.0596 1.33984ZM83.7201 21.62H80.7476V22.9923H83.7201V21.62ZM81.4346 22.2798V3.31244H80.054V22.3259L81.4346 22.2798ZM80.774 2.60652H76.52V3.97217H80.774V2.60652ZM77.207 3.26626V1.28706H75.833V3.26626H77.207ZM76.5464 1.94679H83.773V0.627324H76.5464V1.94679ZM103.484 3.45098L103.002 3.93918L103.484 3.45098ZM93.0275 3.45098L93.4701 3.97877L93.0275 3.45098ZM93.0275 20.0763L92.5387 20.5579L93.0275 20.0763ZM103.484 20.0763L103.927 20.604L103.484 20.0763ZM105.935 3.92599V19.5419H107.316V3.97217L105.935 3.92599ZM105.935 19.5683C105.962 19.8381 105.935 20.1106 105.855 20.3699C105.776 20.6292 105.646 20.8702 105.473 21.079C105.264 21.2533 105.023 21.384 104.763 21.4633C104.503 21.5427 104.23 21.569 103.96 21.5409V22.9923C104.413 23.0258 104.867 22.9658 105.296 22.816C105.724 22.6662 106.117 22.4297 106.45 22.1214C106.751 21.7852 106.982 21.393 107.131 20.9673C107.279 20.5416 107.342 20.0908 107.316 19.6408L105.935 19.5683ZM103.953 21.5475H92.4792V22.9923H103.927L103.953 21.5475ZM92.5057 21.5475C92.2353 21.5783 91.9614 21.5533 91.7012 21.4738C91.4409 21.3944 91.1998 21.2622 90.993 21.0856C90.8189 20.8771 90.6879 20.6363 90.6074 20.377C90.5269 20.1178 90.4985 19.8451 90.524 19.5749H89.1764C89.1463 20.0252 89.2075 20.477 89.3561 20.9032C89.5048 21.3294 89.738 21.7213 90.0418 22.0555C90.3785 22.358 90.772 22.5908 91.1995 22.7403C91.627 22.8897 92.0799 22.953 92.5321 22.9263L92.5057 21.5475ZM90.524 19.5683V3.97217H89.1764V19.6144L90.524 19.5683ZM90.524 3.91939C90.497 3.64597 90.5245 3.36992 90.605 3.1072C90.6855 2.84448 90.8174 2.6003 90.993 2.38881C91.202 2.21582 91.4434 2.08593 91.703 2.00667C91.9627 1.9274 92.2355 1.90032 92.5057 1.927V0.607532C92.0533 0.57899 91.5999 0.641357 91.1721 0.790938C90.7444 0.94052 90.351 1.17428 90.0153 1.47838C89.7178 1.81828 89.4905 2.21361 89.3465 2.6416C89.2025 3.06958 89.1447 3.52178 89.1764 3.97217L90.524 3.91939ZM92.5057 1.94019H103.953V0.673505H92.4792L92.5057 1.94019ZM103.953 1.94019C104.225 1.88597 104.506 1.8996 104.771 1.97987C105.037 2.06015 105.278 2.20458 105.474 2.40036C105.67 2.59614 105.815 2.83721 105.895 3.10219C105.976 3.36718 105.989 3.64788 105.935 3.91939H107.316C107.346 3.4685 107.284 3.01615 107.134 2.58976C106.984 2.16336 106.749 1.7718 106.444 1.4388C106.107 1.13737 105.715 0.905255 105.289 0.755805C104.862 0.606356 104.411 0.542511 103.96 0.567945L103.953 1.94019ZM104.369 19.1856V4.36141H102.989V19.2714L104.369 19.1856ZM104.369 4.28224C104.375 4.04265 104.351 3.80329 104.297 3.56973C104.242 3.31638 104.111 3.08601 103.92 2.91L103.048 3.97217C103.015 3.94542 102.988 3.91162 102.969 3.87321C102.982 4.00262 102.982 4.13304 102.969 4.26245L104.369 4.28224ZM103.966 2.96278C103.779 2.79596 103.551 2.6801 103.306 2.62631C103.089 2.5812 102.867 2.55909 102.645 2.56034V3.93259C102.769 3.92599 102.892 3.92599 103.015 3.93259L103.966 2.96278ZM102.645 2.56034H93.84V3.93259H102.619L102.645 2.56034ZM93.8664 2.56034C93.6447 2.56237 93.4236 2.58445 93.2059 2.62631C92.9604 2.6801 92.733 2.79596 92.5453 2.96278L93.5163 3.93259C93.4635 3.99196 93.4305 3.98537 93.5163 3.93259C93.6395 3.92599 93.763 3.92599 93.8862 3.93259L93.8664 2.56034ZM92.5849 2.9232C92.3877 3.09473 92.2529 3.32675 92.2018 3.58293C92.1547 3.81755 92.1304 4.05615 92.1291 4.29544H93.5427C93.5295 4.16602 93.5295 4.03561 93.5427 3.9062C93.5215 3.94491 93.4922 3.97865 93.4569 4.00516L92.5849 2.9232ZM92.1291 4.29544V19.1988H93.5427V4.36141L92.1291 4.29544ZM92.1291 19.1988C92.1268 19.4361 92.1512 19.6729 92.2018 19.9047C92.2487 20.1522 92.3656 20.3812 92.5387 20.5645L93.5097 19.5946C93.5758 19.654 93.5626 19.6936 93.5097 19.5946C93.4965 19.4608 93.4965 19.326 93.5097 19.1922L92.1291 19.1988ZM92.5849 20.604C92.763 20.7455 92.9746 20.8387 93.1992 20.8745C93.417 20.9153 93.6384 20.9329 93.8598 20.9273V19.5419C93.728 19.5551 93.5953 19.5551 93.4635 19.5419L92.5849 20.604ZM93.8664 20.9273H102.645V19.5419H93.84L93.8664 20.9273ZM102.645 20.9273C102.867 20.9363 103.089 20.9185 103.306 20.8745C103.531 20.8345 103.744 20.7418 103.927 20.604L103.048 19.5353C103.108 19.4891 103.134 19.5353 103.048 19.5353C102.916 19.5485 102.784 19.5485 102.652 19.5353L102.645 20.9273ZM103.966 20.5579C104.14 20.3746 104.256 20.1456 104.303 19.8981C104.349 19.6656 104.371 19.4291 104.369 19.1922H102.989C103.009 19.3234 103.009 19.4569 102.989 19.588L103.966 20.5579ZM126.313 3.53015L125.825 4.01175L126.313 3.53015ZM115.857 3.53015L116.293 4.05793L115.857 3.53015ZM115.857 20.1554L115.368 20.637L115.857 20.1554ZM126.313 20.1554L126.756 20.6832L126.313 20.1554ZM128.764 3.97217V19.6144H130.131V3.97217H128.764ZM128.764 19.6144C128.789 19.8847 128.761 20.1573 128.681 20.4166C128.6 20.6759 128.469 20.9167 128.295 21.1252C128.088 21.3018 127.847 21.434 127.587 21.5134C127.327 21.5929 127.053 21.6179 126.782 21.587V22.9593C127.235 22.9929 127.69 22.9328 128.118 22.783C128.547 22.6332 128.94 22.3967 129.273 22.0884C129.573 21.7522 129.805 21.36 129.953 20.9343C130.102 20.5086 130.164 20.0578 130.138 19.6078L128.764 19.6144ZM126.782 21.5936H115.341V22.9593H126.769L126.782 21.5936ZM115.355 21.5936C115.084 21.6218 114.811 21.5954 114.551 21.5161C114.291 21.4368 114.05 21.3061 113.842 21.1318C113.668 20.9233 113.537 20.6825 113.456 20.4232C113.376 20.1639 113.347 19.8913 113.373 19.621H112.052C112.022 20.0714 112.083 20.5231 112.231 20.9493C112.38 21.3756 112.613 21.7675 112.917 22.1016C113.595 22.7023 114.483 23.0107 115.388 22.9593L115.355 21.5936ZM113.373 19.6144V3.97217H112.052V19.6144H113.373ZM113.373 3.96557C113.32 3.69432 113.335 3.41432 113.416 3.15013C113.497 2.88593 113.642 2.64561 113.837 2.45024C114.033 2.25487 114.274 2.11042 114.538 2.02954C114.803 1.94867 115.083 1.93384 115.355 1.98637V0.673505C114.903 0.620147 114.446 0.670585 114.017 0.820962C113.588 0.971339 113.2 1.21767 112.881 1.54111C112.562 1.86454 112.322 2.25651 112.178 2.68702C112.034 3.11753 111.991 3.57518 112.052 4.02495L113.373 3.96557ZM115.355 1.98637H126.782V0.673505H115.341L115.355 1.98637ZM126.829 1.99297C127.1 1.93875 127.382 1.95238 127.647 2.03265C127.912 2.11293 128.154 2.25736 128.35 2.45314C128.546 2.64892 128.69 2.88999 128.771 3.15497C128.851 3.41996 128.865 3.70066 128.81 3.97217H130.131C130.165 3.52155 130.106 3.06884 129.957 2.64213C129.808 2.21542 129.573 1.8238 129.266 1.49157C128.596 0.900907 127.722 0.593406 126.829 0.633922V1.99297ZM127.251 19.2384V4.36141H125.838V19.2714L127.251 19.2384ZM127.251 4.34162C127.257 4.10202 127.233 3.86266 127.179 3.62911C127.124 3.37576 126.993 3.14539 126.802 2.96938L125.93 4.03154C125.897 4.00479 125.87 3.971 125.851 3.93259C125.864 4.062 125.864 4.19241 125.851 4.32183L127.251 4.34162ZM126.842 3.02215C126.656 2.85276 126.428 2.73653 126.181 2.68569C125.964 2.64058 125.743 2.61846 125.521 2.61971V3.99196H125.891L126.842 3.02215ZM125.507 2.6527H116.722V4.02495H125.507V2.6527ZM116.722 2.6527C116.5 2.65473 116.279 2.67681 116.061 2.71868C115.816 2.77246 115.589 2.88832 115.401 3.05514L116.372 4.02495C116.312 4.08433 116.279 4.07773 116.372 4.02495H116.742L116.722 2.6527ZM115.44 3.01556C115.243 3.1871 115.108 3.41911 115.057 3.67529C115.009 3.90965 114.987 4.14859 114.991 4.3878H116.312C116.299 4.25839 116.299 4.12797 116.312 3.99856C116.291 4.03728 116.262 4.07102 116.227 4.09752L115.44 3.01556ZM114.991 4.3878V19.2846H116.312V4.37461L114.991 4.3878ZM114.991 19.2912C114.983 19.5283 115.006 19.7655 115.057 19.9971C115.099 20.2425 115.209 20.4712 115.374 20.6568L116.345 19.687C116.411 19.7464 116.398 19.786 116.345 19.687C116.332 19.5532 116.332 19.4184 116.345 19.2846L114.991 19.2912ZM115.44 20.6964C115.619 20.8406 115.834 20.934 116.061 20.9669C116.279 21.0109 116.5 21.0286 116.722 21.0197V19.6474C116.59 19.6607 116.457 19.6607 116.326 19.6474L115.44 20.6964ZM116.722 21.0197H125.507V19.6474H116.722V21.0197ZM125.501 21.0197C125.722 21.0286 125.944 21.0109 126.161 20.9669C126.387 20.9268 126.6 20.8342 126.782 20.6964L125.91 19.6276C125.97 19.5815 125.996 19.6276 125.91 19.6276C125.779 19.6409 125.646 19.6409 125.514 19.6276L125.501 21.0197ZM126.822 20.6502C127.001 20.4701 127.12 20.24 127.165 19.9905C127.211 19.7579 127.233 19.5215 127.232 19.2846H125.851C125.871 19.4158 125.871 19.5492 125.851 19.6804L126.822 20.6502ZM149.169 3.53674L148.68 4.01835L149.169 3.53674ZM138.712 3.53674L139.155 4.06453L138.712 3.53674ZM138.712 20.1554L138.223 20.6436L138.712 20.1554ZM149.169 20.1554L149.611 20.6898L149.169 20.1554ZM151.62 3.97217V19.6144H152.994V3.97217H151.62ZM151.62 19.6144C151.646 19.8843 151.619 20.1567 151.54 20.4161C151.46 20.6754 151.33 20.9164 151.157 21.1252C150.949 21.2995 150.708 21.4302 150.448 21.5095C150.188 21.5888 149.915 21.6152 149.645 21.587V22.9659C150.096 22.9962 150.549 22.9346 150.976 22.7849C151.403 22.6352 151.795 22.4005 152.128 22.095C152.432 21.7592 152.664 21.3661 152.813 20.9389C152.962 20.5117 153.023 20.0591 152.994 19.6078L151.62 19.6144ZM149.638 21.5936H138.19V22.9659H149.691L149.638 21.5936ZM138.19 21.5936C137.92 21.6218 137.647 21.5954 137.387 21.5161C137.127 21.4368 136.886 21.3061 136.678 21.1318C136.504 20.923 136.374 20.682 136.295 20.4227C136.216 20.1633 136.189 19.8909 136.215 19.621H134.835C134.784 20.075 134.836 20.5346 134.988 20.9655C135.14 21.3964 135.387 21.7873 135.712 22.1091C136.037 22.4308 136.43 22.675 136.863 22.8234C137.295 22.9718 137.756 23.0205 138.21 22.9659L138.19 21.5936ZM136.209 19.6144V3.97217H134.828V19.6144H136.209ZM136.209 3.96557C136.154 3.69406 136.168 3.41336 136.248 3.14837C136.329 2.88339 136.473 2.64232 136.669 2.44654C136.865 2.25076 137.107 2.10633 137.372 2.02605C137.637 1.94578 137.918 1.93215 138.19 1.98637V0.673505C137.737 0.623226 137.279 0.675337 136.849 0.825985C136.419 0.976633 136.028 1.22196 135.706 1.54379C135.384 1.86563 135.138 2.25573 134.987 2.68522C134.836 3.11471 134.784 3.57259 134.835 4.02495L136.209 3.96557ZM138.19 1.98637H149.691V0.673505H138.19V1.98637ZM149.638 1.98637C149.91 1.93215 150.191 1.94578 150.456 2.02605C150.721 2.10633 150.963 2.25076 151.159 2.44654C151.355 2.64232 151.499 2.88339 151.58 3.14837C151.66 3.41336 151.674 3.69406 151.62 3.96557H153C153.031 3.51468 152.969 3.06233 152.819 2.63594C152.669 2.20954 152.434 1.81798 152.128 1.48498C151.461 0.893495 150.589 0.585741 149.697 0.627324L149.638 1.98637ZM150.054 19.2318V4.36141H148.66V19.2714L150.054 19.2318ZM150.054 4.32843C150.058 4.08922 150.036 3.85028 149.988 3.61591C149.934 3.36077 149.8 3.12957 149.605 2.95618L148.72 4.01175C148.687 4.00403 148.656 3.99063 148.627 3.97217C148.634 4.10183 148.634 4.23175 148.627 4.36141L150.054 4.32843ZM149.651 3.00896C149.463 2.84214 149.236 2.72628 148.991 2.67249C148.773 2.62738 148.552 2.60527 148.33 2.60652V3.97877H148.7L149.651 3.00896ZM148.33 2.60652H139.551V3.97877H148.37L148.33 2.60652ZM139.551 2.60652C139.329 2.60769 139.108 2.62977 138.891 2.67249C138.645 2.72628 138.418 2.84214 138.23 3.00896L139.201 3.97877C139.148 4.03814 139.115 4.03155 139.201 3.97877H139.571L139.551 2.60652ZM138.23 2.96938C138.032 3.13958 137.899 3.37254 137.853 3.62911C137.806 3.86125 137.788 4.09844 137.801 4.33502H139.122C139.109 4.20561 139.109 4.07519 139.122 3.94578C139.103 3.98419 139.076 4.01799 139.042 4.04474L138.23 2.96938ZM137.801 4.33502V19.2384H139.122V4.36141L137.801 4.33502ZM137.801 19.2384C137.796 19.4754 137.818 19.7122 137.867 19.9443C137.912 20.1911 138.026 20.42 138.197 20.604L139.175 19.6342C139.234 19.6936 139.221 19.7332 139.175 19.6342C139.161 19.5004 139.161 19.3656 139.175 19.2318L137.801 19.2384ZM138.25 20.6436C138.432 20.7825 138.645 20.8753 138.871 20.9141C139.088 20.9581 139.31 20.9758 139.531 20.9669V19.5946C139.4 19.6145 139.266 19.6145 139.135 19.5946L138.25 20.6436ZM139.571 20.9669H148.37V19.5946H139.551L139.571 20.9669ZM148.383 20.9669C148.604 20.9758 148.826 20.9581 149.043 20.9141C149.269 20.8753 149.482 20.7825 149.664 20.6436L148.779 19.5815C148.845 19.5353 148.865 19.5815 148.779 19.5815C148.647 19.5947 148.515 19.5947 148.383 19.5815V20.9669ZM149.704 20.5974C149.883 20.4185 150.001 20.1876 150.041 19.9377C150.089 19.7056 150.111 19.4688 150.107 19.2318H148.713C148.729 19.3632 148.729 19.4962 148.713 19.6276C148.713 19.72 148.713 19.6804 148.713 19.6276L149.704 20.5974Z" fill="url(#paint0_linear)"/>
<path d="M0.660645 1.33594H3.63319V22.3352H0.660645V1.33594ZM26.0924 1.33594V3.31514H18.3638V22.3352H15.4243V3.31514H7.66924V1.33594H26.0924ZM45.8565 3.97487V19.6105C45.8565 21.3698 44.9757 22.2495 43.2142 22.2495H32.1432C30.3817 22.2495 29.5009 21.3698 29.5009 19.6105V3.97487C29.5009 2.21998 30.3927 1.33594 32.1432 1.33594H43.1812C44.9647 1.33594 45.8235 2.21998 45.8235 3.97487H45.8565ZM42.9368 19.2411V4.36411C42.9368 3.91549 42.8641 3.63841 42.732 3.52625C42.4865 3.36938 42.1971 3.29538 41.9063 3.31514H33.4643C33.1584 3.27574 32.8487 3.3484 32.5923 3.51965C32.4536 3.6516 32.4206 3.9089 32.4206 4.35752V19.2675C32.3867 19.5685 32.4467 19.8726 32.5923 20.1383C32.698 20.2901 33.0151 20.3099 33.4643 20.3099H41.9063C42.1994 20.3488 42.4972 20.2884 42.7518 20.1383C42.9195 19.8807 42.992 19.5727 42.9566 19.2675L42.9368 19.2411ZM66.4397 12.4326V4.36411C66.4397 3.91549 66.367 3.63841 66.2349 3.52625C65.9857 3.36661 65.6912 3.29249 65.396 3.31514H55.2299V13.4618H65.396C65.6925 13.5002 65.993 13.4299 66.2415 13.2639C66.4132 13.0226 66.4908 12.727 66.4595 12.4326H66.4397ZM52.2574 1.33594H66.6775C68.4412 1.33594 69.3197 2.21998 69.3197 3.97487V12.7757C69.3197 14.535 68.439 15.4146 66.6775 15.4146H55.2299V22.2891H52.2904L52.2574 1.33594Z" fill="#F31D42"/>
<path d="M0.660565 1.33639V0.676655H0V1.33639H0.660565ZM3.63311 1.33639H4.29367V0.676655H3.63311V1.33639ZM3.63311 22.3027V22.9624H4.29367V22.3027H3.63311ZM0.660565 22.3027H0V22.9624H0.660565V22.3027ZM0.660565 1.99612H3.63311V0.637073H0.660565V1.99612ZM2.93951 1.33639V22.3093H4.36633V1.33639H2.93951ZM3.60008 21.6166H0.660565V22.936H3.63311L3.60008 21.6166ZM1.31452 22.2763V1.33639H0V22.3357L1.31452 22.2763ZM26.0989 1.33639H26.7595V0.676655H26.0989V1.33639ZM26.0989 3.31559V3.97532H26.7595V3.31559H26.0989ZM18.3703 3.31559V2.65585H17.7097V3.31559H18.3703ZM18.3703 22.2961V22.9558H19.0309V22.2961H18.3703ZM15.4308 22.2961H14.7702V22.9558H15.4308V22.2961ZM15.4308 3.31559H16.0914V2.65585H15.4308V3.31559ZM7.70219 3.31559H7.04162V3.97532H7.70219V3.31559ZM7.70219 1.33639V0.676655H7.04162V1.33639H7.70219ZM25.4119 1.33639V3.31559H26.8255V1.33639H25.4119ZM26.0725 2.65585H18.3439V4.0281H26.0725V2.65585ZM17.6503 3.31559V22.3357H19.0243V3.31559H17.6503ZM18.3109 21.61H15.3647V22.9954H18.3042L18.3109 21.61ZM16.0583 22.2697V3.31559H14.6844V22.3291L16.0583 22.2697ZM15.3978 2.59648H7.66916V3.97532H15.3978V2.59648ZM8.34954 3.25621V1.27701H7.02841V3.25621H8.34954ZM7.65595 1.93675H26.0659V0.617282H7.66916L7.65595 1.93675ZM42.7121 3.44094L42.1837 3.88296L42.2233 3.92914L42.2761 3.97532L42.7121 3.44094ZM32.5526 3.44094L33.0415 3.92914L32.5526 3.44094ZM32.5526 20.0662L32.0242 20.5016L32.0638 20.5544L32.1167 20.594L32.5526 20.0662ZM42.7121 20.0662L42.2299 19.578L42.7121 20.0662ZM45.1298 3.90935V19.5384H46.5104V3.97532L45.1298 3.90935ZM45.1298 19.5516C45.1565 19.8215 45.1294 20.0939 45.05 20.3532C44.9706 20.6126 44.8406 20.8536 44.6674 21.0624C44.4605 21.239 44.2194 21.3711 43.9592 21.4506C43.6989 21.53 43.4251 21.5551 43.1547 21.5242V22.9888C43.6074 23.0224 44.0622 22.9624 44.4907 22.8126C44.9192 22.6627 45.3121 22.4263 45.645 22.118C45.9488 21.7838 46.182 21.3919 46.3306 20.9657C46.4793 20.5395 46.5404 20.0877 46.5104 19.6374L45.1298 19.5516ZM43.1481 21.5308H32.1101V22.9888H43.1481V21.5308ZM32.1101 21.5308C31.8397 21.5617 31.5658 21.5366 31.3056 21.4572C31.0453 21.3777 30.8042 21.2456 30.5974 21.069C30.4218 20.8601 30.2899 20.6182 30.2094 20.3576C30.1288 20.097 30.1013 19.823 30.1284 19.5516H28.8072C28.7737 20.0022 28.8331 20.4549 28.982 20.8817C29.1309 21.3084 29.3659 21.7 29.6726 22.0322C30.0083 22.3363 30.4016 22.5701 30.8294 22.7197C31.2571 22.8692 31.7106 22.9316 32.1629 22.9031L32.1101 21.5308ZM30.1284 19.5516V3.97532H28.8072V19.6176L30.1284 19.5516ZM30.1284 3.90935C30.1013 3.63797 30.1288 3.36392 30.2094 3.10334C30.2899 2.84275 30.4218 2.60088 30.5974 2.39196C31.0214 2.04579 31.5647 1.87993 32.1101 1.93015V0.610683C31.6588 0.557326 31.2013 0.607764 30.7726 0.758141C30.3439 0.908517 29.9553 1.15485 29.6366 1.47828C29.3178 1.80172 29.0774 2.19369 28.9336 2.6242C28.7899 3.05471 28.7467 3.51236 28.8072 3.96213L30.1284 3.90935ZM32.1101 1.93015H43.1481V0.610683H32.1101V1.93015ZM43.1481 1.93015C43.694 1.8853 44.2361 2.05316 44.6608 2.39856C44.8339 2.60875 44.9638 2.85094 45.0431 3.1113C45.1225 3.37166 45.1497 3.64509 45.1232 3.91595H46.5038C46.5332 3.46466 46.4718 3.01205 46.3232 2.58485C46.1746 2.15766 45.9417 1.76455 45.6384 1.42875C45.3006 1.1283 44.9067 0.897317 44.4794 0.74902C44.0521 0.600724 43.5997 0.538023 43.1481 0.564502V1.93015ZM43.5973 19.1492V4.36456H42.2233V19.2745L43.5973 19.1492ZM43.5973 4.24581C43.6018 4.00878 43.5797 3.77198 43.5312 3.53989C43.4774 3.28475 43.3431 3.05355 43.1481 2.88016L42.2761 3.97532C42.2408 3.94882 42.2115 3.91508 42.1903 3.87636C42.2095 4.00539 42.2095 4.13657 42.1903 4.2656L43.5973 4.24581ZM43.2406 2.96593C43.0629 2.77622 42.8331 2.64311 42.58 2.58328C42.3476 2.53488 42.1105 2.51275 41.8732 2.51731V3.88956C42.0028 3.87623 42.1334 3.87623 42.2629 3.88956L42.1639 3.80379L43.2406 2.96593ZM41.8666 2.52391H33.4312V3.90935H41.8666V2.52391ZM33.4312 2.52391C33.1918 2.52296 32.9529 2.54505 32.7178 2.58988C32.4724 2.64367 32.2449 2.75953 32.0572 2.92635L33.0282 3.90935C32.9622 3.97532 32.9292 3.96212 33.0282 3.94893C33.1587 3.92269 33.2915 3.90944 33.4246 3.90935L33.4312 2.52391ZM32.0638 2.92635C31.8951 3.11009 31.7848 3.33968 31.7467 3.58608C31.706 3.80352 31.6882 4.02466 31.6939 4.24581H33.0745C33.0613 4.10979 33.0613 3.9728 33.0745 3.83678V3.7906C33.0603 3.82986 33.035 3.86421 33.0018 3.88956L32.0638 2.92635ZM31.6939 4.24581V19.1492H33.0745V4.36456L31.6939 4.24581ZM31.7071 19.1492C31.7015 19.3703 31.7192 19.5915 31.76 19.8089C31.795 20.0487 31.8905 20.2757 32.0374 20.4686L33.0943 19.5912L33.1339 19.644C33.1273 19.6225 33.1273 19.5995 33.1339 19.578C33.1207 19.4376 33.1207 19.2962 33.1339 19.1558L31.7071 19.1492ZM32.1233 20.5544C32.3168 20.6993 32.5442 20.7924 32.7838 20.8249C33.0015 20.8656 33.223 20.8833 33.4444 20.8777V19.5582C33.302 19.578 33.1575 19.578 33.015 19.5582L32.1233 20.5544ZM33.4444 20.8777H41.8666V19.5582H33.4312L33.4444 20.8777ZM41.8798 20.8777C42.1012 20.8833 42.3227 20.8656 42.5404 20.8249C42.7879 20.7897 43.0186 20.6791 43.2009 20.5082L42.2299 19.5384C42.2588 19.5091 42.2923 19.4846 42.329 19.4659H42.2761C42.1399 19.479 42.0028 19.479 41.8666 19.4659L41.8798 20.8777ZM43.2009 20.5082C43.374 20.3249 43.4909 20.096 43.5378 19.8485C43.5836 19.6183 43.6035 19.3838 43.5973 19.1492H42.2101C42.2233 19.2808 42.2233 19.4134 42.2101 19.545L43.2009 20.5082ZM66.215 3.40135L65.7262 3.88296L66.215 3.40135ZM55.2298 3.31559V2.65585H54.5693V3.31559H55.2298ZM55.2298 13.4623H54.5693V14.122H55.2298V13.4623ZM66.2745 13.2644L65.7856 12.7762L66.2745 13.2644ZM52.2771 1.33639V0.676655H51.6165V1.33639H52.2771ZM55.21 15.4613V14.8015H54.5494V15.4613H55.21ZM55.21 22.3027V22.9624H55.8706V22.3027H55.21ZM52.2771 22.3027H51.6165V22.9624H52.2771V22.3027ZM67.1398 12.4067V4.36456H65.8187V12.4397L67.1398 12.4067ZM67.1398 4.34477C67.1476 4.10762 67.1254 3.87044 67.0737 3.63885C67.0226 3.38268 66.8879 3.15066 66.6906 2.97912L65.8121 4.03469C65.7767 4.00819 65.7474 3.97445 65.7262 3.93574C65.7393 4.06295 65.7393 4.19116 65.7262 4.31838L67.1398 4.34477ZM66.7369 3.0253C66.5492 2.85848 66.3217 2.74263 66.0763 2.68884C65.859 2.64373 65.6376 2.62161 65.4157 2.62287V3.97532C65.5387 3.96212 65.6627 3.96212 65.7856 3.97532L66.7369 3.0253ZM65.4157 2.62287H55.2298V3.97532H65.4289L65.4157 2.62287ZM54.5296 3.2826V13.4293H55.8904V3.31559L54.5296 3.2826ZM55.1902 14.122H65.3959V12.7432H55.2298L55.1902 14.122ZM65.3893 14.122C65.6116 14.1243 65.8334 14.1 66.0499 14.0494C66.3001 14.0096 66.5312 13.8918 66.7104 13.713L65.7394 12.7432C65.7989 12.6838 65.8319 12.697 65.7394 12.7432C65.6169 12.763 65.492 12.763 65.3695 12.7432L65.3893 14.122ZM66.7104 13.713C66.8835 13.5297 67.0004 13.3008 67.0473 13.0532C67.0958 12.8368 67.1179 12.6153 67.1134 12.3935H65.7923C65.8121 12.5159 65.8121 12.6406 65.7923 12.763L66.7104 13.713ZM52.2507 1.99612H66.6642V0.676655H52.2507V1.99612ZM66.6642 1.99612C66.9361 1.9419 67.2171 1.95553 67.4824 2.0358C67.7477 2.11608 67.9891 2.26051 68.1851 2.45629C68.3812 2.65207 68.5258 2.89314 68.6062 3.15812C68.6865 3.42311 68.7002 3.70381 68.6459 3.97532H70.0199C70.0503 3.52341 69.9888 3.07003 69.8389 2.64254C69.6891 2.21506 69.454 1.82235 69.1479 1.48813C68.8118 1.1867 68.4193 0.954587 67.9931 0.805137C67.5668 0.655687 67.1152 0.591847 66.6642 0.617282V1.99612ZM68.6459 3.97532V12.7498H70.0199V3.97532H68.6459ZM68.6459 12.7696C68.6726 13.0394 68.6455 13.3119 68.5661 13.5712C68.4868 13.8305 68.3567 14.0715 68.1835 14.2803C67.9755 14.4555 67.7345 14.5871 67.4747 14.6676C67.2148 14.748 66.9415 14.7756 66.6708 14.7488V16.121C67.122 16.1545 67.5753 16.0951 68.0025 15.9464C68.4298 15.7978 68.8219 15.563 69.1545 15.2568C69.4603 14.9186 69.6946 14.5222 69.8433 14.0914C69.992 13.6606 70.052 13.2043 70.0199 12.7498L68.6459 12.7696ZM66.6642 14.7488H55.2298V16.121H66.717L66.6642 14.7488ZM54.5032 15.4085V22.3489H55.8904V15.4547L54.5032 15.4085ZM55.1638 21.5638H52.2309V23.0086H55.2298L55.1638 21.5638ZM52.9178 22.2235V1.33639H51.5241V22.3357L52.9178 22.2235Z" fill="#CD092B"/>
<defs>
<linearGradient id="paint0_linear" x1="98.028" y1="-18.2213" x2="135.933" y2="45.5905" gradientUnits="userSpaceOnUse">
<stop stop-color="#E07504"/>
<stop offset="0.49" stop-color="#FBDF15"/>
<stop offset="1" stop-color="#F18F28"/>
</linearGradient>
</defs>
</svg>
