<svg width="53" height="53" viewBox="0 0 53 53" fill="none" xmlns="http://www.w3.org/2000/svg">
<path d="M24.488 12.3359V14.038L25.6109 17.119H22.0835V14.5197C22.0894 14.2043 22.1867 13.8975 22.3638 13.6363C22.5409 13.3752 22.79 13.171 23.081 13.0484L24.488 12.3359Z" fill="url(#paint0_linear)"/>
<path d="M26.9252 12.3359V14.038L25.8022 17.119H29.3495V14.5197C29.3422 14.2038 29.2435 13.8968 29.0654 13.6357C28.8872 13.3746 28.6371 13.1707 28.3454 13.0484L26.9252 12.3359Z" fill="url(#paint1_linear)"/>
<path d="M25.3135 13.0469H26.2185L25.8948 13.5879L26.2185 14.1948L25.7693 16.7678L25.3135 14.1948L25.6107 13.6142L25.3135 13.0469Z" fill="url(#paint2_linear)"/>
<path d="M23.9526 10.1964C23.9526 10.1964 24.0781 12.2613 25.6833 12.4725C25.6833 12.4725 27.1762 12.4725 27.4999 10.1964C27.4999 10.1964 27.0573 10.2558 27.0969 9.28594C27.0969 9.06163 27.0309 9.02865 26.7732 8.92969C26.7732 8.92969 25.505 9.77415 24.6198 8.92969C24.5265 8.94512 24.4386 8.98413 24.3646 9.04302C24.2906 9.10191 24.2329 9.17872 24.197 9.26615C24.197 9.26615 24.4084 9.96547 23.9526 10.1964Z" fill="url(#paint3_linear)"/>
<path d="M27.1631 35.186C27.1631 35.186 27.282 37.1059 28.7749 37.3038C28.7749 37.3038 30.1621 37.3038 30.4593 35.186C30.4593 35.186 30.0498 35.2454 30.0828 34.3416C30.0828 34.1305 30.0233 34.1041 29.7855 34.0117C29.7855 34.0117 28.6097 34.7968 27.8038 34.0117C27.7172 34.0269 27.6359 34.064 27.5677 34.1194C27.4995 34.1748 27.4466 34.2468 27.4141 34.3284C27.4141 34.3284 27.6255 34.9683 27.1631 35.186Z" fill="url(#paint4_linear)"/>
<path d="M31.7938 38.4856C31.7938 38.4856 31.2654 37.3838 30.2944 37.4696C30.0309 37.8384 29.7298 38.1789 29.396 38.4856H31.7938Z" fill="url(#paint5_linear)"/>
<path d="M28.1141 38.5199H25.6436C25.7706 38.2254 25.9792 37.9734 26.2449 37.7934C26.5105 37.6134 26.8221 37.5129 27.143 37.5039" fill="url(#paint6_linear)"/>
<path d="M28.6888 38.605C28.6888 38.605 28.5303 38.0179 28.2925 37.9453H29.2173C29.0534 38.134 28.9398 38.3609 28.887 38.605H28.6888Z" fill="url(#paint7_linear)"/>
<path d="M25.0227 38.6055H33.0354C33.0354 38.6055 33.4383 38.6055 33.2401 39.2652L32.203 43.2236H25.8022L24.7651 39.1728C24.7651 39.1728 24.5339 38.6055 25.0227 38.6055Z" fill="url(#paint8_linear)"/>
<path d="M31.4635 51.7989C28.0039 52.5411 24.4283 52.5636 20.9596 51.865C17.4909 51.1663 14.2035 49.7614 11.3024 47.738C8.40132 45.7145 5.94868 43.1159 4.09745 40.104C2.24621 37.0922 1.03608 33.7317 0.542491 30.2322C0.0584929 26.7402 0.287124 23.1865 1.21461 19.7851C2.1421 16.3836 3.74925 13.2049 5.9393 10.4402C8.02557 7.82212 10.6248 5.65674 13.5779 4.07655C16.531 2.49636 19.7759 1.5346 23.114 1.25012C27.1963 0.966434 31.4635 1.85048 34.6937 4.35746C37.9238 6.86445 39.9121 11.1263 39.0798 15.1243C38.2739 18.9442 35.1627 21.8932 31.8136 23.8658C28.4646 25.8384 24.6729 27.0655 21.2446 29.0183C17.8163 30.9711 14.7116 33.8673 13.8463 37.6806C13.3976 39.6708 13.6014 41.7524 14.4276 43.6182C16.1582 47.5106 19.864 49.1401 21.6938 49.9252C26.4895 51.9572 31.4503 51.5284 31.4371 51.8121C31.4371 51.8121 31.3975 51.8846 30.3868 52.0166C29.3223 52.1858 28.2475 52.2828 27.1699 52.3069C25.6973 52.3065 24.2305 52.1225 22.8035 51.7593C19.9305 51.0264 17.3128 49.523 15.2334 47.4116C12.7563 44.8783 11.7192 40.3525 12.4062 36.9087C13.0598 34.2941 14.5685 31.9723 16.6933 30.3114C18.9692 28.4785 21.4821 26.9607 24.1643 25.7988C27.3086 24.354 30.585 23.0939 33.3263 20.9366C34.0405 20.3979 34.7039 19.795 35.308 19.1355C38.0229 16.1007 38.1352 11.9774 35.9686 8.61934C33.6368 5.06997 29.6073 3.13696 25.3863 2.97862C21.8189 2.85272 18.2837 3.69154 15.1542 5.40644C13.2487 6.42907 11.4743 7.67847 9.86967 9.12733C8.19906 10.6559 6.73961 12.3997 5.52976 14.3128C4.55594 15.8376 3.78121 17.4805 3.22438 19.2015C2.08437 22.6393 1.70367 26.2831 2.10849 29.882C2.5133 33.4809 3.69402 36.9495 5.56939 40.049C9.03735 45.6699 14.9428 49.5162 21.2974 51.1391C24.6137 52.0004 28.0636 52.2243 31.4635 51.7989Z" fill="white"/>
<path d="M20.8945 1.53855C24.3508 0.797142 27.9228 0.774085 31.3883 1.47082C34.8539 2.16755 38.1388 3.56916 41.0386 5.58843C43.9384 7.60769 46.3911 10.2014 48.244 13.2081C50.0969 16.2149 51.3104 19.5703 51.809 23.0656C52.2968 26.5577 52.0701 30.1123 51.1424 33.5143C50.2148 36.9163 48.6056 40.0949 46.4122 42.8576C45.1967 44.3684 38.961 52.0939 29.2375 52.0477C27.3549 52.0477 19.613 51.7244 15.6166 45.9254C15.0882 45.1601 12.9744 42.0989 13.5226 38.2989C14.2559 33.1991 19.2695 30.1974 20.5643 29.4387C22.1694 28.5018 23.114 28.1984 28.491 25.6518C29.397 25.2445 30.2791 24.7864 31.1333 24.2796C32.7252 23.3229 38.089 20.0837 38.7364 15.3336C38.9728 13.5984 38.8239 11.8325 38.3004 10.1613C37.6759 8.38802 36.6151 6.8 35.2156 5.54313C34.1663 4.57047 32.9718 3.76696 31.6749 3.1615C29.1731 1.97138 26.4333 1.36454 23.6623 1.38681C22.2553 1.38681 20.8879 1.58473 20.8879 1.53855C21.5853 1.39075 22.2913 1.28718 23.0017 1.22848C23.6623 1.15591 24.4946 1.05035 25.1948 1.04375C26.6612 1.03927 28.122 1.22331 29.5413 1.59133C32.4087 2.33802 35.023 3.83943 37.1114 5.93897C39.5885 8.47235 40.6256 13.0047 39.932 16.4419C39.397 19.1138 37.6795 21.3371 35.6449 23.0722C33.3676 24.9255 30.8446 26.4551 28.1475 27.6178C25.0032 29.056 21.7202 30.3161 18.9855 32.4734C18.3194 32.9991 17.6965 33.5771 17.1227 34.2019C14.4078 37.2433 14.3021 41.3666 16.4621 44.7181C17.6413 46.4378 19.2168 47.8496 21.056 48.8346C22.8952 49.8197 24.9444 50.3492 27.0312 50.3786C30.6067 50.5031 34.1487 49.6524 37.2765 47.9178C39.1869 46.903 40.9622 45.6529 42.5611 44.1969C44.2313 42.6642 45.6867 40.9133 46.8878 38.9916C47.8535 37.4661 48.6194 35.8231 49.1667 34.103C50.3067 30.6665 50.688 27.0242 50.2843 23.4266C49.8806 19.8289 48.7016 16.3612 46.8283 13.262C43.3603 7.64108 37.4549 3.79484 31.1003 2.21148C27.7703 1.35251 24.3087 1.12427 20.8945 1.53855Z" fill="#E51B30"/>
<path d="M28.7946 46.237C33.0302 46.237 36.4638 42.8077 36.4638 38.5775C36.4638 34.3472 33.0302 30.918 28.7946 30.918C24.5591 30.918 21.1255 34.3472 21.1255 38.5775C21.1255 42.8077 24.5591 46.237 28.7946 46.237Z" stroke="white"/>
<path d="M25.7756 20.9518C30.0112 20.9518 33.4448 17.5225 33.4448 13.2923C33.4448 9.06209 30.0112 5.63281 25.7756 5.63281C21.54 5.63281 18.1064 9.06209 18.1064 13.2923C18.1064 17.5225 21.54 20.9518 25.7756 20.9518Z" stroke="#F31D42"/>
<defs>
<linearGradient id="paint0_linear" x1="23.8548" y1="14.2104" x2="25.3423" y2="18.2702" gradientUnits="userSpaceOnUse">
<stop stop-color="#E07504"/>
<stop offset="0.0001" stop-color="#E07504"/>
<stop offset="0.503428" stop-color="#FBDF15"/>
<stop offset="0.941529" stop-color="white"/>
</linearGradient>
<linearGradient id="paint1_linear" x1="27.5835" y1="14.2104" x2="29.0646" y2="18.2756" gradientUnits="userSpaceOnUse">
<stop stop-color="#E07504"/>
<stop offset="0.0001" stop-color="#E07504"/>
<stop offset="0.503428" stop-color="#FBDF15"/>
<stop offset="0.941529" stop-color="white"/>
</linearGradient>
<linearGradient id="paint2_linear" x1="25.7679" y1="14.5051" x2="27.5492" y2="16.1084" gradientUnits="userSpaceOnUse">
<stop stop-color="#E07504"/>
<stop offset="0.0001" stop-color="#E07504"/>
<stop offset="0.503428" stop-color="#FBDF15"/>
<stop offset="0.941529" stop-color="white"/>
</linearGradient>
<linearGradient id="paint3_linear" x1="25.7339" y1="10.3181" x2="26.5918" y2="13.4973" gradientUnits="userSpaceOnUse">
<stop stop-color="#E07504"/>
<stop offset="0.0001" stop-color="#E07504"/>
<stop offset="0.503428" stop-color="#FBDF15"/>
<stop offset="0.941529" stop-color="white"/>
</linearGradient>
<linearGradient id="paint4_linear" x1="28.8183" y1="35.3019" x2="29.6155" y2="38.2561" gradientUnits="userSpaceOnUse">
<stop stop-color="#E07504"/>
<stop offset="0.0001" stop-color="#E07504"/>
<stop offset="0.503428" stop-color="#FBDF15"/>
<stop offset="0.941529" stop-color="white"/>
</linearGradient>
<linearGradient id="paint5_linear" x1="30.6001" y1="37.8649" x2="30.7116" y2="38.8348" gradientUnits="userSpaceOnUse">
<stop stop-color="#E07504"/>
<stop offset="0.0001" stop-color="#E07504"/>
<stop offset="0.503428" stop-color="#FBDF15"/>
<stop offset="0.941529" stop-color="white"/>
</linearGradient>
<linearGradient id="paint6_linear" x1="26.8841" y1="37.9021" x2="26.9915" y2="38.8683" gradientUnits="userSpaceOnUse">
<stop stop-color="#E07504"/>
<stop offset="0.0001" stop-color="#E07504"/>
<stop offset="0.503428" stop-color="#FBDF15"/>
<stop offset="0.941529" stop-color="white"/>
</linearGradient>
<linearGradient id="paint7_linear" x1="28.7569" y1="38.2039" x2="28.8749" y2="38.8163" gradientUnits="userSpaceOnUse">
<stop stop-color="#E07504"/>
<stop offset="0.0001" stop-color="#E07504"/>
<stop offset="0.503428" stop-color="#FBDF15"/>
<stop offset="0.941529" stop-color="white"/>
</linearGradient>
<linearGradient id="paint8_linear" x1="29.0211" y1="40.4153" x2="29.654" y2="44.7694" gradientUnits="userSpaceOnUse">
<stop stop-color="#E07504"/>
<stop offset="0.0001" stop-color="#E07504"/>
<stop offset="0.503428" stop-color="#FBDF15"/>
<stop offset="0.941529" stop-color="white"/>
</linearGradient>
</defs>
</svg>
