<svg width="152" height="23" viewBox="0 0 152 23" fill="none" xmlns="http://www.w3.org/2000/svg">
<path d="M24.7221 1.26971V2.22669H17.5492H17.0492V2.72669V21.035H15.1309V2.73321V2.23321H14.6309H7.45804V1.27588L24.7221 1.26971ZM42.0842 2.55365L42.0591 2.53244L42.0315 2.5147C41.6953 2.29886 41.2972 2.20015 40.8995 2.23321H32.571C32.1583 2.18711 31.7419 2.28848 31.3965 2.52029L31.3617 2.54365L31.3312 2.57248C31.154 2.74044 31.0816 2.95497 31.0468 3.14004C31.0123 3.32396 31.0046 3.53782 31.0046 3.76398V18.4834C30.969 18.8723 31.0492 19.2632 31.2354 19.6071L31.249 19.6322L31.2654 19.6556C31.4434 19.9102 31.7348 19.9772 31.9009 20.0038C32.0927 20.0345 32.3198 20.0387 32.5408 20.0387H40.8916C41.2815 20.0825 41.6756 19.9991 42.0144 19.8002L42.1192 19.7388L42.1841 19.6361C42.4008 19.2929 42.4993 18.8886 42.4646 18.4848V18.4818V3.76398C42.4646 3.51949 42.4452 3.29564 42.3973 3.10376C42.3516 2.92115 42.2653 2.7068 42.0842 2.55365ZM65.3979 2.55365L65.3728 2.53244L65.3451 2.5147C65.009 2.29886 64.6109 2.20015 64.2132 2.23321H54.1297H53.6297V2.73321V12.7669V13.2669H54.1297H64.2206C64.6215 13.3085 65.0252 13.2107 65.3626 12.9891L65.4486 12.9326L65.5054 12.8467C65.7252 12.5139 65.8215 12.1153 65.7783 11.7196V3.76398C65.7783 3.51949 65.7589 3.29564 65.7109 3.10376C65.6653 2.92116 65.579 2.7068 65.3979 2.55365ZM51.6986 1.28258H65.5144C66.3124 1.28258 66.8189 1.48079 67.1292 1.78944C67.439 2.09762 67.6376 2.60001 67.6376 3.39212V12.0949C67.6376 12.8995 67.4381 13.4109 67.127 13.7243C66.8165 14.037 66.3108 14.2371 65.5144 14.2371H54.1297H53.6297V14.7371V21.035H51.7111L51.6986 1.28258ZM0.5 1.26953H2.4511V21.035H0.5V1.26953ZM44.3436 3.40517V18.8471C44.3436 19.6376 44.1431 20.1392 43.8292 20.4476C43.5136 20.7576 42.998 20.9567 42.1876 20.9567H31.2292C30.4187 20.9567 29.9032 20.7576 29.5876 20.4476C29.2737 20.1392 29.0732 19.6376 29.0732 18.8471V3.40517C29.0732 2.61465 29.2737 2.1131 29.5876 1.80467C29.9032 1.49465 30.4187 1.29563 31.2292 1.29563H42.1876C42.998 1.29563 43.5136 1.49465 43.8292 1.80467C44.1431 2.11309 44.3436 2.61465 44.3436 3.40517Z" fill="#F31D42" stroke="#F31D42"/>
<path d="M82.4668 0.769569H83.1226V0.117184H82.4668V0.769569ZM82.4668 21.5024V22.1547H83.1226V21.5024H82.4668ZM79.5157 21.5024H78.8599V22.1547H79.5157V21.5024ZM79.5157 2.73325H80.1715V2.08086H79.5157V2.73325ZM75.2923 2.73325H74.6365V3.38563H75.2923V2.73325ZM75.2923 0.776094V0.12371H74.6365V0.776094H75.2923ZM81.7782 0.776094V21.535H83.1488V0.769569L81.7782 0.776094ZM82.434 20.8304H79.4829V22.1874H82.434V20.8304ZM80.1649 21.4828V2.73325H78.7943V21.535L80.1649 21.4828ZM79.5091 2.02867H75.2858V3.39216H79.5091V2.02867ZM75.9678 2.68106V0.723902H74.6038V2.68106H75.9678ZM75.312 1.37629H82.4865V0.0845681H75.312V1.37629ZM102.056 2.86372L101.577 3.34649L102.056 2.86372ZM91.6742 2.86372L92.1136 3.38563L91.6742 2.86372ZM91.6742 19.3038L91.1889 19.7801L91.6742 19.3038ZM102.056 19.3038L102.495 19.8257L102.056 19.3038ZM104.489 3.33344V18.8015H105.859V3.4052L104.489 3.33344ZM104.489 18.8015C104.516 19.0684 104.489 19.338 104.41 19.5945C104.332 19.851 104.202 20.0893 104.029 20.2954C103.822 20.4665 103.582 20.5949 103.325 20.6733C103.067 20.7517 102.796 20.7785 102.528 20.7521V22.1874C102.977 22.2167 103.427 22.1556 103.852 22.0076C104.277 21.8596 104.667 21.6279 105 21.3262C105.299 20.9943 105.53 20.6066 105.677 20.1855C105.825 19.7644 105.886 19.3183 105.859 18.8732L104.489 18.8015ZM102.521 20.7586H91.1561V22.1874H102.521V20.7586ZM91.1561 20.7586C90.8879 20.7857 90.6169 20.7593 90.359 20.6809C90.1011 20.6025 89.8616 20.4737 89.6544 20.302C89.4809 20.0962 89.3504 19.8581 89.2705 19.6016C89.1906 19.3451 89.1628 19.0753 89.1887 18.808H87.8247C87.7959 19.2532 87.8572 19.6997 88.0047 20.121C88.1523 20.5423 88.3832 20.9299 88.6838 21.261C89.0185 21.5595 89.4092 21.7893 89.8335 21.9371C90.2578 22.0849 90.7073 22.1478 91.1561 22.1221V20.7586ZM89.1887 18.8015V3.4052H87.8247V18.8732L89.1887 18.8015ZM89.1887 3.32692C89.1628 3.05962 89.1906 2.78985 89.2705 2.53334C89.3504 2.27684 89.4809 2.03875 89.6544 1.83296C89.8616 1.66127 90.1011 1.53244 90.359 1.45402C90.6169 1.37561 90.8879 1.34918 91.1561 1.37629V0.0976136C90.707 0.068267 90.2565 0.129412 89.8317 0.277384C89.4069 0.425355 89.0164 0.657108 88.6838 0.958761C88.3841 1.29045 88.1538 1.67816 88.0063 2.09931C87.8588 2.52046 87.7971 2.9666 87.8247 3.41173L89.1887 3.32692ZM91.1561 1.36976H102.521V0.0976136H91.1561V1.36976ZM102.521 1.36976C102.789 1.34338 103.06 1.37016 103.318 1.44855C103.576 1.52693 103.815 1.65537 104.023 1.82643C104.369 2.2442 104.534 2.78156 104.482 3.3204H105.853C105.883 2.87453 105.822 2.42721 105.673 2.00557C105.524 1.58392 105.291 1.19672 104.987 0.867428C104.654 0.567524 104.265 0.336835 103.842 0.188942C103.418 0.0410489 102.969 -0.0210589 102.521 0.00628019V1.36976ZM102.934 18.4231V3.76402H101.564V18.5079L102.934 18.4231ZM102.934 3.68573C102.94 3.44879 102.916 3.21205 102.862 2.98115C102.811 2.72952 102.68 2.50087 102.488 2.32877L101.61 3.37259C101.576 3.34613 101.55 3.31272 101.531 3.27473C101.544 3.40269 101.544 3.53167 101.531 3.65963L102.934 3.68573ZM102.534 2.38096C102.35 2.21345 102.123 2.09851 101.878 2.04824C101.663 2.00284 101.443 1.98096 101.223 1.983V3.33997C101.345 3.33001 101.468 3.33001 101.59 3.33997C101.669 3.33997 101.636 3.33997 101.59 3.33997L102.534 2.38096ZM101.223 1.983H92.4809V3.33997H101.196L101.223 1.983ZM92.5071 1.983C92.2868 1.98122 92.0669 2.00309 91.8513 2.04824C91.6062 2.09726 91.3793 2.21236 91.1955 2.38096L92.1595 3.33997C92.1071 3.39868 92.0743 3.39216 92.1595 3.33997C92.2818 3.33058 92.4045 3.33058 92.5268 3.33997L92.5071 1.983ZM91.2348 2.34182C91.039 2.51145 90.9052 2.74088 90.8545 2.9942C90.8071 3.22611 90.7829 3.46213 90.7823 3.69878H92.153C92.1397 3.57082 92.1397 3.44183 92.153 3.31387C92.1319 3.35216 92.1028 3.38552 92.0677 3.41173L91.2348 2.34182ZM90.7823 3.69878V18.4361H92.153V3.76402L90.7823 3.69878ZM90.7823 18.4361C90.78 18.6708 90.8042 18.9049 90.8545 19.1342C90.9011 19.379 91.0171 19.6053 91.1889 19.7866L92.153 18.8276C92.2185 18.8863 92.2054 18.9254 92.153 18.8276C92.1397 18.6953 92.1397 18.5619 92.153 18.4296L90.7823 18.4361ZM91.2348 19.8257C91.4132 19.963 91.6226 20.0548 91.8447 20.0932C92.061 20.1324 92.2807 20.1499 92.5005 20.1454V18.7884C92.3697 18.8015 92.2379 18.8015 92.1071 18.7884C92.0152 18.7884 92.0415 18.7884 92.1071 18.7884L91.2348 19.8257ZM92.5071 20.1454H101.223V18.7884H92.4809L92.5071 20.1454ZM101.223 20.1454C101.442 20.1506 101.662 20.1331 101.878 20.0932C102.102 20.0536 102.313 19.9619 102.495 19.8257L101.616 18.7754C101.675 18.7297 101.701 18.7754 101.616 18.7754C101.485 18.7885 101.354 18.7885 101.223 18.7754V20.1454ZM102.534 19.7801C102.706 19.5988 102.822 19.3724 102.869 19.1277C102.914 18.8977 102.936 18.6639 102.934 18.4296H101.564C101.58 18.5596 101.58 18.6911 101.564 18.8211C101.564 18.9124 101.564 18.8732 101.564 18.8211L102.534 19.7801ZM124.72 2.94201L124.235 3.41825L124.72 2.94201ZM114.339 2.94201L114.771 3.46392L114.339 2.94201ZM114.339 19.3821L113.853 19.8583L114.339 19.3821ZM124.72 19.3821L125.159 19.904L124.72 19.3821ZM127.153 3.41173V18.8798H128.517V3.4052L127.153 3.41173ZM127.153 18.8798C127.179 19.1471 127.151 19.4168 127.071 19.6733C126.991 19.9298 126.861 20.1679 126.687 20.3737C126.481 20.5461 126.241 20.6753 125.983 20.7537C125.725 20.8322 125.454 20.8583 125.186 20.8304V22.1874C125.635 22.2167 126.085 22.1556 126.51 22.0076C126.935 21.8596 127.325 21.6279 127.658 21.3262C127.957 20.9943 128.187 20.6066 128.335 20.1855C128.482 19.7644 128.544 19.3183 128.517 18.8732L127.153 18.8798ZM125.186 20.8369H113.84V22.1874H125.186V20.8369ZM113.84 20.8369C113.572 20.8633 113.301 20.8365 113.043 20.7581C112.786 20.6798 112.546 20.5513 112.338 20.3803C112.165 20.1745 112.035 19.9364 111.955 19.6799C111.875 19.4234 111.847 19.1536 111.873 18.8863H110.528C110.498 19.3316 110.559 19.7785 110.706 20.2C110.854 20.6215 111.086 21.009 111.388 21.3393C112.061 21.9327 112.942 22.2375 113.84 22.1874V20.8369ZM111.873 18.8798V3.4052H110.528V18.8732L111.873 18.8798ZM111.873 3.4052C111.847 3.1379 111.875 2.86813 111.955 2.61163C112.035 2.35513 112.165 2.11704 112.338 1.91124C112.545 1.73892 112.785 1.60969 113.043 1.53125C113.301 1.4528 113.572 1.42672 113.84 1.45457V0.0976136C113.391 0.068267 112.941 0.129412 112.516 0.277384C112.091 0.425355 111.701 0.657108 111.368 0.958761C111.072 1.292 110.845 1.68042 110.701 2.1015C110.557 2.52259 110.498 2.96794 110.528 3.41173L111.873 3.4052ZM113.84 1.44805H125.186V0.0976136H113.84V1.44805ZM125.199 1.44805C125.468 1.42115 125.74 1.44767 125.999 1.52605C126.258 1.60444 126.498 1.73315 126.707 1.90472C127.053 2.32249 127.218 2.85985 127.166 3.39868H128.53C128.562 2.95323 128.502 2.50609 128.354 2.08441C128.206 1.66273 127.974 1.27533 127.671 0.945716C127.337 0.645619 126.947 0.414855 126.522 0.266976C126.098 0.119097 125.648 0.0570836 125.199 0.0845681V1.44805ZM125.618 18.5014V3.76402H124.248V18.5079L125.618 18.5014ZM125.618 3.76402C125.624 3.52707 125.6 3.29034 125.546 3.05944C125.495 2.80781 125.364 2.57915 125.172 2.40706L124.3 3.46392C124.267 3.43747 124.24 3.40405 124.222 3.36606C124.235 3.49403 124.235 3.623 124.222 3.75097L125.618 3.76402ZM125.212 2.45925C125.03 2.28834 124.802 2.17288 124.556 2.12653C124.34 2.08113 124.121 2.05925 123.9 2.06129V3.41825C124.022 3.4083 124.145 3.4083 124.267 3.41825C124.346 3.41825 124.313 3.41825 124.267 3.41825L125.212 2.45925ZM123.9 2.06129H115.178V3.41825H123.894L123.9 2.06129ZM115.185 2.06129C114.964 2.05951 114.744 2.08138 114.529 2.12653C114.284 2.17555 114.057 2.29065 113.873 2.45925L114.837 3.41825C114.778 3.47697 114.745 3.47045 114.837 3.41825C114.959 3.4083 115.082 3.4083 115.204 3.41825L115.185 2.06129ZM113.912 2.4201C113.717 2.58973 113.583 2.81916 113.532 3.07249C113.484 3.30415 113.462 3.5405 113.466 3.77706H114.778C114.762 3.64928 114.762 3.51994 114.778 3.39216C114.778 3.39216 114.778 3.35302 114.778 3.39216C114.757 3.43044 114.728 3.4638 114.693 3.49001L113.912 2.4201ZM113.466 3.77706V18.5144H114.778V3.76402L113.466 3.77706ZM113.466 18.5144C113.459 18.7489 113.481 18.9835 113.532 19.2125C113.573 19.4551 113.682 19.6813 113.847 19.8649L114.811 18.9059C114.876 18.9646 114.863 19.0037 114.811 18.9059C114.795 18.7737 114.795 18.6401 114.811 18.5079L113.466 18.5144ZM113.912 19.904C114.093 20.0425 114.304 20.1344 114.529 20.1715C114.745 20.2115 114.965 20.229 115.185 20.2237V18.8667C115.054 18.8798 114.922 18.8798 114.791 18.8667C114.699 18.8667 114.726 18.8667 114.791 18.8667L113.912 19.904ZM115.185 20.2237H123.9V18.8667H115.178L115.185 20.2237ZM123.9 20.2237C124.12 20.2288 124.34 20.2113 124.556 20.1715C124.78 20.1319 124.991 20.0402 125.172 19.904L124.3 18.8537C124.359 18.808 124.386 18.8537 124.3 18.8537C124.169 18.8668 124.038 18.8668 123.907 18.8537L123.9 20.2237ZM125.212 19.8583C125.388 19.6793 125.507 19.4522 125.553 19.206C125.598 18.976 125.62 18.7422 125.618 18.5079H124.248C124.253 18.6392 124.242 18.7707 124.215 18.8993C124.215 18.9907 124.215 18.9515 124.248 18.8993L125.212 19.8583ZM147.398 2.93549L146.912 3.41173L147.398 2.93549ZM137.016 2.93549L137.456 3.4574L137.016 2.93549ZM137.016 19.3691L136.531 19.8518L137.016 19.3691ZM147.398 19.3691L147.837 19.8975L147.398 19.3691ZM149.831 3.4052V18.8732H151.188V3.4052H149.831ZM149.831 18.8732C149.881 19.4119 149.716 19.9487 149.371 20.3672C149.164 20.5383 148.924 20.6667 148.667 20.7451C148.409 20.8235 148.138 20.8503 147.87 20.8239V22.1874C148.318 22.2162 148.767 22.1548 149.191 22.0068C149.615 21.8589 150.004 21.6274 150.336 21.3262C150.634 20.9942 150.864 20.6063 151.01 20.1851C151.156 19.7639 151.217 19.318 151.188 18.8732H149.831ZM147.863 20.8304H136.511V22.1874H147.909L147.863 20.8304ZM136.498 20.8304C136.23 20.8568 135.959 20.83 135.701 20.7516C135.444 20.6732 135.204 20.5448 134.996 20.3737C134.824 20.1672 134.695 19.9289 134.616 19.6725C134.538 19.416 134.511 19.1466 134.537 18.8798H133.167C133.138 19.3255 133.199 19.7725 133.348 20.194C133.497 20.6155 133.73 21.0028 134.032 21.3327C134.369 21.6327 134.762 21.8628 135.188 22.0095C135.615 22.1563 136.067 22.2168 136.518 22.1874L136.498 20.8304ZM134.531 18.8732V3.4052H133.16V18.8732H134.531ZM134.531 3.39868C134.504 3.13184 134.531 2.86241 134.61 2.60598C134.689 2.34955 134.818 2.11121 134.99 1.90472C135.197 1.73366 135.437 1.60522 135.695 1.52684C135.953 1.44845 136.223 1.42167 136.492 1.44805V0.0976136C136.043 0.0680273 135.594 0.12908 135.17 0.277085C134.746 0.425091 134.357 0.656981 134.026 0.958761C133.724 1.28911 133.491 1.67646 133.343 2.09784C133.194 2.51922 133.132 2.96602 133.16 3.41173L134.531 3.39868ZM136.498 1.44152H147.909V0.0976136H136.511L136.498 1.44152ZM147.863 1.44152C148.131 1.41515 148.402 1.44193 148.66 1.52031C148.918 1.59869 149.157 1.72713 149.365 1.8982C149.538 2.10431 149.667 2.34261 149.746 2.59914C149.825 2.85567 149.851 3.12528 149.824 3.39216H151.188C151.218 2.94629 151.157 2.49898 151.008 2.07733C150.859 1.65568 150.626 1.26848 150.322 0.939191C149.661 0.353587 148.794 0.0511886 147.909 0.0976136L147.863 1.44152ZM148.276 18.4949V3.76402H146.893V18.5079L148.276 18.4949ZM148.276 3.75749C148.281 3.52093 148.259 3.28458 148.211 3.05292C148.157 2.80062 148.024 2.57199 147.83 2.40053L146.952 3.44435C146.918 3.41789 146.892 3.38448 146.873 3.34649C146.894 3.47375 146.905 3.60244 146.906 3.7314L148.276 3.75749ZM147.876 2.45272C147.693 2.28385 147.466 2.1687 147.22 2.12001C147.005 2.07413 146.785 2.05225 146.565 2.05477V3.41173C146.687 3.40235 146.81 3.40235 146.932 3.41173C147.004 3.41173 146.971 3.41173 146.932 3.41173L147.876 2.45272ZM146.565 2.05477H137.862V3.41173H146.597L146.565 2.05477ZM137.849 2.05477C137.618 2.04994 137.387 2.07184 137.161 2.12001C136.916 2.17028 136.689 2.28521 136.505 2.45272L137.469 3.41173C137.416 3.47044 137.383 3.46392 137.469 3.41173C137.591 3.40205 137.714 3.40205 137.836 3.41173L137.849 2.05477ZM136.537 2.41358C136.344 2.58386 136.212 2.81332 136.164 3.06597C136.11 3.29686 136.086 3.53359 136.092 3.77054H137.456C137.442 3.64257 137.442 3.5136 137.456 3.38563C137.437 3.42362 137.41 3.45704 137.377 3.48349L136.537 2.41358ZM136.092 3.77054V18.5079H137.456V3.76402L136.092 3.77054ZM136.092 18.5079C136.087 18.7423 136.109 18.9765 136.157 19.206C136.205 19.449 136.318 19.6745 136.485 19.8583L137.456 18.8993C137.515 18.9581 137.502 18.9972 137.456 18.8993C137.443 18.767 137.443 18.6337 137.456 18.5014L136.092 18.5079ZM136.537 19.8975C136.718 20.0348 136.93 20.1266 137.154 20.165C137.37 20.2048 137.59 20.2223 137.81 20.2172V18.8602C137.679 18.8736 137.547 18.8736 137.416 18.8602C137.324 18.8602 137.351 18.8602 137.416 18.8602L136.537 19.8975ZM137.849 20.2172H146.597V18.8602H137.862L137.849 20.2172ZM146.597 20.2302C146.817 20.2355 147.037 20.2181 147.253 20.178C147.477 20.1396 147.689 20.0479 147.87 19.9105L146.991 18.8602C147.057 18.8145 147.076 18.8602 146.991 18.8602C146.86 18.8733 146.728 18.8733 146.597 18.8602V20.2302ZM147.909 19.8649C148.083 19.6852 148.199 19.4581 148.244 19.2125C148.292 18.983 148.314 18.7488 148.309 18.5144H146.925C146.931 18.6458 146.92 18.7772 146.893 18.9059C146.893 18.9972 146.893 18.9581 146.925 18.9059L147.909 19.8649Z" fill="url(#paint0_linear)"/>
<path d="M82.4669 0.769531V21.535H79.5158V2.73321H75.2925V0.776056L82.4669 0.769531ZM105.164 3.37907V18.8471C105.164 20.5868 104.29 21.4567 102.541 21.4567H91.1759C89.4053 21.4567 88.5309 20.5868 88.5527 18.8471V3.40517C88.5527 1.66547 89.4271 0.795627 91.1759 0.795627H102.541C104.29 0.795627 105.164 1.66547 105.164 3.40517V3.37907ZM102.252 18.4753V3.76398C102.252 3.32036 102.18 3.04636 102.049 2.93545C101.8 2.77569 101.504 2.70442 101.21 2.73321H92.4941C92.1989 2.69653 91.9003 2.76845 91.6547 2.93545C91.4884 3.17794 91.4183 3.47311 91.4579 3.76398V18.5079C91.4209 18.809 91.4905 19.1135 91.6547 19.369C91.7924 19.5191 92.0678 19.5387 92.4941 19.5387H101.21C101.5 19.5692 101.793 19.51 102.049 19.369C102.22 19.1164 102.293 18.81 102.252 18.5079V18.4753ZM127.829 3.37255V18.8406C127.829 20.5803 126.954 21.4501 125.205 21.4501H113.86C112.111 21.4501 111.237 20.5803 111.237 18.8406V3.40517C111.237 1.66547 112.111 0.795627 113.86 0.795627H125.205C126.963 0.773881 127.842 1.64373 127.842 3.40517L127.829 3.37255ZM124.956 18.5079V3.76398C124.956 3.32036 124.891 3.04636 124.759 2.93545C124.511 2.77569 124.215 2.70442 123.92 2.73321H115.172C114.878 2.69569 114.582 2.76775 114.339 2.93545C114.167 3.17542 114.094 3.47208 114.135 3.76398V18.5079C114.1 18.8097 114.172 19.1143 114.339 19.369C114.47 19.5191 114.752 19.5387 115.172 19.5387H123.887C124.178 19.5692 124.471 19.51 124.727 19.369C124.895 19.1153 124.965 18.8092 124.923 18.5079H124.956ZM150.532 3.40517V18.8732C150.532 20.6129 149.647 21.4828 147.876 21.4828H136.511C134.763 21.4828 133.888 20.6129 133.888 18.8732V3.40517C133.888 1.66547 134.763 0.795627 136.511 0.795627H147.909C149.658 0.795627 150.532 1.66547 150.532 3.40517ZM147.614 18.5079V3.76398C147.614 3.32036 147.548 3.04636 147.411 2.93545C147.169 2.78137 146.884 2.71033 146.598 2.73321H137.849C137.554 2.69653 137.255 2.76845 137.01 2.93545C136.841 3.17679 136.768 3.47225 136.806 3.76398V18.5079C136.771 18.8097 136.843 19.1143 137.01 19.369C137.147 19.5191 137.423 19.5387 137.849 19.5387H146.598C146.886 19.5705 147.178 19.5111 147.43 19.369C147.568 19.2581 147.634 18.9515 147.634 18.5079H147.614Z" fill="white"/>
<defs>
<linearGradient id="paint0_linear" x1="96.6255" y1="-18.5606" x2="134.037" y2="44.6706" gradientUnits="userSpaceOnUse">
<stop stop-color="#E07504"/>
<stop offset="0.49" stop-color="#FBDF15"/>
<stop offset="1" stop-color="#F18F28"/>
</linearGradient>
</defs>
</svg>
