<svg width="17" height="17" viewBox="0 0 17 17" fill="none" xmlns="http://www.w3.org/2000/svg">
<g clip-path="url(#clip0)">
<path d="M12.3612 1.6875H0.957281C0.429417 1.6875 0 2.11692 0 2.64475V9.48647C0 10.0143 0.429417 10.4437 0.957281 10.4437H1.69675V12.9908C1.69675 13.1529 1.79443 13.2992 1.94431 13.3613C1.99392 13.3819 2.04605 13.3918 2.09771 13.3918C2.2021 13.3918 2.30463 13.3511 2.38137 13.2744L5.21197 10.4438H5.77988C6.00138 10.4438 6.18091 10.2642 6.18091 10.0428C6.18091 9.82122 6.00131 9.64169 5.77988 9.64169C5.77988 9.64169 5.0265 9.64222 5.01863 9.64302C4.92526 9.64936 4.83362 9.68781 4.76223 9.75916L2.49881 12.0226C2.49881 12.0226 2.49811 10.0174 2.49681 10.007C2.47872 9.80226 2.30699 9.64169 2.09758 9.64169H0.957281C0.871683 9.64169 0.802089 9.57206 0.802089 9.4865V2.64475C0.802089 2.55915 0.871716 2.48956 0.957281 2.48956H12.3612C12.4468 2.48956 12.5164 2.55918 12.5164 2.64475V5.26963C12.5164 5.49113 12.696 5.67065 12.9174 5.67065C13.1389 5.67065 13.3185 5.49113 13.3185 5.26963V2.64475C13.3185 2.11692 12.889 1.6875 12.3612 1.6875Z" fill="currentColor"/>
<path d="M16.0433 6.58984H8.0608C7.53297 6.58984 7.10352 7.01926 7.10352 7.54712V12.2145C7.10352 12.7423 7.53293 13.1718 8.0608 13.1718H13.0583L15.0831 15.1965C15.1598 15.2732 15.2624 15.314 15.3667 15.314C15.4184 15.314 15.4705 15.304 15.5201 15.2834C15.6699 15.2213 15.7677 15.0752 15.7677 14.9129V13.1717H16.0433C16.5711 13.1717 17.0006 12.7423 17.0006 12.2145V7.54709C17.0006 7.01926 16.5712 6.58984 16.0433 6.58984ZM16.1986 12.2145C16.1986 12.3001 16.1289 12.3697 16.0434 12.3697H15.3668C15.1558 12.3697 14.9832 12.5328 14.9674 12.7398C14.9663 12.7486 14.9657 13.9447 14.9657 13.9447L13.5096 12.4886C13.508 12.4871 13.5065 12.4857 13.5049 12.4841C13.4992 12.4786 13.4938 12.4737 13.4887 12.4694C13.4181 12.4075 13.3259 12.3697 13.2247 12.3697H8.0608C7.9752 12.3697 7.9056 12.3 7.9056 12.2145V7.54709C7.9056 7.46149 7.97523 7.3919 8.0608 7.3919H16.0434C16.1289 7.3919 16.1986 7.46153 16.1986 7.54709V12.2145Z" fill="currentColor"/>
<path d="M12.0514 9.48047C11.8301 9.48047 11.6504 9.66013 11.6504 9.8815C11.6504 10.1029 11.8301 10.2825 12.0514 10.2825C12.2728 10.2825 12.4524 10.1029 12.4524 9.8815C12.4524 9.66013 12.2728 9.48047 12.0514 9.48047Z" fill="currentColor"/>
<path d="M10.3082 4.33984H3.00943C2.78796 4.33984 2.6084 4.51937 2.6084 4.74087C2.6084 4.96237 2.78799 5.1419 3.00943 5.1419H10.3082C10.5297 5.1419 10.7092 4.96237 10.7092 4.74087C10.7092 4.51937 10.5297 4.33984 10.3082 4.33984Z" fill="currentColor"/>
<path d="M5.77941 6.98828H3.00943C2.78796 6.98828 2.6084 7.16781 2.6084 7.38931C2.6084 7.61081 2.788 7.79034 3.00943 7.79034H5.77941C6.00091 7.79034 6.18044 7.61081 6.18044 7.38931C6.18044 7.16781 6.00088 6.98828 5.77941 6.98828Z" fill="currentColor"/>
<path d="M10.1881 9.48047C9.96681 9.48047 9.78711 9.66013 9.78711 9.8815C9.78711 10.1029 9.96681 10.2825 10.1881 10.2825C10.4095 10.2825 10.5892 10.1029 10.5892 9.8815C10.5892 9.66013 10.4095 9.48047 10.1881 9.48047Z" fill="currentColor"/>
<path d="M13.9147 9.48047C13.6933 9.48047 13.5137 9.66013 13.5137 9.8815C13.5137 10.1029 13.6933 10.2825 13.9147 10.2825C14.1361 10.2825 14.3157 10.1029 14.3157 9.8815C14.3157 9.66013 14.1361 9.48047 13.9147 9.48047Z" fill="currentColor"/>
</g>
<defs>
<clipPath id="clip0">
<rect width="17" height="17" fill="currentColor"/>
</clipPath>
</defs>
</svg>
