<svg width="18" height="18" viewBox="0 0 18 18" fill="none" xmlns="http://www.w3.org/2000/svg">
<path d="M16.5938 13.2188C16.5938 11.4753 15.4538 9.99506 13.8808 9.47869C14.497 9.07706 14.9062 8.38266 14.9062 7.59375C14.9062 6.35316 13.8968 5.34375 12.6562 5.34375C12.5373 5.34375 12.4214 5.35584 12.3075 5.37356C12.3232 5.328 12.3432 5.28356 12.357 5.23744L12.9375 5.10075V3.35081L12.3576 3.21413C12.2895 2.98575 12.1981 2.76525 12.0842 2.55516L12.3978 2.04806L11.1707 0.820687L10.6636 1.13456C10.4538 1.02122 10.2333 0.929531 10.0043 0.861188L9.86794 0.28125H8.13206L7.99566 0.861188C7.767 0.929531 7.54622 1.02094 7.33641 1.13456L6.82931 0.820687L5.60222 2.04806L5.91581 2.55516C5.80219 2.76525 5.71078 2.98575 5.64244 3.21413L5.0625 3.35109V5.10131L5.64272 5.238C5.6565 5.28384 5.67647 5.32828 5.69222 5.37384C5.57859 5.35584 5.46272 5.34375 5.34375 5.34375C4.10316 5.34375 3.09375 6.35316 3.09375 7.59375C3.09375 8.38266 3.50297 9.07706 4.11919 9.47869C2.54616 9.99506 1.40625 11.4753 1.40625 13.2188V14.3438H5.77322C5.32659 14.9822 5.0625 15.7573 5.0625 16.5938V17.7188H12.9375V16.5938C12.9375 15.7573 12.6734 14.9822 12.2268 14.3438H16.5938V13.2188ZM13.2188 10.125C13.2188 10.5823 12.9611 10.9688 12.6562 10.9688C12.3514 10.9688 12.0938 10.5823 12.0938 10.125C12.0938 10.0451 12.105 9.96609 12.1219 9.88762C12.2979 9.8595 12.4762 9.84375 12.6562 9.84375C12.8388 9.84375 13.0168 9.86231 13.1915 9.89044C13.2078 9.96806 13.2188 10.0463 13.2188 10.125ZM9 12.6562C8.06934 12.6562 7.3125 11.8994 7.3125 10.9688C7.3125 10.0381 8.06934 9.28125 9 9.28125C9.93066 9.28125 10.6875 10.0381 10.6875 10.9688C10.6875 11.8994 9.93066 12.6562 9 12.6562ZM6.81075 10.1807C6.83466 10.1922 6.85884 10.2029 6.88247 10.215C6.79838 10.4513 6.75 10.7041 6.75 10.9688C6.75 11.081 6.76097 11.1907 6.777 11.2987L6.40238 12.123L5.72062 11.2711L6.81075 10.1807ZM9 8.71875C8.22431 8.71875 7.53919 9.11334 7.13447 9.71241C6.95222 9.61931 6.76294 9.54197 6.56888 9.47841C7.18481 9.0765 7.59375 8.38237 7.59375 7.59375C7.59375 7.54144 7.58953 7.49025 7.58588 7.43906C7.71919 7.49784 7.85588 7.54875 7.99566 7.59066L8.13206 8.17059H9.86794L10.0043 7.59066C10.1441 7.54875 10.2808 7.49784 10.4141 7.43906C10.4105 7.49025 10.4062 7.54144 10.4062 7.59375C10.4062 8.38266 10.8152 9.0765 11.4311 9.47841C11.2373 9.54169 11.0481 9.61959 10.8658 9.71269C10.4611 9.11363 9.77569 8.71875 9 8.71875ZM14.3438 7.59375C14.3438 8.52441 13.5869 9.28125 12.6562 9.28125C11.7256 9.28125 10.9688 8.52441 10.9688 7.59375C10.9688 6.66309 11.7256 5.90625 12.6562 5.90625C13.5869 5.90625 14.3438 6.66309 14.3438 7.59375ZM6.14334 4.93538L6.10228 4.76803L5.625 4.65553V3.79603L6.102 3.68381L6.14306 3.51647C6.21394 3.22734 6.32812 2.95087 6.48338 2.6955L6.57253 2.54841L6.31434 2.13131L6.912 1.53366L7.32909 1.79184L7.47619 1.70241C7.731 1.54772 8.00747 1.43297 8.29744 1.36209L8.46478 1.32103L8.57756 0.84375H9.42244L9.53466 1.32075L9.702 1.36181C9.99197 1.43297 10.2684 1.54744 10.5233 1.70213L10.6703 1.79156L11.0874 1.53338L11.6851 2.13103L11.4272 2.54841L11.5163 2.6955C11.6716 2.95087 11.7858 3.22734 11.8567 3.51647L11.8977 3.68381L12.375 3.79631V4.65581L11.898 4.76803L11.8569 4.93538C11.8001 5.16797 11.7079 5.39466 11.5912 5.61262C11.1448 5.85366 10.7887 6.24122 10.5877 6.71034L10.5235 6.74916C10.2687 6.90384 9.99225 7.01859 9.70228 7.08947L9.53494 7.13053L9.42272 7.60753H8.57784L8.46563 7.13025L8.29828 7.08919C8.00887 7.01831 7.73241 6.90384 7.47703 6.74888L7.41291 6.71006C7.21181 6.24066 6.85575 5.85309 6.40941 5.61206C6.29241 5.39466 6.20016 5.16797 6.14334 4.93538ZM3.65625 7.59375C3.65625 6.66309 4.41309 5.90625 5.34375 5.90625C6.27441 5.90625 7.03125 6.66309 7.03125 7.59375C7.03125 8.52441 6.27441 9.28125 5.34375 9.28125C4.41309 9.28125 3.65625 8.52441 3.65625 7.59375ZM6.23278 9.96328L5.34375 10.8523L4.45725 9.96581C4.74019 9.88847 5.03662 9.84375 5.34375 9.84375C5.64609 9.84375 5.94478 9.88481 6.23278 9.96328ZM4.96688 11.2708L4.28513 12.1227L3.49988 10.3953C3.62081 10.316 3.74794 10.2462 3.879 10.1827L4.96688 11.2708ZM1.96875 13.2188C1.96875 12.2462 2.38472 11.3709 3.04537 10.7544L4.15237 13.1898L5.34375 11.7003L6.53512 13.1898L7.04222 12.0741C7.22081 12.3891 7.47281 12.6568 7.77516 12.854C7.19578 13.0441 6.67575 13.3644 6.24937 13.7815H3.375V12.094H2.8125V13.7815H1.96875V13.2188ZM9 13.2188C9.48881 13.2188 9.95231 13.3253 10.3722 13.5132L9 16.7217L7.62778 13.5129C8.04769 13.3253 8.51119 13.2188 9 13.2188ZM5.625 16.5938C5.625 15.4232 6.22434 14.3907 7.13194 13.7852L8.57362 17.1562H7.03125V15.4688H6.46875V17.1562H5.625V16.5938ZM12.375 17.1562H11.5312V15.4688H10.9688V17.1562H9.42637L10.8681 13.7852C11.7757 14.3907 12.375 15.4232 12.375 16.5938V17.1562ZM16.0312 13.7812H15.1875V12.0938H14.625V13.7812H11.7503C11.324 13.3642 10.8037 13.0438 10.2246 12.8537C10.8408 12.4521 11.25 11.7577 11.25 10.9688C11.25 10.7044 11.2016 10.4515 11.1175 10.2156C11.2539 10.1455 11.3948 10.0848 11.5391 10.0344C11.5374 10.0645 11.5312 10.0946 11.5312 10.125C11.5312 10.9004 12.0358 11.5312 12.6562 11.5312C13.2767 11.5312 13.7812 10.9004 13.7812 10.125C13.7812 10.0957 13.7753 10.0671 13.7737 10.0378C15.0863 10.5005 16.0312 11.7498 16.0312 13.2188V13.7812Z" fill="white"/>
<path d="M9 5.34375C9.62044 5.34375 10.125 4.83919 10.125 4.21875C10.125 3.59831 9.62044 3.09375 9 3.09375C8.37956 3.09375 7.875 3.59831 7.875 4.21875C7.875 4.83919 8.37956 5.34375 9 5.34375ZM9 3.65625C9.31022 3.65625 9.5625 3.90853 9.5625 4.21875C9.5625 4.52897 9.31022 4.78125 9 4.78125C8.68978 4.78125 8.4375 4.52897 8.4375 4.21875C8.4375 3.90853 8.68978 3.65625 9 3.65625Z" fill="white"/>
<path d="M9 6.46875C10.2406 6.46875 11.25 5.45934 11.25 4.21875C11.25 2.97816 10.2406 1.96875 9 1.96875C7.75941 1.96875 6.75 2.97816 6.75 4.21875C6.75 5.45934 7.75941 6.46875 9 6.46875ZM9 2.53125C9.93066 2.53125 10.6875 3.28809 10.6875 4.21875C10.6875 5.14941 9.93066 5.90625 9 5.90625C8.06934 5.90625 7.3125 5.14941 7.3125 4.21875C7.3125 3.28809 8.06934 2.53125 9 2.53125Z" fill="white"/>
</svg>
