<svg width="15" height="16" viewBox="0 0 15 16" fill="none" xmlns="http://www.w3.org/2000/svg">
<path d="M7.58335 5.375H1.89692C1.77424 5.375 1.6748 5.47446 1.6748 5.59712C1.6748 5.7198 1.77424 5.81923 1.89692 5.81923H7.58338C7.70606 5.81923 7.8055 5.71977 7.8055 5.59712C7.8055 5.47446 7.70607 5.375 7.58335 5.375Z" fill="currentColor"/>
<path d="M7.58433 6.9375H1.8979C1.77521 6.9375 1.67578 7.03696 1.67578 7.15962C1.67578 7.28227 1.77521 7.38173 1.8979 7.38173H7.58436C7.70704 7.38173 7.80647 7.28227 7.80647 7.15962C7.80647 7.03696 7.70704 6.9375 7.58433 6.9375Z" fill="currentColor"/>
<path d="M7.58433 8.5H1.8979C1.77521 8.5 1.67578 8.59946 1.67578 8.72211C1.67578 8.84477 1.77521 8.94423 1.8979 8.94423H7.58436C7.70704 8.94423 7.80647 8.84477 7.80647 8.72211C7.80647 8.59946 7.70704 8.5 7.58433 8.5Z" fill="currentColor"/>
<path d="M7.8055 10.2807C7.8055 10.158 7.70606 10.0586 7.58338 10.0586H1.89692C1.77424 10.0586 1.6748 10.1581 1.6748 10.2807C1.6748 10.4034 1.77424 10.5028 1.89692 10.5028H7.58338C7.70606 10.5028 7.8055 10.4034 7.8055 10.2807Z" fill="currentColor"/>
<path d="M1.8979 12.3477C1.77521 12.3477 1.67578 12.4471 1.67578 12.5698C1.67578 12.6924 1.77521 12.7919 1.8979 12.7919H4.7484C4.87108 12.7919 4.97051 12.6924 4.97051 12.5698C4.97051 12.4471 4.87108 12.3477 4.7484 12.3477H1.8979Z" fill="currentColor"/>
<path d="M10.1422 2.74997V2.02921C10.1422 1.75464 9.91886 1.53125 9.64426 1.53125H5.08387C4.8093 1.53125 4.58594 1.75464 4.58594 2.02921V2.74997C4.58594 3.02454 4.8093 3.2479 5.08387 3.2479H5.46898C5.59166 3.2479 5.69109 3.14843 5.69109 3.02578C5.69109 2.9031 5.59166 2.80367 5.46898 2.80367H5.08387C5.05428 2.80367 5.0302 2.77959 5.0302 2.75V2.02921C5.0302 1.99962 5.05428 1.97551 5.08387 1.97551H9.64426C9.67388 1.97551 9.69796 1.99959 9.69796 2.02921V2.74997C9.69796 2.77956 9.67388 2.80364 9.64426 2.80364H6.50743C6.38475 2.80364 6.28532 2.9031 6.28532 3.02575C6.28532 3.14843 6.38475 3.24787 6.50743 3.24787H9.64429C9.91886 3.24793 10.1422 3.02454 10.1422 2.74997Z" fill="currentColor"/>
<path d="M11.8025 13.5448C11.6798 13.5448 11.5804 13.6443 11.5804 13.7669V14.066C11.5804 14.4271 11.2867 14.7208 10.9256 14.7208H1.09902C0.737995 14.7208 0.44423 14.4271 0.44423 14.066V3.38928C0.44423 3.34121 0.449858 3.29405 0.459899 3.24817H2.48239C2.90465 3.24817 3.24817 2.90465 3.24817 2.48239V0.459929C3.29405 0.449888 3.34118 0.44426 3.38925 0.44426H10.9256C11.2866 0.44426 11.5804 0.737995 11.5804 1.09905V4.0563C11.5804 4.17899 11.6798 4.27842 11.8025 4.27842C11.9252 4.27842 12.0246 4.17896 12.0246 4.0563V1.09902C12.0246 0.493043 11.5316 0 10.9256 0H3.38928C3.09572 0 2.8197 0.114331 2.61213 0.321903L0.321873 2.61216C0.114301 2.81973 0 3.09572 0 3.38931V14.0661C0 14.6721 0.493013 15.1651 1.09902 15.1651H10.9256C11.5316 15.1651 12.0246 14.672 12.0246 14.0661V13.7669C12.0246 13.6443 11.9252 13.5448 11.8025 13.5448ZM2.80394 0.758373V2.48239C2.80394 2.6597 2.6597 2.80394 2.48239 2.80394H0.758373L2.80394 0.758373Z" fill="currentColor"/>
<path d="M14.8448 7.93645C15.0007 7.70759 15.0411 7.42529 14.9555 7.16191C14.8699 6.89854 14.6713 6.69387 14.4107 6.60039C14.2378 6.53836 14.1224 6.3796 14.1169 6.19597C14.1085 5.91917 13.9752 5.66705 13.7511 5.50427C13.5271 5.34151 13.2461 5.29267 12.9803 5.37021C12.8039 5.42169 12.6174 5.36103 12.5049 5.21574C12.3355 4.99671 12.0794 4.87109 11.8025 4.87109C11.5256 4.87109 11.2695 4.99671 11.1001 5.21574C10.9876 5.36106 10.801 5.42163 10.6247 5.37021C10.3589 5.29261 10.0779 5.34151 9.85382 5.50427C9.62978 5.66705 9.49652 5.91914 9.48811 6.19594C9.48257 6.37958 9.36723 6.53831 9.19429 6.60036C8.93364 6.69384 8.73504 6.89854 8.6495 7.16188C8.56393 7.42526 8.60427 7.70759 8.76019 7.93642C8.86362 8.08828 8.86362 8.28448 8.76019 8.43631C8.60427 8.66518 8.56393 8.94748 8.6495 9.21086C8.73504 9.47423 8.93364 9.6789 9.19429 9.77241C9.36723 9.83446 9.4826 9.99319 9.48811 10.1768C9.49584 10.4314 9.61251 10.6707 9.8083 10.8331C9.93746 10.9404 10.0926 11.0074 10.255 11.0299V13.0522C10.255 13.2228 10.3476 13.3806 10.4966 13.4638C10.6453 13.5469 10.8282 13.5432 10.9736 13.4537L11.7883 12.9522C11.8016 12.944 11.8095 12.9477 11.8168 12.9522L12.6314 13.4537C12.7768 13.5431 12.9596 13.547 13.1085 13.4637C13.2575 13.3805 13.3501 13.2228 13.3501 13.0522V11.0298C13.5124 11.0074 13.6676 10.9403 13.7967 10.8331C13.9926 10.6707 14.1093 10.4315 14.117 10.1768C14.1225 9.99316 14.2379 9.8344 14.4108 9.77238C14.6715 9.6789 14.8701 9.4742 14.9556 9.21083C15.0412 8.94745 15.0008 8.66515 14.8449 8.43628C14.7414 8.28451 14.7414 8.08831 14.8448 7.93645ZM12.8643 13.0754L12.0496 12.5739C11.8982 12.4806 11.707 12.4805 11.5554 12.5739L10.7407 13.0753C10.7222 13.0866 10.6993 13.0736 10.6993 13.0522V10.9877C10.852 10.97 11.0034 11.0321 11.1001 11.1571C11.2696 11.3761 11.5256 11.5017 11.8025 11.5017C12.0794 11.5017 12.3355 11.3761 12.5049 11.1571C12.6016 11.0321 12.753 10.97 12.9057 10.9877V13.0522C12.9057 13.0738 12.8825 13.0867 12.8643 13.0754ZM14.4777 8.6865C14.5556 8.80089 14.5758 8.94197 14.533 9.0736C14.4902 9.20523 14.391 9.30753 14.2607 9.35427C13.9147 9.47838 13.684 9.79598 13.6728 10.1634C13.6689 10.2926 13.6121 10.409 13.513 10.4913C13.4015 10.5838 13.2506 10.6187 13.1048 10.5762C12.752 10.4732 12.3785 10.5945 12.1536 10.8852C12.0689 10.9946 11.9409 11.0574 11.8025 11.0574C11.6641 11.0574 11.5361 10.9947 11.4514 10.8852C11.2796 10.6632 11.0213 10.54 10.7517 10.54C10.6682 10.54 10.5836 10.5518 10.5002 10.5761C10.353 10.619 10.2025 10.5831 10.0919 10.4913C9.99279 10.409 9.93601 10.2926 9.93213 10.1634C9.921 9.79598 9.69026 9.47838 9.34422 9.35424C9.21395 9.3075 9.11473 9.20523 9.07193 9.0736C9.02916 8.94197 9.0493 8.80087 9.12726 8.68648C9.33421 8.38267 9.33421 7.99012 9.12726 7.68632C9.0493 7.57193 9.02916 7.43082 9.07193 7.29917C9.1147 7.16754 9.21395 7.06523 9.34422 7.01852C9.69026 6.89439 9.921 6.57678 9.93213 6.20935C9.93631 6.071 10.0029 5.945 10.1149 5.86367C10.2268 5.7823 10.3672 5.7579 10.5002 5.79664C10.8529 5.89962 11.2264 5.77827 11.4514 5.48759C11.5361 5.37812 11.664 5.31532 11.8025 5.31532C11.9409 5.31532 12.0688 5.37809 12.1536 5.48756C12.3785 5.77827 12.7518 5.89959 13.1048 5.79664C13.2376 5.75784 13.378 5.78227 13.49 5.86364C13.602 5.94497 13.6687 6.071 13.6728 6.20932C13.684 6.57675 13.9147 6.89439 14.2607 7.01849C14.391 7.0652 14.4902 7.16751 14.533 7.29914C14.5758 7.43076 14.5556 7.5719 14.4777 7.68626C14.2707 7.9901 14.2707 8.3827 14.4777 8.6865Z" fill="currentColor"/>
<path d="M11.8031 6.32422C10.7766 6.32422 9.94141 7.15937 9.94141 8.18591C9.94141 9.21246 10.7766 10.0476 11.8031 10.0476C12.8296 10.0476 13.6648 9.21246 13.6648 8.18591C13.6648 7.15937 12.8296 6.32422 11.8031 6.32422ZM11.8031 9.60337C11.0215 9.60337 10.3856 8.9675 10.3856 8.18594C10.3856 7.40438 11.0215 6.76848 11.8031 6.76848C12.5847 6.76848 13.2205 7.40435 13.2205 8.18594C13.2205 8.96753 12.5847 9.60337 11.8031 9.60337Z" fill="currentColor"/>
</svg>
