<svg width="28" height="28" viewBox="0 0 28 28" fill="none" xmlns="http://www.w3.org/2000/svg">
<g clip-path="url(#clip0)">
<path d="M25.9365 18.2429C25.65 18.4681 25.4793 18.8203 25.4797 19.185C25.4842 22.6661 22.6682 25.4788 19.1944 25.4788C19.191 25.4788 19.1875 25.4788 19.1843 25.4788C18.8202 25.4788 18.4687 25.6495 18.2438 25.9357C16.0795 28.6897 11.9181 28.6855 9.75716 25.9356C9.53229 25.6495 9.18071 25.4788 8.81661 25.4788C8.81328 25.4786 8.80978 25.4788 8.80655 25.4788C5.32551 25.4789 2.51683 22.6583 2.52126 19.1849C2.52175 18.8202 2.35097 18.4681 2.06447 18.2429C-0.689527 16.0786 -0.68548 11.9172 2.06447 9.75628C2.35102 9.53108 2.52175 9.1789 2.52131 8.8142C2.51688 5.33321 5.33284 2.52043 8.80666 2.52043C8.81005 2.52043 8.81366 2.52048 8.81672 2.52043C9.18088 2.52043 9.53235 2.34975 9.75727 2.06358C10.7879 0.752153 12.3345 0 14.0006 0C14.6046 0 15.0943 0.489659 15.0943 1.09372C15.0943 1.69779 14.6046 2.18744 14.0006 2.18744C13.0101 2.18744 12.0903 2.635 11.4771 3.4152C10.8314 4.23686 9.86194 4.70793 8.81689 4.70793C8.8135 4.70787 8.81011 4.70787 8.80677 4.70793C6.53697 4.70793 4.70586 6.54658 4.70876 8.81152C4.71007 9.85837 4.23895 10.8296 3.41609 11.4763C1.77753 12.764 1.78004 15.2374 3.41609 16.5231C4.23889 17.1697 4.71007 18.141 4.70876 19.1878C4.7058 21.4577 6.54184 23.2914 8.80672 23.2914C9.87856 23.2914 10.8395 23.7728 11.4771 24.5841C12.7648 26.2227 15.2382 26.2201 16.5239 24.5841C17.1696 23.7625 18.1391 23.2914 19.1842 23.2914C19.1875 23.2914 19.1909 23.2914 19.1943 23.2914C21.4633 23.2914 23.2952 21.4535 23.2923 19.1879C23.291 18.141 23.7621 17.1697 24.585 16.5231C25.7301 15.6232 26.0805 14.1335 25.6112 12.8774C25.3997 12.3115 25.6871 11.6814 26.2528 11.47C26.8186 11.2584 27.4488 11.5459 27.6602 12.1117C28.4479 14.2196 27.8664 16.7264 25.9365 18.2429ZM9.69859 19.4121H14.0006C14.6046 19.4121 15.0943 18.9225 15.0943 18.3184C15.0943 17.7144 14.6046 17.2247 14.0006 17.2247H12.291L14.6838 14.7684C15.3571 14.0772 14.8664 12.9115 13.9004 12.9115H9.83082C9.22676 12.9115 8.7371 13.4012 8.7371 14.0052C8.7371 14.6093 9.22676 15.0989 9.83082 15.0989H11.308L8.91516 17.5552C8.24186 18.2464 8.73251 19.4121 9.69859 19.4121ZM17.2298 10.7914H23.6771C24.2812 10.7914 24.7708 10.3017 24.7708 9.69765C24.7708 9.09359 24.2812 8.60393 23.6771 8.60393H19.8221L24.3104 3.99668C24.9843 3.3049 24.4923 2.13976 23.527 2.13976H17.428C16.8239 2.13976 16.3343 2.62942 16.3343 3.23348C16.3343 3.83754 16.8239 4.3272 17.428 4.3272H20.9347L16.4464 8.93445C15.7725 9.62623 16.2645 10.7914 17.2298 10.7914Z" fill="currentColor"/>
</g>
<defs>
<clipPath id="clip0">
<rect width="28" height="28" fill="currentColor"/>
</clipPath>
</defs>
</svg>
