<svg width="18" height="18" viewBox="0 0 18 18" fill="none" xmlns="http://www.w3.org/2000/svg">
<path d="M8.99951 0C5.51018 0 2.67139 2.8388 2.67139 6.32812C2.67139 7.50705 2.99795 8.65758 3.616 9.65574L8.6393 17.7507C8.73552 17.9058 8.90505 18 9.08737 18C9.08877 18 9.09015 18 9.09155 18C9.27545 17.9986 9.44533 17.9014 9.53979 17.7436L14.4351 9.57023C15.019 8.59317 15.3276 7.47207 15.3276 6.32812C15.3276 2.8388 12.4888 0 8.99951 0ZM13.53 9.02876L9.07939 16.4597L4.51241 9.10005C3.99797 8.26924 3.71904 7.31074 3.71904 6.32812C3.71904 3.42035 6.09174 1.04766 8.99951 1.04766C11.9073 1.04766 14.2765 3.42035 14.2765 6.32812C14.2765 7.2816 14.0159 8.21559 13.53 9.02876Z" fill="#F1D261"/>
<path d="M9.00073 3.16406C7.25607 3.16406 5.83667 4.58346 5.83667 6.32812C5.83667 8.06164 7.23297 9.49219 9.00073 9.49219C10.7903 9.49219 12.1648 8.04259 12.1648 6.32812C12.1648 4.58346 10.7454 3.16406 9.00073 3.16406ZM9.00073 8.44453C7.83154 8.44453 6.88433 7.49415 6.88433 6.32812C6.88433 5.16502 7.83762 4.21172 9.00073 4.21172C10.1638 4.21172 11.1136 5.16502 11.1136 6.32812C11.1136 7.47714 10.1885 8.44453 9.00073 8.44453Z" fill="#F1D261"/>
</svg>
