<svg width="25" height="25" viewBox="0 0 25 25" fill="none" xmlns="http://www.w3.org/2000/svg">
<g clip-path="url(#clip0)">
<path d="M22.8419 21.0851L21.0523 18.1039C20.2273 16.7279 19.7908 15.1529 19.7908 13.5477V10.9362C19.7908 6.9164 16.5189 3.64453 12.4992 3.64453C8.47938 3.64453 5.2075 6.9164 5.2075 10.9362V13.5477C5.2075 15.1529 4.77103 16.7279 3.94603 18.1039L2.15643 21.0851C2.05955 21.2455 2.05745 21.4466 2.14915 21.6091C2.24188 21.7726 2.4158 21.8737 2.6033 21.8737H22.395C22.5825 21.8737 22.7564 21.7727 22.8491 21.6091C22.9408 21.4466 22.9388 21.2455 22.8419 21.0851ZM3.52313 20.832L4.83875 18.6393C5.76165 17.1018 6.24915 15.3414 6.24915 13.5477V10.9362C6.24915 7.4893 9.05228 4.68618 12.4992 4.68618C15.946 4.68618 18.7492 7.4893 18.7492 10.9362V13.5477C18.7492 15.3414 19.2367 17.1018 20.1585 18.6393L21.4752 20.832H3.52313Z" fill="currentColor"/>
<path d="M12.5013 0C11.3523 0 10.418 0.934375 10.418 2.08335V4.1667C10.418 4.45415 10.6513 4.6875 10.9388 4.6875C11.2263 4.6875 11.4597 4.45415 11.4597 4.16665V2.08335C11.4597 1.50835 11.9263 1.0417 12.5013 1.0417C13.0763 1.0417 13.543 1.50835 13.543 2.08335V4.1667C13.543 4.45415 13.7763 4.6875 14.0638 4.6875C14.3513 4.6875 14.5847 4.45415 14.5847 4.16665V2.08335C14.5847 0.934375 13.6503 0 12.5013 0Z" fill="currentColor"/>
<path d="M14.7568 21.0926C14.6099 20.8447 14.2922 20.7634 14.0433 20.9061C13.7943 21.052 13.711 21.3718 13.8568 21.6197C13.9922 21.8499 14.0662 22.1259 14.0662 22.3978C14.0662 23.2593 13.3651 23.9603 12.5037 23.9603C11.6422 23.9603 10.9412 23.2593 10.9412 22.3978C10.9412 22.1259 11.0151 21.8499 11.1505 21.6197C11.2953 21.3707 11.212 21.0519 10.9641 20.9061C10.713 20.7634 10.3963 20.8447 10.2505 21.0926C10.0203 21.4864 9.89844 21.9374 9.89844 22.3978C9.89849 23.8343 11.0662 25.002 12.5026 25.002C13.9391 25.002 15.1068 23.8343 15.1089 22.3978C15.1089 21.9374 14.987 21.4864 14.7568 21.0926Z" fill="currentColor"/>
</g>
<circle cx="19.5" cy="6.5" r="3.5" fill="#EB1C40"/>
<defs>
<clipPath id="clip0">
<rect width="25" height="25" fill="currentColor"/>
</clipPath>
</defs>
</svg>
