<svg width="10" height="15" viewBox="0 0 10 15" fill="none" xmlns="http://www.w3.org/2000/svg">
<path d="M1.86842 6.71053V7.21053H2.36842H8.88158C9.15045 7.21053 9.36842 7.4285 9.36842 7.69737V14.0132C9.36842 14.282 9.15045 14.5 8.88158 14.5H0.986842C0.717971 14.5 0.5 14.282 0.5 14.0132V7.69737C0.5 7.4285 0.717971 7.21053 0.986842 7.21053H1.18421H1.68421V6.71053V3.75C1.68421 1.95839 3.1426 0.5 4.93421 0.5C6.72582 0.5 8.18421 1.95839 8.18421 3.75V4.93421C8.18421 4.98507 8.14296 5.02632 8.09211 5.02632C8.04125 5.02632 8 4.98507 8 4.93421V3.75C8 2.05908 6.62513 0.684211 4.93421 0.684211C3.24329 0.684211 1.86842 2.05908 1.86842 3.75V6.71053ZM5.52632 13.3289H6.02632V12.8289V11.3475C6.3879 11.0392 6.61842 10.5798 6.61842 10.0658C6.61842 9.1356 5.86434 8.38158 4.93421 8.38158C4.00403 8.38158 3.25 9.13561 3.25 10.0658C3.25 10.5798 3.48052 11.0392 3.84211 11.3475V12.8289V13.3289H4.34211H5.52632Z" stroke="currentColor"/>
</svg>
