<svg width="52" height="55" viewBox="0 0 52 55" fill="none" xmlns="http://www.w3.org/2000/svg">
<g clip-path="url(#clip0)">
<path d="M26.0001 29.2963C33.695 29.2959 36.4636 21.1468 37.1885 14.4529C38.0814 6.20637 34.3947 0 26.0001 0C17.6069 0 13.9182 6.20592 14.8117 14.4528C15.5373 21.1466 18.3051 29.2969 26.0001 29.2963Z" fill="#A5A5A5"/>
<path d="M46.8153 48.7025C46.7311 46.1049 46.4433 43.4955 46.0148 40.9384C45.4955 37.8407 44.8347 33.2993 42.2777 31.2806C40.7989 30.1134 38.884 29.7304 37.1911 29.0266C36.3672 28.6842 35.629 28.3441 34.9363 27.957C32.5982 30.6689 29.5494 32.0876 25.9989 32.0878C22.4495 32.0878 19.4011 30.6691 17.0632 27.957C16.3704 28.3442 15.6323 28.6843 14.8084 29.0266C13.1155 29.7304 11.2006 30.1133 9.72201 31.2806C7.16483 33.2993 6.50404 37.8407 5.98489 40.9384C5.55623 43.4955 5.26836 46.1049 5.18433 48.7025C5.11924 50.7144 6.05847 50.9964 7.64982 51.6038C9.64256 52.3639 11.6999 52.9282 13.771 53.3908C17.771 54.2841 21.8941 54.9708 25.9995 55.0016C30.105 54.9707 34.2281 54.2841 38.2281 53.3908C40.2992 52.9284 42.3567 52.3641 44.3492 51.6038C45.9412 50.9966 46.8803 50.7145 46.8153 48.7025Z" fill="#A5A5A5"/>
</g>
<defs>
<clipPath id="clip0">
<rect width="52" height="55" fill="white"/>
</clipPath>
</defs>
</svg>
