<svg width="16" height="16" viewBox="0 0 16 16" fill="none" xmlns="http://www.w3.org/2000/svg">
<g clip-path="url(#clip0)">
<path d="M6.09533 1.96875H5.22852C5.09908 1.96875 4.99414 2.07369 4.99414 2.20312C4.99414 2.33256 5.09908 2.4375 5.22852 2.4375H6.09533C6.22476 2.4375 6.3297 2.33256 6.3297 2.20312C6.3297 2.07369 6.22476 1.96875 6.09533 1.96875V1.96875Z" fill="currentColor"/>
<path d="M7.4043 2.4375H10.7711C10.9006 2.4375 11.0055 2.33256 11.0055 2.20312C11.0055 2.07369 10.9006 1.96875 10.7711 1.96875H7.4043C7.27486 1.96875 7.16992 2.07369 7.16992 2.20312C7.16992 2.33256 7.27486 2.4375 7.4043 2.4375Z" fill="currentColor"/>
<path d="M6.09533 3.3125H5.22852C5.09908 3.3125 4.99414 3.41744 4.99414 3.54688C4.99414 3.67631 5.09908 3.78125 5.22852 3.78125H6.09533C6.22476 3.78125 6.3297 3.67631 6.3297 3.54688C6.3297 3.41744 6.22476 3.3125 6.09533 3.3125Z" fill="currentColor"/>
<path d="M7.4043 3.78125H10.7711C10.9006 3.78125 11.0055 3.67631 11.0055 3.54688C11.0055 3.41744 10.9006 3.3125 10.7711 3.3125H7.4043C7.27486 3.3125 7.16992 3.41744 7.16992 3.54688C7.16992 3.67631 7.27486 3.78125 7.4043 3.78125Z" fill="currentColor"/>
<path d="M6.09533 4.66016H5.22852C5.09908 4.66016 4.99414 4.76509 4.99414 4.89453C4.99414 5.02397 5.09908 5.12891 5.22852 5.12891H6.09533C6.22476 5.12891 6.3297 5.02397 6.3297 4.89453C6.3297 4.76509 6.22476 4.66016 6.09533 4.66016Z" fill="currentColor"/>
<path d="M7.4043 5.12891H10.7711C10.9006 5.12891 11.0055 5.02397 11.0055 4.89453C11.0055 4.76509 10.9006 4.66016 10.7711 4.66016H7.4043C7.27486 4.66016 7.16992 4.76509 7.16992 4.89453C7.16992 5.02397 7.27486 5.12891 7.4043 5.12891Z" fill="currentColor"/>
<path d="M11.0779 12.961V11.8154C11.0779 11.592 10.8961 11.4102 10.6727 11.4102H5.32612C5.10268 11.4102 4.9209 11.5919 4.9209 11.8154V12.961C4.9209 13.1844 5.10268 13.3662 5.32612 13.3662H10.6727C10.8961 13.3662 11.0779 13.1844 11.0779 12.961ZM10.6092 12.8975H5.38965V11.8789H10.6092V12.8975Z" fill="currentColor"/>
<path d="M6.09533 6.00391H5.22852C5.09908 6.00391 4.99414 6.10884 4.99414 6.23828C4.99414 6.36772 5.09908 6.47266 5.22852 6.47266H6.09533C6.22476 6.47266 6.3297 6.36772 6.3297 6.23828C6.3297 6.10884 6.22476 6.00391 6.09533 6.00391Z" fill="currentColor"/>
<path d="M7.4043 6.47266H10.7711C10.9006 6.47266 11.0055 6.36772 11.0055 6.23828C11.0055 6.10884 10.9006 6.00391 10.7711 6.00391H7.4043C7.27486 6.00391 7.16992 6.10884 7.16992 6.23828C7.16992 6.36772 7.27486 6.47266 7.4043 6.47266Z" fill="currentColor"/>
<path d="M6.09533 7.34766H5.22852C5.09908 7.34766 4.99414 7.45259 4.99414 7.58203C4.99414 7.71147 5.09908 7.81641 5.22852 7.81641H6.09533C6.22476 7.81641 6.3297 7.71147 6.3297 7.58203C6.3297 7.45259 6.22476 7.34766 6.09533 7.34766Z" fill="currentColor"/>
<path d="M7.4043 7.81641H10.7711C10.9006 7.81641 11.0055 7.71147 11.0055 7.58203C11.0055 7.45259 10.9006 7.34766 10.7711 7.34766H7.4043C7.27486 7.34766 7.16992 7.45259 7.16992 7.58203C7.16992 7.71147 7.27486 7.81641 7.4043 7.81641Z" fill="currentColor"/>
<path d="M6.22266 14.1211C6.09322 14.1211 5.98828 14.226 5.98828 14.3555C5.98828 14.4849 6.09322 14.5898 6.22266 14.5898H9.77706C9.90653 14.5898 10.0114 14.4849 10.0114 14.3555C10.0114 14.226 9.90653 14.1211 9.77706 14.1211H6.22266Z" fill="currentColor"/>
<path d="M15.7656 9.01088H14.7655L15.3672 4.93663C15.3861 4.80856 15.2976 4.68944 15.1696 4.67053C15.0415 4.6515 14.9224 4.74009 14.9034 4.86816L14.2916 9.01088H12.3178V1.71037L15.239 2.18072C15.2598 2.18406 15.2723 2.196 15.2791 2.20544C15.2859 2.21487 15.2933 2.23047 15.2895 2.25425L15.043 3.92322C15.0241 4.05128 15.1126 4.17041 15.2406 4.18931C15.2522 4.19103 15.2637 4.19187 15.2751 4.19187C15.3894 4.19187 15.4895 4.10816 15.5067 3.99172L15.7527 2.32575C15.7753 2.18591 15.7419 2.04569 15.659 1.93087C15.576 1.81606 15.4533 1.74044 15.3135 1.71794L12.3178 1.23556V0.756844C12.3178 0.464469 12.0799 0.226562 11.7875 0.226562H7.69656C7.56712 0.226562 7.46219 0.3315 7.46219 0.460938C7.46219 0.590375 7.56712 0.695312 7.69656 0.695312H11.7876C11.8215 0.695312 11.8491 0.722906 11.8491 0.756844V9.01088H10.6064C10.3106 9.01088 10.0422 9.19709 9.93866 9.47428L9.70616 10.0967C9.67069 10.1916 9.57878 10.2554 9.47747 10.2554H6.52259C6.42128 10.2554 6.32937 10.1916 6.29391 10.0967L6.06138 9.47425C5.95784 9.19709 5.68947 9.01088 5.39359 9.01088H4.15094V0.756844C4.15094 0.722937 4.17853 0.695312 4.21247 0.695312H6.75947C6.88891 0.695312 6.99384 0.590375 6.99384 0.460938C6.99384 0.3315 6.88891 0.226562 6.75947 0.226562H4.21247C3.92009 0.226562 3.68219 0.464437 3.68219 0.756844V1.23556L0.6865 1.71791C0.546656 1.74041 0.423969 1.81603 0.340969 1.93084C0.258 2.04566 0.224719 2.18588 0.24675 2.32272L1.23456 9.01088H0.234375C0.104937 9.01088 0 9.11578 0 9.24525V13.5742C0 14.7878 0.987375 15.7752 2.201 15.7752H3.21644C3.34588 15.7752 3.45081 15.6702 3.45081 15.5408C3.45081 15.4113 3.34588 15.3064 3.21644 15.3064H2.201C1.24584 15.3064 0.46875 14.5293 0.46875 13.5742V9.47963H5.39356C5.49487 9.47963 5.58678 9.54338 5.62222 9.63831L5.85475 10.2608C5.95831 10.5379 6.22669 10.7242 6.52256 10.7242H9.47744C9.77331 10.7242 10.0417 10.5379 10.1452 10.2607L10.3777 9.63831C10.4132 9.54341 10.5051 9.47963 10.6064 9.47963H15.5312V13.5742C15.5312 14.5293 14.7542 15.3064 13.799 15.3064H4.15353C4.02409 15.3064 3.91916 15.4113 3.91916 15.5408C3.91916 15.6702 4.02409 15.7752 4.15353 15.7752H13.799C15.0126 15.7752 16 14.7878 16 13.5742V9.24525C16 9.11581 15.8951 9.01088 15.7656 9.01088V9.01088ZM0.710031 2.25125C0.706688 2.23044 0.714094 2.21484 0.720906 2.20544C0.727719 2.196 0.740187 2.18406 0.761 2.18072L3.68219 1.71037V9.01088H1.70837L0.710031 2.25125Z" fill="currentColor"/>
</g>
<defs>
<clipPath id="clip0">
<rect width="16" height="16" fill="currentColor"/>
</clipPath>
</defs>
</svg>
