<svg width="16" height="16" viewBox="0 0 16 16" fill="none" xmlns="http://www.w3.org/2000/svg">
<path d="M12.75 14H13.25V14.5H12.75V14Z" fill="currentColor"/>
<path d="M11.75 14H12.25V14.5H11.75V14Z" fill="currentColor"/>
<path d="M15.75 4.25115C15.7529 3.69236 15.6387 3.13915 15.4147 2.6272C15.1907 2.11524 14.8619 1.6559 14.4496 1.27877C14.0372 0.90164 13.5504 0.615096 13.0206 0.437605C12.4907 0.260113 11.9295 0.195613 11.3732 0.248262C10.8169 0.300911 10.2778 0.46954 9.79059 0.74328C9.30342 1.01702 8.87902 1.3898 8.54473 1.83759C8.21044 2.28538 7.97368 2.79824 7.84972 3.34312C7.72576 3.88801 7.71733 4.45282 7.825 5.00115H2C1.6686 5.00155 1.35089 5.13337 1.11656 5.36771C0.882221 5.60204 0.750397 5.91975 0.75 6.25115V13.0012H0.5C0.433696 13.0012 0.370107 13.0275 0.323223 13.0744C0.276339 13.1213 0.25 13.1848 0.25 13.2512V14.2512C0.250397 14.5826 0.382221 14.9003 0.616555 15.1346C0.85089 15.3689 1.1686 15.5008 1.5 15.5012H13C13.3314 15.5008 13.6491 15.3689 13.8834 15.1346C14.1178 14.9003 14.2496 14.5826 14.25 14.2512V13.2512C14.25 13.1848 14.2237 13.1213 14.1768 13.0744C14.1299 13.0275 14.0663 13.0012 14 13.0012H13.75V7.7099C14.3573 7.35928 14.8617 6.85518 15.2128 6.24812C15.5638 5.64106 15.7491 4.95239 15.75 4.25115ZM11.75 0.751154C12.2496 0.749625 12.7437 0.855062 13.1991 1.06038C13.6546 1.26569 14.0608 1.56613 14.3905 1.94149C14.7201 2.31686 14.9656 2.75845 15.1104 3.23658C15.2553 3.71471 15.296 4.2183 15.23 4.7135C15.164 5.20871 14.9928 5.68404 14.7278 6.10756C14.4628 6.53108 14.1103 6.89296 13.6938 7.16888C13.2773 7.4448 12.8066 7.62837 12.3133 7.70724C11.82 7.78612 11.3155 7.75847 10.8338 7.62615C10.7886 7.61381 10.7408 7.6145 10.696 7.62815L9.75 7.91415V7.2474C9.75 7.20859 9.74096 7.17031 9.72361 7.1356C9.70625 7.10089 9.68105 7.07069 9.65 7.0474C9.06171 6.60731 8.627 5.99308 8.40758 5.29193C8.18815 4.59077 8.19516 3.83831 8.42762 3.14137C8.66007 2.44442 9.10615 1.83841 9.70254 1.40935C10.2989 0.980292 11.0153 0.749996 11.75 0.751154ZM9.25125 7.3694V7.50115H3C2.9337 7.50115 2.87011 7.52749 2.82322 7.57438C2.77634 7.62126 2.75 7.68485 2.75 7.75115V10.7512C2.75 10.8175 2.77634 10.881 2.82322 10.9279C2.87011 10.9748 2.9337 11.0012 3 11.0012H11.5C11.5663 11.0012 11.6299 10.9748 11.6768 10.9279C11.7237 10.881 11.75 10.8175 11.75 10.7512V8.25115C11.9172 8.2501 12.0842 8.23849 12.25 8.2164V12.0012H2.25V6.50115H8.45C8.67301 6.82834 8.94299 7.1209 9.25125 7.3694ZM9.35125 8.4519C9.3826 8.47517 9.41897 8.49077 9.45743 8.49746C9.49589 8.50414 9.53539 8.50173 9.57275 8.4904L10.7728 8.12665C10.9299 8.16636 11.0893 8.19675 11.25 8.21765V10.5012H3.25V8.00115H9.25V8.25115C9.25 8.28996 9.25904 8.32824 9.27639 8.36296C9.29375 8.39767 9.31895 8.42787 9.35 8.45115L9.35125 8.4519ZM13.75 14.2512C13.75 14.4501 13.671 14.6408 13.5303 14.7815C13.3897 14.9221 13.1989 15.0012 13 15.0012H1.5C1.30109 15.0012 1.11032 14.9221 0.96967 14.7815C0.829018 14.6408 0.75 14.4501 0.75 14.2512V13.5012H5.1465L5.82325 14.1779C5.87012 14.2248 5.9337 14.2511 6 14.2512H8.5C8.5663 14.2511 8.62988 14.2248 8.67675 14.1779L9.3535 13.5012H13.75V14.2512ZM13.25 13.0012H9.25C9.1837 13.0012 9.12012 13.0275 9.07325 13.0744L8.3965 13.7512H6.1035L5.42675 13.0744C5.37988 13.0275 5.3163 13.0012 5.25 13.0012H1.25V6.25115C1.25 6.05224 1.32902 5.86148 1.46967 5.72082C1.61032 5.58017 1.80109 5.50115 2 5.50115H7.952C8.00722 5.67218 8.07404 5.83923 8.152 6.00115H2C1.9337 6.00115 1.87011 6.02749 1.82322 6.07438C1.77634 6.12126 1.75 6.18485 1.75 6.25115V12.2512C1.75 12.3175 1.77634 12.381 1.82322 12.4279C1.87011 12.4748 1.9337 12.5012 2 12.5012H12.5C12.5663 12.5012 12.6299 12.4748 12.6768 12.4279C12.7237 12.381 12.75 12.3175 12.75 12.2512V8.1194C12.9201 8.07622 13.0871 8.02185 13.25 7.95665V13.0012Z" fill="currentColor"/>
<path d="M9.75 4.5H10.5V4H9.75V3.5H10.5V3H9.5C9.4337 3 9.37011 3.02634 9.32322 3.07322C9.27634 3.12011 9.25 3.1837 9.25 3.25V5.5H9.75V4.5Z" fill="currentColor"/>
<path d="M11.5 5H12V5.5H12.5V3.75C12.5 3.55109 12.421 3.36032 12.2803 3.21967C12.1397 3.07902 11.9489 3 11.75 3C11.5511 3 11.3603 3.07902 11.2197 3.21967C11.079 3.36032 11 3.55109 11 3.75V5.5H11.5V5ZM11.75 3.5C11.8163 3.5 11.8799 3.52634 11.9268 3.57322C11.9737 3.62011 12 3.6837 12 3.75V4.5H11.5V3.75C11.5 3.6837 11.5263 3.62011 11.5732 3.57322C11.6201 3.52634 11.6837 3.5 11.75 3.5Z" fill="currentColor"/>
<path d="M13.75 5.5C13.8614 5.49957 13.9712 5.47393 14.0713 5.425L14.3233 5.677L14.6768 5.3235L14.425 5.07125C14.4739 4.9712 14.4996 4.86137 14.5 4.75V3.75C14.5 3.55109 14.421 3.36032 14.2803 3.21967C14.1397 3.07902 13.9489 3 13.75 3C13.5511 3 13.3603 3.07902 13.2197 3.21967C13.079 3.36032 13 3.55109 13 3.75V4.75C13 4.94891 13.079 5.13968 13.2197 5.28033C13.3603 5.42098 13.5511 5.5 13.75 5.5ZM13.5 3.75C13.5 3.6837 13.5263 3.62011 13.5732 3.57322C13.6201 3.52634 13.6837 3.5 13.75 3.5C13.8163 3.5 13.8799 3.52634 13.9268 3.57322C13.9737 3.62011 14 3.6837 14 3.75V4.75C14 4.8163 13.9737 4.87989 13.9268 4.92678C13.8799 4.97366 13.8163 5 13.75 5C13.6837 5 13.6201 4.97366 13.5732 4.92678C13.5263 4.87989 13.5 4.8163 13.5 4.75V3.75Z" fill="currentColor"/>
<path d="M3.75 8.5H7.75V9H3.75V8.5Z" fill="currentColor"/>
<path d="M3.75 9.5H10.75V10H3.75V9.5Z" fill="currentColor"/>
<path d="M8.25 8.5H8.75V9H8.25V8.5Z" fill="currentColor"/>
</svg>
