<svg width="15" height="15" viewBox="0 0 15 15" fill="none" xmlns="http://www.w3.org/2000/svg">
<path d="M12.8033 2.19668C11.3867 0.780117 9.50332 0 7.5 0C5.49668 0 3.61327 0.780117 2.19668 2.19668C0.780088 3.61324 0 5.49668 0 7.5C0 9.50332 0.780117 11.3867 2.19668 12.8033C3.61324 14.2199 5.49668 15 7.5 15C9.50332 15 11.3867 14.2199 12.8033 12.8033C14.2199 11.3868 15 9.50332 15 7.5C15 5.49668 14.2199 3.61327 12.8033 2.19668ZM12.4719 12.4719C11.1438 13.7999 9.37811 14.5312 7.5 14.5312C5.62189 14.5312 3.85617 13.7999 2.52814 12.4719C1.20012 11.1438 0.46875 9.37811 0.46875 7.5C0.46875 5.62189 1.20012 3.85617 2.52814 2.52814C3.85617 1.20012 5.62189 0.46875 7.5 0.46875C9.37811 0.46875 11.1438 1.20012 12.4719 2.52814C13.7999 3.85617 14.5312 5.62189 14.5312 7.5C14.5312 9.37811 13.7999 11.1438 12.4719 12.4719Z" fill="currentColor"/>
<path d="M1.40625 7.5C1.40625 4.13991 4.13991 1.40625 7.5 1.40625C8.71195 1.40625 9.8826 1.76106 10.8854 2.43234C10.9929 2.50436 11.1385 2.47553 11.2105 2.36795C11.2825 2.2604 11.2537 2.11482 11.1461 2.04281C10.0659 1.31971 8.80512 0.9375 7.5 0.9375C5.74708 0.9375 4.0991 1.62012 2.85961 2.85961C1.62012 4.0991 0.9375 5.74708 0.9375 7.5C0.9375 9.11719 1.53088 10.6709 2.60836 11.8748C2.65465 11.9266 2.71875 11.9529 2.78309 11.9529C2.83872 11.9529 2.89459 11.9332 2.9393 11.8932C3.03574 11.8068 3.04397 11.6587 2.95764 11.5622C1.95724 10.4443 1.40625 9.00167 1.40625 7.5Z" fill="currentColor"/>
<path d="M12.9575 3.85403C12.8855 3.74645 12.7399 3.71763 12.6324 3.78964C12.5248 3.86165 12.496 4.00723 12.568 4.11478C13.2392 5.11755 13.5941 6.28819 13.5941 7.50012C13.5941 10.8602 10.8604 13.5939 7.5003 13.5939C6.10627 13.5939 4.74358 13.1111 3.66332 12.2345C3.5628 12.1529 3.41521 12.1683 3.33364 12.2688C3.25208 12.3693 3.26743 12.5169 3.36795 12.5984C4.53147 13.5426 5.99904 14.0626 7.5003 14.0626C9.25322 14.0626 10.9012 13.38 12.1407 12.1405C13.3802 10.901 14.0628 9.25304 14.0628 7.50012C14.0628 6.19503 13.6806 4.93421 12.9575 3.85403Z" fill="currentColor"/>
<path d="M11.5624 2.95591C11.72 3.09691 11.872 3.24782 12.014 3.40438C12.0603 3.45536 12.1239 3.48126 12.1877 3.48126C12.2438 3.48126 12.3002 3.46116 12.3451 3.42044C12.4409 3.33345 12.4482 3.18521 12.3612 3.08935C12.2082 2.92084 12.0447 2.75842 11.875 2.6066C11.7786 2.52029 11.6304 2.52849 11.5441 2.62494C11.4578 2.72138 11.466 2.86957 11.5624 2.95591Z" fill="currentColor"/>
<path d="M7.5 3.04688C7.62943 3.04688 7.73438 2.94193 7.73438 2.8125V2.10938C7.73438 1.97994 7.62943 1.875 7.5 1.875C7.37057 1.875 7.26562 1.97994 7.26562 2.10938V2.8125C7.26562 2.94193 7.37057 3.04688 7.5 3.04688Z" fill="currentColor"/>
<path d="M7.26562 12.1875V12.8906C7.26562 13.0201 7.37057 13.125 7.5 13.125C7.62943 13.125 7.73438 13.0201 7.73438 12.8906V12.1875C7.73438 12.0581 7.62943 11.9531 7.5 11.9531C7.37057 11.9531 7.26562 12.0581 7.26562 12.1875Z" fill="currentColor"/>
<path d="M3.04688 7.5C3.04688 7.37057 2.94193 7.26562 2.8125 7.26562H2.10938C1.97994 7.26562 1.875 7.37057 1.875 7.5C1.875 7.62943 1.97994 7.73438 2.10938 7.73438H2.8125C2.94193 7.73438 3.04688 7.62943 3.04688 7.5Z" fill="currentColor"/>
<path d="M11.9531 7.5C11.9531 7.62943 12.0581 7.73438 12.1875 7.73438H12.8906C13.0201 7.73438 13.125 7.62943 13.125 7.5C13.125 7.37057 13.0201 7.26562 12.8906 7.26562H12.1875C12.0581 7.26562 11.9531 7.37057 11.9531 7.5Z" fill="currentColor"/>
<path d="M5.35925 3.3238L5.00769 2.71487C4.94297 2.60275 4.79962 2.5644 4.68753 2.62909C4.57544 2.6938 4.53703 2.83715 4.60175 2.94924L4.95331 3.55818C4.99673 3.63335 5.07551 3.6754 5.15651 3.6754C5.19627 3.6754 5.23658 3.66526 5.2735 3.64396C5.38556 3.57924 5.42397 3.43589 5.35925 3.3238Z" fill="currentColor"/>
<path d="M10.0468 11.4414C9.98203 11.3293 9.83865 11.291 9.72659 11.3556C9.6145 11.4203 9.5761 11.5637 9.64081 11.6758L9.99238 12.2847C10.0358 12.3599 10.1146 12.4019 10.1956 12.4019C10.2353 12.4019 10.2756 12.3918 10.3126 12.3705C10.4247 12.3058 10.4631 12.1624 10.3983 12.0503L10.0468 11.4414Z" fill="currentColor"/>
<path d="M2.83227 10.4297C2.87202 10.4297 2.91234 10.4196 2.94925 10.3983L3.55818 10.0467C3.67027 9.98201 3.70868 9.83866 3.64397 9.72657C3.57925 9.61448 3.43587 9.57613 3.32381 9.64079L2.71487 9.99235C2.60278 10.0571 2.56438 10.2004 2.62909 10.3125C2.67248 10.3877 2.75126 10.4297 2.83227 10.4297Z" fill="currentColor"/>
<path d="M11.5598 5.39066C11.5996 5.39066 11.6399 5.38052 11.6768 5.35922L12.2857 5.00766C12.3978 4.94294 12.4362 4.79959 12.3715 4.6875C12.3068 4.57541 12.1634 4.53707 12.0513 4.60172L11.4424 4.95329C11.3303 5.018 11.2919 5.16135 11.3566 5.27344C11.4001 5.34862 11.4788 5.39066 11.5598 5.39066Z" fill="currentColor"/>
<path d="M10.3125 2.62911C10.2004 2.56437 10.0571 2.60277 9.99238 2.71489L9.64081 3.32383C9.5761 3.43592 9.6145 3.57927 9.72659 3.64399C9.76351 3.66531 9.80379 3.67542 9.84358 3.67542C9.92458 3.67542 10.0034 3.63338 10.0468 3.5582L10.3983 2.94927C10.463 2.83718 10.4246 2.69383 10.3125 2.62911Z" fill="currentColor"/>
<path d="M5.27347 11.3596C5.16138 11.2948 5.01803 11.3333 4.95331 11.4453L4.60175 12.0543C4.53703 12.1664 4.57544 12.3097 4.68753 12.3744C4.72444 12.3958 4.76473 12.4059 4.80451 12.4059C4.88552 12.4059 4.9643 12.3638 5.00772 12.2887L5.35928 11.6797C5.42397 11.5676 5.38556 11.4243 5.27347 11.3596Z" fill="currentColor"/>
<path d="M11.4424 10.0468L12.0513 10.3983C12.0883 10.4197 12.1285 10.4298 12.1683 10.4298C12.2493 10.4298 12.3281 10.3877 12.3715 10.3125C12.4362 10.2005 12.3978 10.0571 12.2857 9.99239L11.6768 9.64082C11.5647 9.57608 11.4214 9.61452 11.3567 9.72661C11.2919 9.8387 11.3303 9.98205 11.4424 10.0468Z" fill="currentColor"/>
<path d="M3.55721 4.95332L2.94827 4.60176C2.83618 4.53702 2.69283 4.57545 2.62812 4.68754C2.5634 4.79963 2.60181 4.94298 2.7139 5.0077L3.32283 5.35926C3.35975 5.38059 3.40003 5.3907 3.43982 5.3907C3.52082 5.3907 3.5996 5.34866 3.64302 5.27348C3.70771 5.16139 3.6693 5.01804 3.55721 4.95332Z" fill="currentColor"/>
<path d="M9.1316 10.5601C9.17136 10.5601 9.21167 10.55 9.24859 10.5287C9.36068 10.4639 9.39908 10.3206 9.33437 10.2085L8.03417 7.95647C8.13938 7.83352 8.20313 7.67411 8.20313 7.5C8.20313 7.19446 8.00716 6.93393 7.73438 6.83719V3.75C7.73438 3.62057 7.62943 3.51562 7.5 3.51562C7.37057 3.51562 7.26563 3.62057 7.26563 3.75V6.83719C6.99284 6.93393 6.79688 7.19446 6.79688 7.5C6.79688 7.88771 7.11229 8.20312 7.5 8.20312C7.54386 8.20312 7.58675 8.19888 7.62841 8.19117L8.92843 10.4429C8.97185 10.518 9.05063 10.5601 9.1316 10.5601ZM7.26563 7.5C7.26563 7.37077 7.37077 7.26562 7.5 7.26562C7.62923 7.26562 7.73438 7.37077 7.73438 7.5C7.73438 7.62923 7.62923 7.73437 7.5 7.73437C7.37077 7.73437 7.26563 7.62923 7.26563 7.5Z" fill="currentColor"/>
</svg>
