<svg width="15" height="12" viewBox="0 0 15 12" fill="none" xmlns="http://www.w3.org/2000/svg">
<path d="M15 1.25V9.8125C15 10.5017 14.4392 11.0625 13.75 11.0625H1.25C0.56075 11.0625 0 10.5017 0 9.8125V6.0625C0 5.92444 0.111937 5.8125 0.25 5.8125C0.388063 5.8125 0.5 5.92444 0.5 6.0625V9.8125C0.5 10.226 0.836469 10.5625 1.25 10.5625H13.75C14.1635 10.5625 14.5 10.226 14.5 9.8125V1.25C14.5 0.836469 14.1635 0.5 13.75 0.5H1.25C0.836469 0.5 0.5 0.836469 0.5 1.25V2.25H13.3125C13.4506 2.25 13.5625 2.36194 13.5625 2.5C13.5625 2.63806 13.4506 2.75 13.3125 2.75H0.5V4.375H13.3125C13.4506 4.375 13.5625 4.48694 13.5625 4.625C13.5625 4.76306 13.4506 4.875 13.3125 4.875H0.25C0.111937 4.875 0 4.76306 0 4.625V1.25C0 0.56075 0.56075 0 1.25 0H13.75C14.4392 0 15 0.56075 15 1.25ZM13 7.75C13 7.10822 12.2866 6.719 11.7461 7.06822C12.2764 7.93697 11.6487 9.0625 10.625 9.0625C9.90128 9.0625 9.3125 8.47372 9.3125 7.75C9.3125 6.67291 10.5449 6.05594 11.4062 6.69606C12.2714 6.05609 13.5 6.67491 13.5 7.75C13.5 8.47372 12.9112 9.0625 12.1875 9.0625C12.0494 9.0625 11.9375 8.95056 11.9375 8.8125C11.9375 8.67444 12.0494 8.5625 12.1875 8.5625C12.6355 8.5625 13 8.19803 13 7.75ZM11.4375 7.75C11.4375 7.30197 11.073 6.9375 10.625 6.9375C10.177 6.9375 9.8125 7.30197 9.8125 7.75C9.8125 8.19803 10.177 8.5625 10.625 8.5625C11.073 8.5625 11.4375 8.19803 11.4375 7.75ZM2.28125 7.21875H4.375C4.51306 7.21875 4.625 7.10681 4.625 6.96875C4.625 6.83069 4.51306 6.71875 4.375 6.71875H2.28125C2.14319 6.71875 2.03125 6.83069 2.03125 6.96875C2.03125 7.10681 2.14319 7.21875 2.28125 7.21875ZM2.28125 8.78125H4.375C4.51306 8.78125 4.625 8.66931 4.625 8.53125C4.625 8.39319 4.51306 8.28125 4.375 8.28125H2.28125C2.14319 8.28125 2.03125 8.39319 2.03125 8.53125C2.03125 8.66931 2.14319 8.78125 2.28125 8.78125Z" fill="currentColor"/>
</svg>
