<svg width="28" height="28" viewBox="0 0 28 28" fill="none" xmlns="http://www.w3.org/2000/svg">
<g clip-path="url(#clip0)">
<path d="M5.28245 5.28573C9.78195 0.786339 16.9238 0.500718 21.7591 4.42838L20.2657 5.02043L20.8713 6.54789L24.0155 5.30134L24.6623 1.82684L23.047 1.52616L22.7508 3.11693C11.2838 -5.86252 -4.35062 6.09938 1.13594 19.4528L2.64882 18.8118C0.679765 14.164 1.71353 8.85465 5.28245 5.28573Z" fill="currentColor"/>
<path d="M26.8565 8.54688L25.3436 9.18784C30.2579 21.0843 16.1571 31.5171 6.2329 23.5714L7.72667 22.9792L7.12114 21.4518L3.97701 22.6983L3.33008 26.1728L4.94538 26.4735L5.24158 24.8826C16.5756 33.8558 32.3865 21.9275 26.8565 8.54688Z" fill="currentColor"/>
<path d="M22.212 11.5359H19.9468L21.5486 9.93414L18.0631 6.44863L16.4613 8.05041V5.78516H11.532V8.05041L9.93023 6.44863L6.44472 9.93414L8.04656 11.5359H5.78125V16.4651H8.04656L6.44472 18.0669L9.93023 21.5524L11.532 19.9506V22.2159H16.4613V19.9506L18.0631 21.5524L21.5486 18.0669L19.9468 16.4651H22.212V11.5359ZM20.569 14.8221H18.0642C17.8977 15.28 17.8469 15.473 17.7043 15.771L17.4534 16.2955L19.225 18.0669L18.0631 19.2288L16.2917 17.4572C15.8457 17.6657 15.6828 17.7623 15.3661 17.8742L14.8183 18.0678V20.5728H13.1751V18.0678C12.7141 17.9002 12.525 17.851 12.2262 17.7082L11.7018 17.4572L9.93028 19.2288L8.76847 18.0669L10.54 16.2954C10.3305 15.8472 10.2352 15.6874 10.1229 15.3698L9.9293 14.8221H7.42438V13.179H9.9293C10.0957 12.7211 10.1464 12.5281 10.289 12.2301L10.54 11.7056L8.76847 9.93414L9.93028 8.77226L11.7019 10.544L12.2264 10.2928C12.5232 10.1506 12.7134 10.1009 13.1751 9.93304V7.42823H14.8183V9.93299L15.3659 10.1266C15.6854 10.2397 15.844 10.3346 16.2915 10.5439L18.0631 8.77221L19.225 9.93408L17.4534 11.7055C17.6622 12.1522 17.7578 12.3125 17.8705 12.6313L18.0642 13.1789H20.569V14.8221Z" fill="currentColor"/>
<path d="M13.9964 11.5352C12.6374 11.5352 11.5317 12.6408 11.5317 13.9998C11.6671 17.2694 16.3261 17.2684 16.461 13.9998C16.461 12.6407 15.3554 11.5352 13.9964 11.5352ZM13.9964 14.8213C13.5434 14.8213 13.1748 14.4528 13.1748 13.9998C13.2199 12.9099 14.773 12.9102 14.8179 13.9998C14.8179 14.4528 14.4494 14.8213 13.9964 14.8213Z" fill="currentColor"/>
</g>
<defs>
<clipPath id="clip0">
<rect width="28" height="28" fill="currentColor"/>
</clipPath>
</defs>
</svg>
