<svg width="42" height="42" viewBox="0 0 42 42" fill="none" xmlns="http://www.w3.org/2000/svg">
<circle cx="21.0978" cy="20.902" r="20.402" stroke="white"/>
<path d="M28.3333 17.4245C28.2498 17.4767 26.2621 18.5799 26.2621 21.0259C26.3557 23.8153 28.7705 24.7936 28.8119 24.7936C28.7705 24.8459 28.4473 26.1262 27.4901 27.4683C26.7305 28.6244 25.8873 29.79 24.607 29.79C23.3891 29.79 22.9519 29.0195 21.5466 29.0195C20.0375 29.0195 19.6105 29.79 18.4551 29.79C17.1747 29.79 16.2691 28.562 15.4681 27.4167C14.4274 25.9178 13.5428 23.5655 13.5116 21.3069C13.4905 20.1101 13.72 18.9336 14.3025 17.9343C15.1246 16.5392 16.5923 15.5922 18.1951 15.561C19.4231 15.5196 20.5161 16.4041 21.2656 16.4041C21.9838 16.4041 23.3266 15.561 24.8459 15.561C25.5017 15.5617 27.2505 15.7592 28.3333 17.4245ZM21.1617 15.322C20.9431 14.229 21.5466 13.1361 22.1087 12.4389C22.827 11.5957 23.9614 11.0234 24.9396 11.0234C25.0021 12.1164 24.6063 13.1883 23.8989 13.969C23.2642 14.8122 22.1712 15.4469 21.1617 15.322Z" fill="white"/>
</svg>
