<svg width="49" height="49" viewBox="0 0 49 49" fill="none" xmlns="http://www.w3.org/2000/svg">
<path d="M24.5001 0C10.9692 0 0 10.9692 0 24.5001C0 36.6358 8.83278 46.6862 20.414 48.6323V29.6115H14.5039V22.7667H20.414V17.7196C20.414 11.8636 23.9907 8.67233 29.2155 8.67233C31.7179 8.67233 33.8684 8.8588 34.4926 8.94092V15.0621L30.8689 15.0638C28.0281 15.0638 27.4804 16.4135 27.4804 18.3948V22.7632H34.2588L33.3747 29.608H27.4804V48.796C39.6023 47.3207 49 37.0143 49 24.4931C49 10.9692 38.0308 0 24.5001 0Z" fill="#fff"/>
</svg>
