<svg width="42" height="42" viewBox="0 0 42 42" fill="none" xmlns="http://www.w3.org/2000/svg">
<path d="M21.4135 18.8028V22.4634H26.6288C25.9484 24.6815 24.0943 26.2702 21.4135 26.2702C18.2225 26.2702 15.6335 23.6813 15.6335 20.4902C15.6335 17.2991 18.2191 14.7102 21.4135 14.7102C22.8492 14.7102 24.159 15.2375 25.1694 16.105L27.8638 13.4072C26.1628 11.8559 23.897 10.9102 21.4135 10.9102C16.12 10.9102 11.8301 15.2001 11.8301 20.4902C11.8301 25.7804 16.12 30.0703 21.4135 30.0703C29.4559 30.0703 31.2318 22.5484 30.4425 18.8164L21.4135 18.8028Z" fill="white"/>
<circle cx="21.0001" cy="20.902" r="20.402" stroke="white"/>
</svg>
