<svg width="49" height="49" viewBox="0 0 49 49" fill="none" xmlns="http://www.w3.org/2000/svg">
<path d="M29.1895 24.502C29.1895 27.0919 27.09 29.1914 24.5 29.1914C21.91 29.1914 19.8105 27.0919 19.8105 24.502C19.8105 21.912 21.91 19.8125 24.5 19.8125C27.09 19.8125 29.1895 21.912 29.1895 24.502Z" fill="white"/>
<path d="M35.467 16.2012C35.2416 15.5903 34.882 15.0374 34.4146 14.5836C33.9608 14.1163 33.4083 13.7566 32.797 13.5312C32.3013 13.3387 31.5566 13.1095 30.185 13.0471C28.7012 12.9794 28.2564 12.9648 24.5 12.9648C20.7433 12.9648 20.2984 12.979 18.815 13.0467C17.4434 13.1095 16.6984 13.3387 16.203 13.5312C15.5918 13.7566 15.0389 14.1163 14.5854 14.5836C14.1181 15.0374 13.7585 15.59 13.5327 16.2012C13.3401 16.6969 13.111 17.442 13.0486 18.8136C12.9809 20.297 12.9663 20.7418 12.9663 24.4986C12.9663 28.2549 12.9809 28.6998 13.0486 30.1836C13.111 31.5552 13.3401 32.2999 13.5327 32.7956C13.7585 33.4068 14.1177 33.9593 14.585 34.4132C15.0389 34.8805 15.5914 35.2401 16.2026 35.4655C16.6984 35.6584 17.4434 35.8876 18.815 35.95C20.2984 36.0177 20.7429 36.0319 24.4997 36.0319C28.2568 36.0319 28.7016 36.0177 30.1846 35.95C31.5563 35.8876 32.3013 35.6584 32.797 35.4655C34.024 34.9923 34.9937 34.0225 35.467 32.7956C35.6595 32.2999 35.8887 31.5552 35.9515 30.1836C36.0192 28.6998 36.0334 28.2549 36.0334 24.4986C36.0334 20.7418 36.0192 20.297 35.9515 18.8136C35.8891 17.442 35.6599 16.6969 35.467 16.2012ZM24.5 31.7223C20.51 31.7223 17.2756 28.4882 17.2756 24.4982C17.2756 20.5082 20.51 17.2741 24.5 17.2741C28.4897 17.2741 31.7241 20.5082 31.7241 24.4982C31.7241 28.4882 28.4897 31.7223 24.5 31.7223ZM32.0097 18.6768C31.0774 18.6768 30.3215 17.9208 30.3215 16.9885C30.3215 16.0561 31.0774 15.3002 32.0097 15.3002C32.9421 15.3002 33.698 16.0561 33.698 16.9885C33.6976 17.9208 32.9421 18.6768 32.0097 18.6768Z" fill="white"/>
<path d="M24.5 0C10.9711 0 0 10.9711 0 24.5C0 38.0289 10.9711 49 24.5 49C38.0289 49 49 38.0289 49 24.5C49 10.9711 38.0289 0 24.5 0ZM38.4835 30.3001C38.4155 31.7977 38.1773 32.8202 37.8297 33.7152C37.0988 35.6049 35.6049 37.0988 33.7152 37.8297C32.8206 38.1773 31.7977 38.4151 30.3005 38.4835C28.8003 38.5519 28.321 38.5684 24.5004 38.5684C20.6794 38.5684 20.2005 38.5519 18.6999 38.4835C17.2026 38.4151 16.1798 38.1773 15.2852 37.8297C14.3461 37.4764 13.496 36.9227 12.7932 36.2068C12.0777 35.5044 11.524 34.6539 11.1707 33.7152C10.8231 32.8206 10.5849 31.7977 10.5169 30.3005C10.4477 28.7999 10.4316 28.3206 10.4316 24.5C10.4316 20.6794 10.4477 20.2001 10.5165 18.6999C10.5845 17.2023 10.8223 16.1798 11.17 15.2848C11.5233 14.3461 12.0773 13.4956 12.7932 12.7932C13.4956 12.0773 14.3461 11.5236 15.2848 11.1703C16.1798 10.8227 17.2023 10.5849 18.6999 10.5165C20.2001 10.4481 20.6794 10.4316 24.5 10.4316C28.3206 10.4316 28.7999 10.4481 30.3001 10.5169C31.7977 10.5849 32.8202 10.8227 33.7152 11.17C34.6539 11.5233 35.5044 12.0773 36.2072 12.7932C36.9227 13.496 37.4767 14.3461 37.8297 15.2848C38.1777 16.1798 38.4155 17.2023 38.4839 18.6999C38.5523 20.2001 38.5684 20.6794 38.5684 24.5C38.5684 28.3206 38.5523 28.7999 38.4835 30.3001Z" fill="white"/>
</svg>
