<svg width="49" height="49" viewBox="0 0 49 49" fill="none" xmlns="http://www.w3.org/2000/svg">
<path d="M24.5 0C10.9711 0 0 10.9711 0 24.5C0 38.0289 10.9711 49 24.5 49C38.0289 49 49 38.0289 49 24.5C49 10.9711 38.0289 0 24.5 0ZM17.3806 37.0371H11.4137V19.0857H17.3806V37.0371ZM14.3973 16.6344H14.3585C12.3562 16.6344 11.0612 15.2561 11.0612 13.5334C11.0612 11.7719 12.3958 10.4316 14.437 10.4316C16.4781 10.4316 17.7342 11.7719 17.7731 13.5334C17.7731 15.2561 16.4781 16.6344 14.3973 16.6344ZM38.8958 37.0371H32.9297V27.4335C32.9297 25.02 32.0658 23.374 29.9069 23.374C28.2586 23.374 27.2769 24.4843 26.8455 25.5561C26.6877 25.9397 26.6492 26.4757 26.6492 27.0122V37.0371H20.6827C20.6827 37.0371 20.7608 20.7698 20.6827 19.0857H26.6492V21.6274C27.4421 20.4042 28.8608 18.6644 32.0265 18.6644C35.9522 18.6644 38.8958 21.23 38.8958 26.7438V37.0371Z" fill="white"/>
</svg>
