<svg width="49" height="49" viewBox="0 0 49 49" fill="none" xmlns="http://www.w3.org/2000/svg">
<path d="M24.5 0C10.9711 0 0 10.9711 0 24.5C0 38.0289 10.9711 49 24.5 49C38.0289 49 49 38.0289 49 24.5C49 10.9711 38.0289 0 24.5 0ZM36.7912 18.7457V22.063C35.2269 22.0636 33.707 21.7571 32.2736 21.1523C31.3519 20.7632 30.4931 20.2618 29.7077 19.6559L29.7312 29.8667C29.7214 32.166 28.8117 34.3263 27.1653 35.9536C25.8255 37.2781 24.1277 38.1204 22.2875 38.393C21.8551 38.4571 21.4151 38.4899 20.9701 38.4899C19.0002 38.4899 17.1301 37.8517 15.6003 36.6744C15.3124 36.4527 15.0371 36.2124 14.7749 35.9536C12.9906 34.19 12.0706 31.7999 12.2255 29.2855C12.3437 27.3716 13.11 25.5462 14.3874 24.1156C16.0776 22.2224 18.442 21.1715 20.9701 21.1715C21.4151 21.1715 21.8551 21.2049 22.2875 21.269V22.4955V25.9075C21.8775 25.7723 21.4397 25.6979 20.9838 25.6979C18.6741 25.6979 16.8055 27.5823 16.84 29.8937C16.8619 31.3726 17.6698 32.6654 18.8613 33.378C19.4212 33.713 20.0654 33.9204 20.7528 33.9581C21.2915 33.9877 21.8086 33.9127 22.2875 33.7546C23.9377 33.2095 25.1282 31.6595 25.1282 29.8313L25.1336 22.9936V10.5101H29.7021C29.7065 10.9628 29.7525 11.4045 29.8378 11.8324C30.1827 13.5648 31.1591 15.0677 32.5181 16.0923C33.7031 16.9861 35.1786 17.5159 36.7779 17.5159C36.779 17.5159 36.7922 17.5159 36.7911 17.5148V18.7457H36.7912Z" fill="white"/>
</svg>
