<svg width="88" height="85" viewBox="0 0 88 85" fill="none" xmlns="http://www.w3.org/2000/svg">
<path d="M71.911 48.6633C66.4214 48.6633 59.5513 49.6084 57.3039 49.941C48.0016 40.3523 45.355 34.902 44.7597 33.4489C45.5665 31.4028 48.3735 23.6301 48.7723 13.6475C48.969 8.64943 47.8994 4.91483 45.5923 2.54736C43.2893 0.183816 40.5016 0 39.7022 0C36.8992 0 32.1971 1.39907 32.1971 10.7681C32.1971 18.8972 36.0368 27.5231 37.0982 29.7518C31.5062 45.824 25.5025 56.8263 24.2276 59.089C1.75719 67.44 0 75.5144 0 77.8029C0 81.9152 2.96706 84.3704 7.93686 84.3704C20.0115 84.3704 31.0304 64.3602 32.8523 60.8857C41.4282 57.5128 52.9064 55.4236 55.8243 54.9251C64.1941 62.795 73.874 64.8949 77.8936 64.8949C80.918 64.8949 88.001 64.8949 88.001 57.7067C88.0013 51.0316 79.3337 48.6633 71.911 48.6633ZM71.329 53.3823C77.8511 53.3823 79.5747 55.5113 79.5747 56.6369C79.5747 57.3433 79.3031 59.648 75.8072 59.648C72.6723 59.648 67.26 57.8597 61.9347 53.9794C64.1555 53.6913 67.4416 53.3823 71.329 53.3823ZM39.3599 4.5741C39.9546 4.5741 40.346 4.76268 40.6688 5.20457C42.5447 7.77379 41.0322 16.1688 39.1912 22.7382C37.4142 17.1052 36.0805 8.46198 37.9569 5.42117C38.3237 4.82769 38.743 4.5741 39.3599 4.5741ZM36.1924 54.8581C38.5536 50.1495 41.2002 43.2872 42.6417 39.4061C45.5265 44.1721 49.4065 48.5972 51.6505 50.9963C44.6635 52.4503 39.3772 53.9029 36.1924 54.8581ZM4.69047 78.4311C4.53491 78.249 4.51191 77.8651 4.62915 77.4041C4.87499 76.4383 6.75367 71.6504 20.3419 65.6506C18.3962 68.6757 15.3545 72.9982 12.013 76.2273C9.66084 78.4006 7.82928 79.5026 6.56915 79.5026C6.11836 79.5026 5.49724 79.3813 4.69047 78.4311Z" fill="#616161"/>
</svg>
